{"glyphs":{"0":{"ha":836,"x_min":66,"x_max":810,"o":"m 342 -20 q 217 2 269 -20 q 132 66 166 23 q 83 171 100 109 q 66 323 66 233 q 69 394 66 362 q 77 458 72 425 q 105 601 87 532 q 203 843 143 745 q 245 901 224 878 q 292 949 267 928 q 345 985 317 970 q 533 1031 427 1031 q 660 1009 609 1031 q 743 945 711 987 q 810 694 810 861 q 801 558 810 631 q 772 411 791 485 q 674 170 734 267 q 645 127 661 149 q 610 86 629 105 q 532 27 574 50 q 342 -20 450 -20 m 359 112 q 412 120 387 112 q 435 130 422 123 q 460 144 448 136 q 538 238 506 175 q 549 259 543 247 q 562 287 555 272 q 573 314 568 300 q 583 340 578 328 q 594 371 590 359 q 603 399 598 382 q 611 429 606 410 q 620 465 616 447 q 630 513 627 494 q 638 553 634 532 q 649 637 646 598 q 652 713 652 677 q 651 753 652 738 q 647 787 650 768 q 641 814 646 798 q 637 826 640 819 q 631 839 634 834 q 620 857 629 846 q 519 899 589 899 q 416 867 462 899 q 371 825 391 850 q 337 774 351 800 q 292 672 313 732 q 255 547 270 612 q 231 411 239 477 q 223 294 223 344 q 257 153 223 195 q 359 112 290 112 m 388 278 q 387 279 387 278 q 386 279 387 279 l 383 279 q 353 368 350 290 l 353 376 q 355 385 353 378 l 355 394 q 355 404 355 397 q 362 461 361 448 q 367 492 364 474 q 373 520 368 500 q 378 545 377 541 q 386 570 384 566 q 387 575 387 574 q 393 593 389 581 q 399 614 397 606 q 409 639 404 625 q 418 661 415 653 q 450 712 431 690 q 486 735 469 735 l 489 735 q 493 734 489 735 q 526 647 529 724 l 526 646 q 525 638 525 644 l 525 629 q 517 559 524 608 q 511 528 513 543 q 506 506 508 513 q 488 442 500 483 q 463 372 475 401 q 427 302 444 325 q 390 278 409 278 l 388 278 z "},"1":{"ha":836,"x_min":29,"x_max":692,"o":"m 64 176 l 288 176 l 406 805 l 250 682 l 171 793 l 453 1013 l 644 1013 l 482 176 l 692 176 l 657 0 l 29 0 l 64 176 z "},"2":{"ha":836,"x_min":-20,"x_max":770,"o":"m 9 148 q 31 186 14 170 l 201 339 q 241 374 227 362 q 267 397 255 387 q 300 426 279 408 q 510 638 447 557 q 572 772 572 718 q 534 846 572 818 q 431 873 496 873 q 303 854 374 873 q 234 830 273 845 q 153 794 195 815 l 187 975 q 334 1017 262 1003 q 406 1027 370 1024 q 473 1031 442 1031 q 592 1015 537 1031 q 688 967 647 1000 q 748 896 726 937 q 770 804 770 854 q 462 368 770 629 l 435 345 l 220 176 l 659 176 l 624 0 l -20 0 l 9 148 z "},"3":{"ha":836,"x_min":-21,"x_max":762,"o":"m 286 -20 q 140 -7 218 -20 q -21 31 58 8 l 16 214 q 84 185 50 197 q 151 166 118 174 q 292 150 221 150 q 455 196 406 151 q 509 323 503 241 q 465 420 509 388 q 349 453 422 453 l 241 453 l 277 629 l 383 629 q 520 667 466 629 q 572 762 572 706 q 534 836 572 810 q 489 854 516 847 q 422 861 461 861 q 299 847 366 861 q 229 829 264 840 q 157 806 194 819 l 193 987 q 330 1020 264 1010 q 452 1031 396 1031 q 581 1014 524 1031 q 677 966 637 997 q 739 887 719 932 q 760 789 760 842 q 732 679 762 731 q 647 592 702 627 q 518 546 591 556 q 654 466 610 522 q 699 319 699 409 q 648 141 699 217 q 505 22 598 64 q 286 -20 412 -20 z "},"4":{"ha":836,"x_min":12,"x_max":760,"o":"m 415 218 l 12 218 l 52 412 l 550 1013 l 760 1013 l 639 390 l 750 390 l 717 218 l 606 218 l 564 0 l 372 0 l 415 218 m 449 390 l 524 782 l 196 390 l 449 390 z "},"5":{"ha":836,"x_min":4,"x_max":781,"o":"m 262 -20 q 134 -9 197 -20 q 4 24 69 2 l 39 204 q 144 163 85 177 q 204 152 174 155 q 265 149 235 149 q 451 202 384 149 q 518 345 518 255 q 470 459 518 418 q 338 500 422 500 q 231 486 290 500 q 121 447 175 473 l 231 1013 l 781 1013 l 746 836 l 358 836 l 322 648 q 369 661 342 657 q 422 665 393 665 q 543 645 489 665 q 635 587 597 624 q 713 370 713 509 q 683 211 713 283 q 592 86 652 139 q 262 -20 473 -20 z "},"6":{"ha":836,"x_min":65,"x_max":793,"o":"m 369 -22 q 142 63 221 -22 q 84 169 104 106 q 65 326 65 232 q 106 604 65 463 q 221 846 147 745 q 293 926 254 891 q 382 984 332 960 q 597 1029 477 1029 q 694 1019 651 1029 q 793 989 742 1008 l 758 807 q 712 835 732 825 q 670 852 692 845 q 574 868 621 868 q 395 795 468 868 q 333 704 359 758 q 292 579 307 649 q 384 646 334 625 q 496 668 435 668 q 675 593 609 668 q 724 505 707 556 q 741 383 741 454 q 714 223 741 294 q 636 94 687 152 q 520 7 585 37 q 369 -22 455 -22 m 374 140 q 460 172 421 140 q 522 256 498 203 q 545 373 545 309 q 514 473 545 438 q 431 507 483 507 q 362 489 393 507 q 309 439 331 470 q 272 362 285 405 q 260 277 260 319 q 290 176 260 211 q 325 150 304 160 q 374 140 346 140 z "},"7":{"ha":836,"x_min":74,"x_max":831,"o":"m 572 836 l 143 836 l 178 1013 l 831 1013 l 803 871 l 290 0 l 74 0 l 572 836 z "},"8":{"ha":836,"x_min":43,"x_max":771,"o":"m 340 -20 q 214 -2 269 -20 q 121 48 159 16 q 43 239 43 116 q 110 433 43 352 q 294 542 176 515 q 233 567 260 551 q 188 608 207 583 q 151 729 151 655 q 176 844 151 789 q 251 943 200 899 q 359 1007 298 984 q 495 1031 421 1031 q 695 964 617 1031 q 751 888 732 932 q 771 787 771 844 q 711 619 771 690 q 549 533 650 550 q 664 456 623 513 q 695 393 684 428 q 705 313 705 359 q 681 181 705 242 q 605 73 656 119 q 492 5 558 30 q 340 -20 426 -20 m 443 612 q 501 623 473 612 q 551 653 530 633 q 595 757 595 694 q 564 841 595 810 q 478 871 532 871 q 372 829 414 871 q 329 726 329 789 q 359 644 329 675 q 443 612 391 612 m 358 142 q 481 193 433 142 q 528 321 528 244 q 518 378 528 355 q 492 418 509 402 q 451 444 475 434 q 393 453 427 453 q 269 402 317 453 q 233 344 245 377 q 221 275 221 311 q 259 176 221 212 q 358 142 296 142 z "},"9":{"ha":836,"x_min":37,"x_max":765,"o":"m 234 -21 q 136 -11 180 -21 q 91 1 115 -6 q 37 20 66 8 l 72 201 q 114 175 92 187 q 161 156 136 163 q 257 140 210 140 q 435 214 363 140 q 499 309 474 255 q 539 429 524 363 q 446 363 496 385 q 335 340 397 340 q 229 361 273 340 q 157 415 186 382 q 107 509 122 456 q 92 623 92 562 q 119 787 92 711 q 194 916 147 863 q 314 1002 245 973 q 465 1031 383 1031 q 595 1008 538 1031 q 688 945 652 986 q 765 684 765 861 q 746 498 765 593 q 693 315 728 403 q 610 161 658 228 q 536 80 574 113 q 450 24 498 47 q 346 -10 400 1 q 234 -21 292 -21 m 399 501 q 521 569 471 501 q 571 731 571 639 q 541 832 571 797 q 458 868 509 868 q 336 800 385 868 q 300 722 312 765 q 288 634 288 680 q 295 575 288 597 q 318 536 302 553 q 351 511 332 520 q 399 501 370 501 z "},"\u0000":{"ha":836,"x_min":0,"x_max":0,"o":""},"\r":{"ha":836,"x_min":0,"x_max":0,"o":""}," ":{"ha":836,"x_min":0,"x_max":0,"o":""},"!":{"ha":836,"x_min":315,"x_max":674,"o":"m 432 715 l 480 1023 l 674 1023 l 625 713 l 517 323 l 423 323 l 432 715 m 415 -44 q 371 -36 389 -44 q 341 -15 353 -27 q 321 23 326 2 q 315 61 315 43 q 340 139 315 104 q 405 191 365 175 q 454 199 427 199 q 501 189 484 199 q 529 168 518 179 q 548 134 543 152 q 554 95 554 115 q 545 45 554 67 q 465 -35 522 -12 q 415 -44 444 -44 z "},"\"":{"ha":836,"x_min":157,"x_max":677,"o":"m 157 1013 l 330 1013 l 330 636 l 157 636 l 157 1013 m 504 1013 l 677 1013 l 677 636 l 504 636 l 504 1013 z "},"#":{"ha":836,"x_min":-28,"x_max":860,"o":"m 135 253 l -28 253 l 8 399 l 172 399 l 221 597 l 58 597 l 94 743 l 258 743 l 322 997 l 472 997 l 408 743 l 547 743 l 611 997 l 761 997 l 697 743 l 860 743 l 823 597 l 660 597 l 611 399 l 774 399 l 737 253 l 574 253 l 510 0 l 359 0 l 424 253 l 285 253 l 221 0 l 71 0 l 135 253 m 460 399 l 510 597 l 372 597 l 322 399 l 460 399 z "},"$":{"ha":836,"x_min":26,"x_max":741,"o":"m 245 0 q 213 5 243 1 q 153 17 184 9 q 90 37 119 26 q 26 62 60 47 l 61 240 q 182 176 119 200 q 308 151 243 154 l 354 386 q 252 421 290 401 q 188 469 214 441 q 148 531 161 497 q 135 610 135 566 q 222 809 135 728 q 418 895 309 890 l 451 1055 l 601 1055 l 569 895 q 592 890 566 893 q 640 882 618 886 q 688 872 662 878 q 741 856 713 865 l 707 686 q 662 711 685 701 q 618 728 639 721 q 507 745 570 743 l 464 532 q 642 442 587 499 q 697 295 697 387 q 608 92 697 172 q 502 27 562 50 q 395 0 442 5 l 356 -204 l 206 -204 l 245 0 m 423 745 q 340 709 368 739 q 311 634 311 677 q 329 585 311 604 q 387 557 347 565 l 423 745 m 392 154 q 488 194 455 161 q 512 228 503 210 q 521 272 521 247 q 502 328 521 307 q 432 361 483 349 l 392 154 z "},"%":{"ha":836,"x_min":9,"x_max":841,"o":"m 239 528 q 151 543 194 528 q 74 591 108 558 q 27 660 45 619 q 9 749 9 701 q 26 838 9 797 q 74 908 43 878 q 244 971 139 971 q 251 971 245 971 q 261 970 256 971 q 283 967 274 968 q 307 962 293 966 q 323 957 319 958 q 328 954 327 955 q 352 944 346 947 q 370 934 359 941 q 420 891 398 916 q 456 835 443 867 q 475 748 475 794 q 406 592 475 656 q 372 566 391 578 q 330 544 353 553 q 239 528 287 528 m 238 640 q 284 648 263 640 q 301 655 292 650 q 323 671 311 661 q 349 707 340 688 q 358 748 358 724 q 323 827 358 795 q 238 859 288 859 q 154 827 187 859 q 121 749 121 795 q 153 671 121 703 q 238 640 185 640 m 15 387 l 836 690 l 836 592 l 15 292 l 15 387 m 609 0 q 518 16 561 0 q 480 35 499 24 q 442 64 461 46 q 405 110 420 85 q 382 162 389 136 q 375 222 375 192 q 393 311 375 271 q 444 380 412 351 q 610 444 511 444 q 699 427 661 444 q 773 378 744 408 q 782 370 779 372 q 786 365 784 367 q 791 358 787 363 q 797 351 795 353 q 802 344 804 340 q 806 336 800 347 l 816 321 q 820 313 817 319 q 823 306 822 308 q 832 284 829 294 q 837 264 835 273 q 841 220 841 245 q 824 136 841 177 q 776 64 808 96 q 704 18 747 36 q 609 0 662 0 m 610 112 q 694 144 661 112 q 728 220 728 175 q 694 300 728 268 q 660 322 681 313 q 610 332 638 332 q 526 300 559 332 q 492 221 492 269 q 507 166 492 192 q 514 155 509 162 q 526 143 519 149 q 564 120 541 129 q 610 112 585 112 z "},"&":{"ha":836,"x_min":-22,"x_max":823,"o":"m 262 -20 q 147 -2 200 -20 q 54 52 94 16 q -4 139 14 90 q -22 245 -22 189 q 45 452 -22 355 q 237 619 113 548 q 222 657 228 640 q 212 692 216 674 q 205 724 208 709 q 203 758 203 739 q 225 869 203 818 q 293 957 248 920 q 538 1031 383 1031 q 587 1029 564 1031 q 633 1023 610 1027 q 722 1002 675 1017 l 689 828 q 609 865 652 852 q 522 878 566 878 q 429 854 459 878 q 397 785 397 829 q 410 722 397 760 q 427 677 418 699 q 450 624 436 655 l 600 298 q 645 390 629 338 q 664 505 661 444 l 823 505 q 775 314 816 398 q 661 167 734 229 l 739 0 l 525 0 l 501 49 q 443 19 472 32 q 382 -3 413 6 q 262 -20 323 -20 m 321 140 q 381 150 349 140 q 443 178 412 159 l 296 496 q 203 410 235 460 q 179 356 186 385 q 171 298 171 327 q 214 185 171 231 q 321 140 258 140 z "},"'":{"ha":836,"x_min":330,"x_max":504,"o":"m 330 1013 l 504 1013 l 504 636 l 330 636 l 330 1013 z "},"(":{"ha":836,"x_min":189,"x_max":691,"o":"m 298 -183 q 251 -71 272 -127 q 216 45 230 -14 q 189 267 189 155 q 538 1054 189 659 l 691 1054 q 454 638 532 841 q 374 235 374 434 q 393 34 374 137 q 418 -75 404 -21 q 451 -183 433 -130 l 298 -183 z "},")":{"ha":836,"x_min":165,"x_max":667,"o":"m 165 -183 q 481 637 481 241 q 463 838 481 734 q 438 944 453 890 q 405 1054 424 998 l 557 1054 q 606 939 585 996 q 640 826 627 882 q 667 605 667 715 q 580 210 667 406 q 471 14 536 113 q 317 -183 405 -84 l 165 -183 z "},"*":{"ha":836,"x_min":74,"x_max":759,"o":"m 156 317 l 319 566 l 74 673 l 105 761 l 357 678 l 370 963 l 463 963 l 476 678 l 728 761 l 759 673 l 514 566 l 677 317 l 597 260 l 416 499 l 235 260 l 156 317 z "},"+":{"ha":836,"x_min":45,"x_max":790,"o":"m 338 355 l 45 355 l 45 517 l 338 517 l 338 808 l 498 808 l 498 517 l 790 517 l 790 355 l 498 355 l 498 62 l 338 62 l 338 355 z "},",":{"ha":836,"x_min":258,"x_max":551,"o":"m 258 -186 l 267 -182 q 381 -100 336 -153 q 431 23 426 -48 q 423 22 427 22 q 413 22 419 22 q 334 51 366 22 q 309 84 318 64 q 300 133 300 104 q 304 165 300 151 q 315 194 309 183 q 335 216 321 205 q 374 239 355 233 q 419 247 395 247 q 440 245 431 247 q 458 241 449 244 q 492 224 476 237 q 518 196 507 214 q 551 63 551 149 q 535 -48 551 4 q 487 -143 519 -100 q 409 -219 454 -189 q 306 -272 363 -250 l 297 -275 l 258 -186 z "},"-":{"ha":836,"x_min":138,"x_max":711,"o":"m 176 506 l 711 506 l 673 309 l 138 309 l 176 506 z "},".":{"ha":836,"x_min":296,"x_max":536,"o":"m 416 -28 q 330 6 365 -28 q 296 97 296 41 q 330 186 296 151 q 415 221 365 221 q 501 186 467 221 q 536 96 536 152 q 501 6 536 42 q 416 -28 467 -28 z "},"/":{"ha":836,"x_min":54,"x_max":783,"o":"m 631 1013 l 783 1013 l 203 -129 l 54 -129 l 631 1013 z "},":":{"ha":836,"x_min":317,"x_max":638,"o":"m 498 507 q 452 515 471 507 q 420 538 433 524 q 401 570 409 551 q 394 613 394 589 q 418 693 394 656 q 486 747 442 731 q 509 754 497 751 q 534 756 521 756 q 612 725 583 756 q 632 688 627 709 q 638 647 638 667 q 635 620 638 631 q 629 598 633 608 q 547 516 606 541 q 498 507 522 507 m 420 24 q 374 33 393 24 q 343 55 355 41 q 324 87 332 68 q 317 130 317 106 q 341 211 317 173 q 408 264 365 248 q 432 271 420 269 q 457 273 444 273 q 535 242 506 273 q 555 205 549 227 q 561 164 561 184 q 558 137 561 149 q 551 115 555 125 q 469 33 528 58 q 420 24 445 24 z "},";":{"ha":836,"x_min":217,"x_max":639,"o":"m 491 473 q 406 509 437 473 q 388 545 393 525 q 382 585 382 564 q 383 593 382 589 l 385 607 q 391 633 387 621 q 402 659 395 645 q 435 699 415 682 q 477 725 454 715 q 529 735 500 735 q 614 699 582 735 q 639 624 639 669 q 638 616 639 621 l 637 603 q 629 572 633 583 q 618 550 625 562 q 585 509 606 528 q 563 493 574 499 q 541 482 553 488 q 491 473 519 473 m 217 -232 l 226 -228 q 365 -137 313 -191 q 433 -13 416 -82 q 420 -14 429 -14 q 337 18 366 -14 q 313 81 313 43 l 313 87 q 314 96 313 92 q 315 106 314 100 q 364 191 323 158 q 393 208 376 202 q 423 219 405 216 q 456 222 440 222 q 553 168 524 222 q 567 130 563 151 q 572 90 572 109 q 567 28 572 63 q 466 -188 549 -95 q 421 -230 445 -211 q 371 -266 398 -248 q 309 -300 337 -288 q 255 -322 280 -313 l 244 -326 l 217 -232 z "},"<":{"ha":836,"x_min":60,"x_max":777,"o":"m 60 355 l 60 515 l 777 798 l 777 628 l 237 435 l 777 243 l 777 74 l 60 355 z "},"=":{"ha":836,"x_min":60,"x_max":777,"o":"m 60 669 l 777 669 l 777 510 l 60 510 l 60 669 m 60 361 l 777 361 l 777 200 l 60 200 l 60 361 z "},">":{"ha":836,"x_min":60,"x_max":777,"o":"m 60 243 l 599 435 l 60 628 l 60 798 l 777 515 l 777 355 l 60 74 l 60 243 z "},"?":{"ha":836,"x_min":256,"x_max":819,"o":"m 360 397 q 397 500 368 454 q 494 604 427 549 l 564 665 q 632 733 615 708 q 656 791 652 761 q 657 798 657 793 q 658 803 658 799 q 659 808 658 807 l 659 813 q 631 880 659 854 q 586 906 613 897 q 526 915 559 915 q 468 908 496 915 q 411 892 439 902 q 344 862 378 880 q 275 823 311 845 l 256 812 l 281 966 l 286 968 q 309 981 294 974 q 332 992 323 988 q 356 1003 343 998 q 379 1012 368 1008 q 400 1020 391 1017 q 425 1027 410 1023 q 491 1041 458 1036 q 565 1046 524 1046 q 684 1029 636 1046 q 764 979 731 1011 q 794 939 783 961 q 812 893 806 918 q 817 868 816 881 q 819 846 819 855 q 817 822 819 836 q 814 795 816 807 q 774 695 807 743 q 755 670 765 681 q 733 645 746 659 q 703 615 718 628 q 670 587 689 602 l 601 528 q 580 510 594 523 q 556 487 566 496 q 532 457 541 472 q 518 431 524 445 q 511 405 513 417 l 506 373 l 496 310 l 347 310 l 360 397 m 377 -37 q 337 -30 353 -37 q 309 -9 321 -22 q 292 20 298 3 q 285 56 285 37 l 285 77 q 295 111 285 91 q 335 162 307 134 q 412 189 364 189 q 500 130 480 189 q 507 92 507 113 q 495 37 507 60 q 466 -2 484 14 q 426 -28 448 -18 q 377 -37 403 -37 z "},"@":{"ha":836,"x_min":-9,"x_max":833,"o":"m 406 -216 q 104 -87 217 -216 q -9 262 -9 43 q 20 481 -9 372 q 107 681 53 593 q 300 877 186 808 q 542 946 411 946 q 754 877 675 946 q 814 793 795 840 q 833 694 833 746 q 833 673 833 685 q 831 651 833 661 q 823 605 831 642 l 724 92 l 590 92 l 602 147 q 534 96 573 115 q 490 81 511 85 q 450 78 469 78 q 306 138 360 78 q 264 211 277 169 q 252 304 252 253 q 275 444 252 378 q 338 557 298 509 q 437 635 382 610 q 549 660 492 660 q 633 644 597 660 q 665 622 651 635 q 688 595 679 609 q 697 641 694 617 q 700 681 700 665 q 659 783 700 747 q 541 818 617 818 q 385 774 461 818 q 248 652 308 731 q 190 559 213 606 q 153 468 168 512 q 121 263 121 368 q 140 121 121 186 q 200 6 159 55 q 416 -89 279 -89 q 635 -24 525 -89 l 677 -142 q 541 -199 606 -180 q 477 -212 511 -207 q 406 -216 443 -216 m 491 204 q 609 266 562 204 q 645 337 633 297 q 657 418 657 377 q 630 503 657 474 q 554 533 602 533 q 435 473 484 533 q 399 404 412 442 q 387 326 387 366 q 393 277 387 300 q 414 235 399 253 q 445 213 426 222 q 491 204 465 204 z "},"A":{"ha":836,"x_min":-77,"x_max":715,"o":"m 395 1013 l 639 1013 l 715 0 l 517 0 l 507 250 l 236 250 l 126 0 l -77 0 l 395 1013 m 500 415 l 486 827 l 307 415 l 500 415 z "},"B":{"ha":836,"x_min":-14,"x_max":799,"o":"m 183 1014 l 510 1014 q 726 958 652 1014 q 799 789 799 901 q 734 614 799 682 q 551 533 670 546 q 698 472 646 526 q 750 326 750 419 q 724 193 750 258 q 652 86 699 130 q 523 20 602 41 q 313 0 444 0 l -14 0 l 183 1014 m 433 619 q 557 656 516 619 q 599 762 599 694 q 570 833 599 812 q 479 854 540 854 l 346 854 l 300 619 l 433 619 m 345 160 q 500 205 451 160 q 550 340 550 251 q 541 397 550 376 q 514 432 532 418 q 403 460 478 460 l 269 460 l 211 160 l 345 160 z "},"C":{"ha":836,"x_min":71,"x_max":809,"o":"m 406 -20 q 266 3 331 -20 q 157 73 201 25 q 91 193 111 122 q 71 351 71 263 q 83 494 71 420 q 119 643 95 569 q 249 879 168 787 q 319 944 281 916 q 403 992 357 972 q 595 1031 491 1031 q 704 1019 650 1031 q 753 1004 726 1013 q 809 982 781 996 l 766 760 q 683 829 732 806 q 630 847 658 841 q 578 852 603 852 q 523 845 551 852 q 467 821 494 838 q 417 778 439 803 q 378 728 395 753 q 303 555 332 656 q 281 453 288 500 q 274 364 274 405 q 284 277 274 316 q 317 209 294 237 q 441 157 359 157 q 549 180 495 157 q 607 210 578 192 q 667 252 636 228 l 624 29 q 570 7 597 16 q 517 -7 543 -2 q 406 -20 463 -20 z "},"D":{"ha":836,"x_min":-5,"x_max":790,"o":"m 192 1013 l 406 1013 q 573 992 500 1013 q 695 929 646 972 q 790 675 790 846 q 788 617 790 651 q 781 552 786 584 q 769 483 777 524 q 753 409 762 442 q 724 310 740 354 q 692 235 707 266 q 650 165 673 195 q 608 116 628 136 q 455 27 547 55 q 218 0 370 0 l -5 0 l 192 1013 m 294 180 q 422 210 370 180 q 470 248 451 226 q 504 300 489 271 q 535 377 520 332 q 562 471 551 422 q 578 569 573 522 q 583 651 583 616 q 573 734 583 701 q 541 789 562 767 q 411 832 498 832 l 355 832 l 229 180 l 294 180 z "},"E":{"ha":836,"x_min":20,"x_max":847,"o":"m 215 1013 l 847 1013 l 812 836 l 382 836 l 339 618 l 729 618 l 696 441 l 306 441 l 254 176 l 685 176 l 650 0 l 20 0 l 215 1013 z "},"F":{"ha":836,"x_min":32,"x_max":860,"o":"m 229 1013 l 860 1013 l 825 836 l 395 836 l 353 611 l 745 611 l 710 435 l 318 435 l 232 0 l 32 0 l 229 1013 z "},"G":{"ha":836,"x_min":69,"x_max":808,"o":"m 414 -20 q 265 6 328 -20 q 159 78 202 32 q 91 201 112 130 q 69 358 69 272 q 81 497 69 423 q 118 644 93 570 q 173 768 140 707 q 249 878 205 828 q 318 942 279 912 q 404 992 356 971 q 594 1031 492 1031 q 703 1019 650 1031 q 753 1004 725 1013 q 808 982 781 996 l 764 760 q 682 829 729 806 q 581 852 633 852 q 532 847 555 852 q 489 833 509 842 q 449 809 469 823 q 410 774 430 795 q 382 739 395 757 q 359 699 370 720 q 338 656 348 680 q 318 604 328 633 q 285 476 296 539 q 273 361 273 410 q 286 269 273 306 q 317 210 298 232 q 371 169 340 181 q 439 157 403 157 q 485 163 465 157 q 503 168 493 165 q 522 179 512 172 l 561 376 l 421 376 l 454 545 l 766 545 l 672 64 q 558 2 624 24 q 414 -20 490 -20 z "},"H":{"ha":836,"x_min":-5,"x_max":842,"o":"m 192 1013 l 392 1013 l 317 627 l 567 627 l 642 1013 l 842 1013 l 644 0 l 444 0 l 532 450 l 282 450 l 195 0 l -5 0 l 192 1013 z "},"I":{"ha":836,"x_min":18,"x_max":818,"o":"m 53 176 l 254 176 l 382 836 l 180 836 l 215 1013 l 818 1013 l 783 836 l 582 836 l 454 176 l 656 176 l 621 0 l 18 0 l 53 176 z "},"J":{"ha":836,"x_min":-14,"x_max":782,"o":"m 279 -20 q 130 -2 202 -20 q 62 19 99 5 q -14 53 25 33 l 31 286 q 144 189 83 221 q 275 157 203 157 q 390 193 351 157 q 447 325 428 229 l 547 836 l 302 836 l 338 1013 l 782 1013 l 647 325 q 597 151 624 209 q 523 56 570 94 q 416 -1 476 19 q 279 -20 355 -20 z "},"K":{"ha":836,"x_min":-12,"x_max":928,"o":"m 183 1013 l 383 1013 l 310 635 l 692 1013 l 928 1013 l 517 603 l 746 0 l 541 0 l 368 454 l 252 339 l 187 0 l -12 0 l 183 1013 z "},"L":{"ha":836,"x_min":54,"x_max":717,"o":"m 252 1013 l 452 1013 l 289 176 l 717 176 l 682 0 l 54 0 l 252 1013 z "},"M":{"ha":836,"x_min":-39,"x_max":875,"o":"m 157 1013 l 396 1013 l 429 568 l 631 1013 l 875 1013 l 679 0 l 507 0 l 668 812 l 469 368 l 321 368 l 289 812 l 132 0 l -39 0 l 157 1013 z "},"N":{"ha":836,"x_min":-17,"x_max":851,"o":"m 180 1013 l 386 1013 l 532 277 l 675 1013 l 851 1013 l 656 0 l 457 0 l 304 736 l 161 0 l -17 0 l 180 1013 z "},"O":{"ha":836,"x_min":41,"x_max":794,"o":"m 339 -20 q 213 1 270 -20 q 117 66 157 22 q 59 175 77 111 q 41 323 41 239 q 50 451 41 382 q 75 590 58 520 q 116 724 93 664 q 167 833 140 785 q 223 913 191 876 q 303 980 256 951 q 396 1019 347 1006 q 496 1031 446 1031 q 623 1010 566 1031 q 718 946 679 989 q 778 832 761 899 q 794 688 794 766 q 786 563 794 631 q 761 422 779 496 q 723 293 745 355 q 670 179 701 232 q 533 31 614 81 q 339 -20 448 -20 m 356 158 q 431 182 397 158 q 489 253 465 207 q 505 288 498 269 q 520 328 513 306 q 535 374 529 353 q 549 427 541 396 q 566 505 559 470 q 578 574 573 541 q 589 692 589 641 q 562 814 589 774 q 480 854 534 854 q 438 848 457 854 q 406 831 420 841 q 347 760 373 807 q 331 726 338 743 q 318 690 325 709 q 303 640 309 661 q 288 583 297 620 q 271 510 279 548 q 258 438 263 473 q 248 319 248 370 q 275 198 248 237 q 356 158 302 158 z "},"P":{"ha":836,"x_min":9,"x_max":819,"o":"m 207 1013 l 492 1013 q 736 951 652 1013 q 819 766 819 888 q 795 616 819 694 q 766 548 782 576 q 730 496 750 519 q 599 407 678 435 q 395 379 519 379 l 283 379 l 210 0 l 9 0 l 207 1013 m 414 547 q 502 559 465 547 q 562 593 538 572 q 599 651 587 616 q 611 726 611 685 q 576 819 611 793 q 456 844 540 844 l 374 844 l 317 547 l 414 547 z "},"Q":{"ha":836,"x_min":41,"x_max":794,"o":"m 363 -20 l 345 -20 q 119 64 198 -20 q 60 172 79 109 q 41 321 41 235 q 57 496 41 401 q 101 680 73 591 q 165 831 130 769 q 224 914 191 876 q 304 980 258 952 q 393 1018 345 1004 q 496 1031 441 1031 q 624 1009 568 1031 q 717 947 679 987 q 777 841 759 903 q 794 694 794 780 q 786 570 794 638 q 761 425 779 502 q 723 293 745 357 q 671 178 700 229 q 612 96 644 130 q 526 26 576 58 l 712 -237 l 479 -237 l 363 -20 m 356 158 q 431 182 397 158 q 489 253 465 207 q 505 287 496 267 q 520 328 513 307 q 549 427 534 368 q 566 506 559 471 q 578 574 573 541 q 589 692 589 641 q 562 814 589 774 q 480 854 534 854 q 438 848 457 854 q 406 831 420 841 q 347 760 373 807 q 331 726 338 743 q 318 690 325 709 q 303 640 309 661 q 288 583 297 620 q 270 506 277 540 q 258 438 263 471 q 248 319 248 370 q 275 198 248 237 q 356 158 302 158 z "},"R":{"ha":836,"x_min":2,"x_max":787,"o":"m 199 1013 l 477 1013 q 711 954 635 1013 q 767 880 747 925 q 787 768 787 836 q 720 568 787 646 q 531 478 654 492 q 595 448 572 472 q 637 364 618 424 l 748 0 l 544 0 l 472 255 l 467 273 q 420 371 446 342 q 359 400 395 400 l 280 400 l 202 0 l 2 0 l 199 1013 m 397 568 q 536 612 489 568 q 571 665 559 633 q 583 735 583 697 q 551 819 583 793 q 458 844 519 844 l 368 844 l 313 568 l 397 568 z "},"S":{"ha":836,"x_min":3,"x_max":786,"o":"m 318 -20 q 241 -15 279 -20 q 165 -2 203 -11 q 3 52 87 16 l 43 258 q 180 175 105 205 q 251 153 216 161 q 325 146 286 146 q 467 186 414 146 q 518 291 518 225 q 494 366 518 336 q 424 416 471 397 l 343 450 q 235 503 277 478 q 171 556 194 528 q 140 612 151 580 q 129 692 129 644 q 159 833 129 772 q 238 937 189 895 q 363 1006 291 982 q 522 1031 435 1031 q 786 975 661 1031 l 747 782 q 640 846 701 824 q 574 862 608 857 q 507 867 540 867 q 428 857 460 867 q 372 829 395 846 q 335 784 347 809 q 322 737 322 760 q 447 617 322 671 l 452 615 l 530 581 q 675 475 630 536 q 721 321 721 413 q 694 184 721 248 q 612 73 668 121 q 485 4 559 28 q 318 -20 411 -20 z "},"T":{"ha":836,"x_min":122,"x_max":873,"o":"m 382 838 l 122 838 l 155 1013 l 873 1013 l 839 838 l 582 838 l 419 0 l 220 0 l 382 838 z "},"U":{"ha":836,"x_min":31,"x_max":863,"o":"m 337 -20 q 111 47 191 -20 q 50 130 68 82 q 31 240 31 178 q 35 301 31 264 q 39 337 37 325 q 46 374 41 350 l 171 1013 l 371 1013 l 236 323 q 235 319 236 321 q 231 271 231 290 q 262 187 231 218 q 351 157 293 157 q 467 198 424 157 q 528 323 511 239 l 663 1013 l 863 1013 l 737 374 q 714 272 726 316 q 686 189 703 227 q 616 83 660 127 q 494 7 566 35 q 337 -20 427 -20 z "},"V":{"ha":836,"x_min":138,"x_max":899,"o":"m 138 1013 l 335 1013 l 351 164 l 694 1013 l 899 1013 l 461 0 l 182 0 l 138 1013 z "},"W":{"ha":836,"x_min":28,"x_max":929,"o":"m 97 1013 l 269 1013 l 196 269 l 380 750 l 542 750 l 550 269 l 751 1013 l 929 1013 l 616 0 l 433 0 l 425 532 l 210 0 l 28 0 l 97 1013 z "},"X":{"ha":836,"x_min":-97,"x_max":911,"o":"m 319 530 l 125 1013 l 322 1013 l 449 699 l 693 1013 l 911 1013 l 522 513 l 726 0 l 529 0 l 393 347 l 122 0 l -97 0 l 319 530 z "},"Y":{"ha":836,"x_min":98,"x_max":921,"o":"m 293 399 l 98 1013 l 297 1013 l 424 572 l 703 1013 l 921 1013 l 492 399 l 414 0 l 215 0 l 293 399 z "},"Z":{"ha":836,"x_min":-29,"x_max":868,"o":"m 3 165 l 585 836 l 149 836 l 184 1013 l 868 1013 l 835 847 l 241 176 l 715 176 l 681 0 l -29 0 l 3 165 z "},"[":{"ha":836,"x_min":164,"x_max":817,"o":"m 372 1120 l 817 1120 l 798 1002 l 513 1002 l 342 -76 l 627 -76 l 608 -193 l 164 -193 l 372 1120 z "},"\\":{"ha":836,"x_min":76,"x_max":760,"o":"m 76 1013 l 227 1013 l 760 -129 l 609 -129 l 76 1013 z "},"]":{"ha":836,"x_min":166,"x_max":819,"o":"m 185 -76 l 470 -76 l 640 1002 l 355 1002 l 374 1119 l 819 1119 l 610 -193 l 166 -193 l 185 -76 z "},"^":{"ha":836,"x_min":39,"x_max":798,"o":"m 335 1013 l 501 1013 l 798 635 l 633 635 l 418 839 l 203 635 l 39 635 l 335 1013 z "},"_":{"ha":836,"x_min":64,"x_max":772,"o":"m 64 -129 l 772 -129 l 772 -264 l 64 -264 l 64 -129 z "},"`":{"ha":836,"x_min":252,"x_max":586,"o":"m 252 1111 l 444 1111 l 586 856 l 452 856 l 252 1111 z "},"a":{"ha":836,"x_min":32,"x_max":774,"o":"m 260 -20 q 92 39 151 -20 q 32 203 32 98 q 139 422 32 345 q 441 500 246 500 l 572 500 l 578 533 q 579 541 579 543 l 579 553 q 545 612 579 591 q 447 632 511 632 q 321 614 389 632 q 168 555 254 595 l 200 725 q 484 778 351 778 q 698 724 623 778 q 774 566 774 671 q 768 502 774 536 q 755 433 763 467 l 672 0 l 493 0 l 493 85 q 260 -20 398 -20 m 342 117 q 472 182 417 117 q 545 359 527 248 l 468 359 q 239 220 239 359 q 267 144 239 172 q 342 117 294 117 z "},"b":{"ha":836,"x_min":32,"x_max":790,"o":"m 446 -20 q 318 22 367 -20 q 258 140 270 64 l 211 0 l 32 0 l 237 1055 l 436 1055 l 355 646 q 576 778 442 778 q 733 703 676 778 q 790 492 790 627 q 777 361 790 431 q 738 224 764 292 q 671 102 711 157 q 574 14 630 47 q 446 -20 517 -20 m 407 142 q 491 175 456 142 q 548 259 526 209 q 580 363 570 310 q 590 455 590 416 q 563 574 590 534 q 488 615 536 615 q 392 572 436 615 q 321 458 347 528 q 294 310 294 389 q 324 185 294 229 q 407 142 354 142 z "},"c":{"ha":836,"x_min":92,"x_max":774,"o":"m 421 -20 q 177 66 263 -20 q 92 313 92 151 q 149 553 92 448 q 310 718 207 658 q 549 778 412 778 q 774 721 674 778 l 739 539 q 553 616 657 616 q 417 578 476 616 q 326 474 359 541 q 292 321 292 407 q 332 185 292 229 q 453 142 372 142 q 676 212 555 142 l 638 25 q 421 -20 537 -20 z "},"d":{"ha":836,"x_min":45,"x_max":863,"o":"m 259 -20 q 103 57 161 -20 q 45 266 45 133 q 58 394 45 325 q 97 532 71 464 q 164 655 123 600 q 262 745 205 711 q 391 779 318 779 q 519 736 469 779 q 579 618 568 694 l 664 1055 l 863 1055 l 657 0 l 480 0 l 480 113 q 259 -20 390 -20 m 351 143 q 359 142 355 142 q 447 187 405 142 q 515 301 489 231 q 542 450 542 372 q 534 524 542 485 q 502 589 526 562 q 433 616 478 616 q 347 583 382 616 q 289 498 311 549 q 256 395 267 448 q 245 304 245 342 q 273 184 245 225 q 351 143 300 143 z "},"e":{"ha":836,"x_min":52,"x_max":783,"o":"m 397 -20 q 52 306 52 -20 q 83 492 52 406 q 172 643 115 578 q 306 743 229 707 q 475 779 383 779 q 637 742 568 779 q 745 637 706 705 q 783 477 783 570 q 778 398 783 439 q 765 315 772 357 l 250 315 q 248 299 249 310 q 248 294 248 296 l 245 273 q 429 138 245 138 q 708 220 578 138 l 673 37 q 397 -20 545 -20 m 594 464 q 599 498 599 478 q 564 591 599 557 q 467 624 530 624 q 278 464 332 624 l 594 464 z "},"f":{"ha":836,"x_min":124,"x_max":827,"o":"m 309 607 l 124 607 l 153 760 l 338 760 l 349 812 q 402 962 369 909 q 497 1035 435 1015 q 665 1055 559 1055 l 827 1055 l 798 903 l 642 903 q 579 884 598 903 q 548 811 559 865 l 537 760 l 770 760 l 741 607 l 508 607 l 390 0 l 191 0 l 309 607 z "},"g":{"ha":836,"x_min":12,"x_max":807,"o":"m 269 -288 q 12 -248 136 -288 l 49 -68 q 268 -129 149 -129 q 402 -91 356 -129 q 467 35 449 -52 l 485 125 q 277 11 410 11 q 148 47 199 11 q 71 143 96 83 q 46 275 46 203 q 60 407 46 337 q 103 542 75 476 q 175 662 132 608 q 276 748 218 716 q 404 781 333 781 q 524 743 478 781 q 585 636 570 706 l 628 760 l 807 760 l 669 57 q 597 -144 645 -68 q 469 -254 549 -220 q 269 -288 389 -288 m 355 167 q 440 197 404 167 q 499 275 475 228 q 533 373 522 322 q 545 463 545 423 q 437 616 545 616 q 353 586 389 616 q 294 508 317 555 q 260 411 271 461 q 249 319 249 360 q 355 167 249 167 z "},"h":{"ha":836,"x_min":40,"x_max":760,"o":"m 245 1055 l 443 1055 l 364 646 q 454 743 397 709 q 583 778 511 778 q 713 731 667 778 q 760 596 760 684 q 757 551 760 574 q 754 532 756 547 q 751 513 753 524 q 747 494 749 503 l 652 0 l 453 0 l 543 463 q 549 497 548 478 q 550 532 550 515 q 475 615 550 615 q 378 566 418 615 q 321 427 338 517 l 239 0 l 40 0 l 245 1055 z "},"i":{"ha":836,"x_min":176,"x_max":728,"o":"m 417 897 q 398 915 398 897 l 437 1111 q 458 1129 439 1129 l 616 1129 q 635 1112 635 1129 l 597 916 q 575 897 594 897 l 417 897 m 496 -5 q 303 33 364 -5 q 242 156 242 72 q 255 252 242 195 l 336 607 l 176 607 l 205 760 l 564 760 l 451 242 q 445 201 445 218 q 540 147 445 147 l 728 147 l 698 -5 l 496 -5 z "},"j":{"ha":836,"x_min":-16,"x_max":735,"o":"m 517 897 q 498 914 498 897 q 499 920 498 917 l 536 1111 q 558 1129 540 1129 l 716 1129 q 735 1112 735 1129 q 734 1107 735 1109 l 697 916 q 675 897 694 897 l 517 897 m 15 -135 l 172 -135 q 273 -99 239 -135 q 326 29 307 -62 l 438 607 l 237 607 l 266 760 l 666 760 l 524 29 q 490 -106 509 -47 q 435 -206 470 -165 q 343 -267 401 -246 q 193 -288 285 -288 l -16 -288 l 15 -135 z "},"k":{"ha":836,"x_min":42,"x_max":867,"o":"m 246 1055 l 445 1055 l 342 525 l 616 760 l 867 760 l 524 476 l 736 0 l 526 0 l 375 355 l 296 290 l 241 0 l 42 0 l 246 1055 z "},"l":{"ha":836,"x_min":157,"x_max":700,"o":"m 468 -7 q 275 32 336 -7 q 214 154 214 71 q 227 250 214 189 l 364 903 l 157 903 l 186 1055 l 591 1055 l 422 239 q 418 219 420 229 q 416 199 416 208 q 511 146 416 146 l 700 146 l 669 -7 l 468 -7 z "},"m":{"ha":836,"x_min":-22,"x_max":818,"o":"m 125 760 l 255 760 l 255 681 q 322 752 281 727 q 411 778 363 778 q 488 753 458 778 q 522 684 517 728 q 587 752 543 727 q 683 778 630 778 q 782 739 747 778 q 818 625 818 700 q 814 569 818 601 q 800 488 810 536 l 705 0 l 543 0 l 637 488 q 646 536 643 515 q 650 573 650 557 q 604 629 650 629 q 551 599 570 629 q 517 488 532 568 l 422 0 l 260 0 l 355 488 q 361 517 358 503 q 364 541 363 532 q 367 572 367 559 q 320 629 367 629 q 269 600 288 629 q 235 488 250 570 l 140 0 l -22 0 l 125 760 z "},"n":{"ha":836,"x_min":40,"x_max":760,"o":"m 187 760 l 365 760 l 365 646 q 454 743 397 709 q 583 778 511 778 q 714 730 668 778 q 760 596 760 683 q 747 494 760 557 l 652 0 l 453 0 l 543 463 q 550 527 550 499 q 477 615 550 615 q 379 565 420 615 q 321 427 338 515 l 239 0 l 40 0 l 187 760 z "},"o":{"ha":836,"x_min":60,"x_max":777,"o":"m 359 -20 q 139 65 218 -20 q 60 312 60 149 q 112 552 60 446 q 257 718 164 657 q 470 779 349 779 q 701 692 625 779 q 777 455 777 605 q 724 209 777 316 q 578 41 671 102 q 359 -20 484 -20 m 381 140 q 471 172 434 140 q 531 253 508 204 q 566 355 555 302 q 576 450 576 408 q 547 576 576 534 q 463 618 517 618 q 360 575 406 618 q 287 464 314 533 q 260 313 260 395 q 291 184 260 228 q 381 140 323 140 z "},"p":{"ha":836,"x_min":-25,"x_max":793,"o":"m 179 760 l 357 760 l 357 646 q 578 778 450 778 q 735 702 678 778 q 793 494 793 627 q 780 366 793 435 q 741 228 768 296 q 674 104 715 160 q 577 14 633 48 q 448 -20 521 -20 q 320 23 370 -20 q 257 140 270 65 l 174 -289 l -25 -289 l 179 760 m 408 142 q 493 176 458 142 q 550 261 528 210 q 583 368 572 313 q 593 465 593 422 q 565 576 593 536 q 486 615 537 615 q 400 583 436 615 q 341 500 364 550 q 307 396 318 450 q 296 299 296 342 q 326 184 296 226 q 408 142 355 142 z "},"q":{"ha":836,"x_min":46,"x_max":804,"o":"m 481 113 q 260 -20 392 -20 q 104 56 161 -20 q 46 263 46 132 q 74 461 46 368 q 149 626 101 554 q 260 738 197 697 q 393 779 323 779 q 518 737 470 779 q 579 618 567 695 l 625 760 l 804 760 l 600 -289 l 403 -289 l 481 113 m 352 143 q 438 175 402 143 q 497 256 474 208 q 531 357 520 305 q 542 449 542 409 q 513 573 542 529 q 431 616 484 616 q 345 583 380 616 q 288 497 310 549 q 256 392 266 446 q 245 300 245 338 q 352 143 245 150 z "},"r":{"ha":836,"x_min":84,"x_max":812,"o":"m 233 760 l 412 760 l 408 642 q 516 742 450 707 q 663 778 583 778 q 812 739 749 778 l 776 553 q 612 610 711 610 q 440 548 501 610 q 352 350 378 487 l 284 0 l 84 0 l 233 760 z "},"s":{"ha":836,"x_min":61,"x_max":742,"o":"m 333 -20 q 61 28 199 -20 l 96 201 q 345 123 218 123 q 461 150 419 123 q 504 223 504 176 q 483 267 504 252 q 372 313 456 289 l 313 329 q 153 524 153 373 q 245 709 153 640 q 504 778 338 778 q 621 768 563 778 q 742 736 679 758 l 708 564 q 485 636 602 636 q 377 612 416 636 q 338 549 338 588 q 363 499 338 518 q 475 456 392 479 l 525 441 q 651 369 611 417 q 692 245 692 321 q 597 51 692 121 q 333 -20 502 -20 z "},"t":{"ha":836,"x_min":111,"x_max":793,"o":"m 479 -3 q 287 36 349 -3 q 225 157 225 75 q 237 254 225 191 l 306 607 l 111 607 l 140 760 l 335 760 l 376 975 l 575 975 l 533 760 l 793 760 l 764 607 l 504 607 l 433 242 q 428 205 428 216 q 450 162 428 176 q 522 149 473 149 l 675 149 l 646 -3 l 479 -3 z "},"u":{"ha":836,"x_min":72,"x_max":790,"o":"m 248 -20 q 118 28 164 -20 q 72 165 72 77 q 83 265 72 206 l 180 760 l 378 760 l 289 296 q 282 231 282 260 q 357 143 282 143 q 453 193 413 143 q 510 332 492 242 l 593 760 l 790 760 l 643 0 l 465 0 l 465 113 q 379 16 437 52 q 248 -20 321 -20 z "},"v":{"ha":836,"x_min":117,"x_max":835,"o":"m 117 760 l 309 760 l 363 164 l 627 760 l 835 760 l 461 0 l 211 0 l 117 760 z "},"w":{"ha":836,"x_min":63,"x_max":899,"o":"m 63 760 l 228 760 l 205 178 l 359 561 l 515 561 l 530 178 l 728 760 l 899 760 l 615 0 l 419 0 l 419 400 l 250 0 l 63 0 l 63 760 z "},"x":{"ha":836,"x_min":-52,"x_max":832,"o":"m 296 403 l 121 760 l 325 760 l 425 545 l 607 760 l 832 760 l 509 385 l 697 0 l 494 0 l 379 241 l 174 0 l -52 0 l 296 403 z "},"y":{"ha":836,"x_min":-44,"x_max":869,"o":"m -14 -136 q 96 -133 56 -136 q 161 -115 136 -130 q 206 -65 185 -100 q 260 31 227 -31 l 113 760 l 314 760 l 400 285 l 660 760 l 869 760 l 391 -82 q 306 -208 345 -163 q 223 -270 267 -252 q 119 -288 180 -288 l -44 -288 l -14 -136 z "},"z":{"ha":836,"x_min":33,"x_max":806,"o":"m 64 155 l 543 611 l 170 611 l 199 760 l 806 760 l 775 604 l 296 149 l 686 149 l 657 0 l 33 0 l 64 155 z "},"{":{"ha":836,"x_min":35,"x_max":787,"o":"m 437 -227 q 292 -210 345 -224 q 216 -162 239 -195 q 190 -68 193 -129 q 193 -33 190 -54 q 195 -11 193 -29 q 202 24 198 7 l 231 170 q 235 193 232 175 q 240 222 239 210 q 243 256 243 243 q 200 330 243 309 q 77 350 161 350 l 35 350 l 60 479 l 121 479 q 262 517 218 479 q 326 660 305 554 l 353 806 q 392 933 368 884 q 446 1006 415 983 q 686 1055 509 1055 l 787 1055 l 762 926 l 679 926 q 617 919 641 926 q 578 897 593 911 q 530 772 548 869 l 504 631 q 478 537 494 578 q 439 472 462 496 q 309 415 397 426 q 402 372 375 401 q 430 290 430 344 q 429 271 430 283 q 427 247 429 258 q 424 227 426 238 q 419 197 422 215 l 391 58 q 386 34 387 41 q 382 8 385 27 q 380 -22 380 -13 q 403 -80 380 -63 q 480 -97 426 -97 l 562 -97 l 537 -227 l 437 -227 z "},"|":{"ha":836,"x_min":340,"x_max":494,"o":"m 340 1061 l 494 1061 l 494 444 l 340 444 l 340 1061 m 340 290 l 494 290 l 494 -328 l 340 -328 l 340 290 z "},"}":{"ha":836,"x_min":13,"x_max":766,"o":"m 38 -97 l 121 -97 q 221 -68 191 -97 q 270 58 252 -38 l 296 197 q 322 291 307 251 q 361 355 338 331 q 491 415 404 402 q 399 454 426 427 q 370 537 370 483 q 371 555 370 545 q 373 578 372 566 q 376 601 374 585 q 381 631 378 617 l 409 772 q 414 796 412 785 q 418 823 416 808 q 420 846 420 842 q 420 849 420 848 q 420 852 420 850 q 397 910 420 894 q 320 926 375 926 l 238 926 l 263 1055 l 363 1055 q 557 1023 502 1055 q 600 979 586 1006 q 613 916 613 951 q 600 815 613 885 l 597 805 l 570 659 q 566 637 568 648 q 563 618 564 626 q 560 586 560 599 q 573 532 560 550 q 603 503 585 513 q 724 479 645 479 l 766 479 l 741 350 l 678 350 q 538 311 582 350 q 474 170 494 272 l 446 24 q 350 -176 418 -127 q 115 -227 281 -227 l 13 -227 l 38 -97 z "},"~":{"ha":836,"x_min":46,"x_max":790,"o":"m 790 592 q 778 437 787 502 q 742 328 768 372 l 743 330 q 563 220 689 220 q 460 245 504 220 q 370 339 419 270 q 304 420 323 404 q 274 432 285 432 q 234 405 245 432 l 234 406 q 208 224 214 359 l 46 224 q 94 486 50 395 q 271 595 156 595 q 370 568 327 595 q 417 531 393 554 q 464 476 441 507 l 463 477 q 527 401 498 430 q 561 382 545 382 q 610 434 595 382 q 627 592 625 485 l 790 592 z "}," ":{"ha":836,"x_min":0,"x_max":0,"o":""},"¡":{"ha":836,"x_min":222,"x_max":611,"o":"m 472 812 q 428 821 446 812 q 398 842 410 829 q 378 879 383 859 q 372 918 372 900 q 397 996 372 960 q 462 1047 422 1032 q 511 1055 484 1055 q 558 1045 541 1055 q 586 1024 575 1036 q 605 990 600 1008 q 611 951 611 972 q 602 901 611 924 q 522 821 578 844 q 472 812 500 812 m 309 444 l 385 686 l 519 686 l 503 444 l 416 0 l 222 0 l 309 444 z "},"¢":{"ha":836,"x_min":71,"x_max":747,"o":"m 343 -17 q 141 79 212 -2 q 88 173 106 119 q 71 297 71 226 q 80 398 71 349 q 108 493 90 446 q 214 659 148 592 q 270 707 239 684 q 341 745 301 729 q 415 768 376 760 q 497 777 454 776 l 534 971 l 631 971 l 593 777 q 631 772 612 775 q 668 763 650 768 q 747 730 707 751 l 711 551 q 644 595 679 580 q 563 615 608 610 l 471 146 q 559 165 513 149 q 603 184 582 173 q 646 208 624 195 l 611 29 q 526 -3 569 7 q 439 -17 481 -15 l 401 -212 l 306 -212 l 343 -17 m 467 615 q 311 517 374 605 q 248 314 248 428 q 256 244 248 273 q 283 193 265 216 q 374 146 317 149 l 467 615 z "},"£":{"ha":836,"x_min":-16,"x_max":844,"o":"m 20 176 l 179 176 l 222 403 l 87 403 l 118 555 l 253 555 l 278 689 q 399 951 313 871 q 505 1011 443 991 q 646 1031 568 1031 q 747 1020 701 1031 q 844 987 795 1009 l 808 807 q 728 849 766 836 q 646 863 690 863 q 532 817 574 863 q 495 760 511 795 q 469 675 479 725 l 447 555 l 675 555 l 646 403 l 416 403 l 374 176 l 700 176 l 665 0 l -16 0 l 20 176 z "},"¤":{"ha":836,"x_min":126,"x_max":758,"o":"m 126 207 l 241 322 q 228 352 232 340 q 219 379 224 363 q 213 405 216 393 q 211 435 211 418 q 213 467 211 453 q 219 494 216 481 q 228 519 222 506 q 243 547 233 532 l 126 663 l 215 751 l 328 635 q 384 659 355 651 q 442 667 414 667 q 497 659 471 667 q 555 636 524 651 l 672 751 l 758 664 l 643 549 q 666 493 659 519 q 673 435 673 462 q 666 376 673 402 q 656 351 663 365 q 642 323 650 336 l 758 208 l 669 119 l 554 236 q 528 221 539 227 q 503 212 517 216 q 476 207 490 209 q 445 204 462 204 q 329 233 390 204 l 214 119 l 126 207 m 444 317 q 527 351 494 317 q 561 435 561 387 q 528 519 561 486 q 443 553 494 553 q 359 520 393 553 q 325 436 325 488 q 359 351 325 387 q 444 317 392 317 z "},"¥":{"ha":836,"x_min":-20,"x_max":911,"o":"m 260 297 l -20 297 l 5 425 l 282 425 l 243 528 l 25 528 l 50 654 l 201 654 l 86 1013 l 301 1013 l 419 606 l 696 1013 l 911 1013 l 657 654 l 808 654 l 783 528 l 566 528 l 488 425 l 764 425 l 739 297 l 460 297 l 401 0 l 203 0 l 260 297 z "},"¦":{"ha":836,"x_min":340,"x_max":494,"o":"m 340 971 l 494 971 l 494 457 l 340 457 l 340 971 m 340 277 l 494 277 l 494 -237 l 340 -237 l 340 277 z "},"§":{"ha":836,"x_min":71,"x_max":718,"o":"m 311 -132 q 197 -122 258 -132 q 71 -92 136 -112 l 102 64 q 151 44 125 53 q 205 30 176 36 q 307 18 263 18 q 400 41 369 18 q 424 70 416 53 q 432 102 432 86 q 409 157 432 129 q 329 222 385 184 l 317 231 l 249 277 q 189 321 214 300 q 148 365 164 341 q 128 404 136 382 q 121 454 121 425 q 162 570 121 518 q 281 656 203 622 q 230 717 246 684 q 214 795 214 750 q 294 965 214 899 q 382 1014 332 996 q 501 1031 433 1031 q 605 1021 551 1031 q 718 990 661 1010 l 688 835 q 641 855 665 846 q 597 869 618 864 q 511 880 554 880 q 420 857 452 880 q 389 793 389 833 q 410 739 389 762 q 446 707 423 724 q 504 668 469 690 l 575 623 q 671 536 641 581 q 693 492 687 515 q 700 445 700 469 q 663 336 700 386 q 547 240 623 285 q 593 176 578 210 q 607 101 607 142 q 526 -68 607 -5 q 311 -132 446 -132 m 463 306 q 522 362 499 330 q 543 420 543 391 q 530 465 543 444 q 494 503 517 487 l 440 539 q 432 544 439 539 q 412 558 425 549 l 359 595 q 325 565 340 581 q 299 535 309 549 q 278 477 278 506 q 328 396 278 429 l 380 359 l 415 336 q 441 319 435 323 q 463 306 448 315 z "},"¨":{"ha":836,"x_min":281,"x_max":739,"o":"m 304 908 q 286 930 281 908 l 311 1057 q 332 1075 313 1075 l 452 1075 q 471 1059 471 1075 q 470 1053 471 1054 l 445 926 q 423 908 442 908 l 304 908 m 572 908 q 554 930 549 908 l 578 1057 q 600 1075 582 1075 l 721 1075 q 739 1059 739 1075 q 739 1053 739 1054 l 713 926 q 692 908 711 908 l 572 908 z "},"©":{"ha":836,"x_min":0,"x_max":836,"o":"m 418 85 q 259 116 332 85 q 123 208 182 149 q 70 272 94 237 q 31 345 46 307 q 0 503 0 416 q 31 663 0 589 q 123 799 63 736 q 189 854 155 831 q 258 890 223 876 q 418 921 332 921 q 578 890 503 921 q 650 851 616 875 q 713 799 684 828 q 769 730 746 765 q 805 663 791 695 q 836 503 836 590 q 806 345 836 416 q 767 274 791 309 q 713 208 744 239 q 650 156 685 180 q 577 116 616 132 q 418 85 505 85 m 418 174 q 483 179 452 174 q 544 199 513 185 q 597 228 570 210 q 650 271 624 245 q 723 378 699 320 q 747 504 747 437 q 741 570 747 541 q 723 629 734 600 q 650 737 697 689 q 544 809 603 785 q 481 828 511 823 q 420 833 451 833 q 351 827 382 833 q 292 809 320 821 q 186 735 235 784 q 113 629 138 686 q 89 503 89 572 q 113 378 89 437 q 186 272 138 320 q 292 199 236 222 q 354 179 323 185 q 418 174 384 174 m 432 271 q 250 335 319 271 q 180 503 180 399 q 199 601 180 558 q 249 672 218 644 q 327 718 281 701 q 431 734 373 734 q 505 729 471 734 q 540 722 521 726 q 575 711 559 717 l 575 597 q 509 628 541 618 q 444 637 477 637 q 344 602 379 637 q 307 503 307 567 q 343 404 307 438 q 446 368 378 368 q 514 377 484 368 q 575 408 544 387 l 575 294 q 538 284 556 289 q 502 277 519 280 q 432 271 467 271 z "},"ª":{"ha":836,"x_min":143,"x_max":713,"o":"m 347 473 q 229 515 271 473 q 186 628 186 556 q 262 782 186 727 q 478 836 338 836 l 570 836 l 574 860 q 575 865 575 864 l 575 872 q 551 913 575 899 q 480 928 527 928 q 437 924 458 928 q 390 914 415 921 q 283 875 344 902 l 306 993 q 409 1021 361 1013 q 504 1031 458 1031 q 589 1022 549 1031 q 657 996 629 1014 q 700 952 687 978 q 713 894 713 926 q 712 875 713 887 q 710 851 711 863 q 706 821 709 838 q 700 790 703 804 l 640 486 l 500 486 l 513 546 q 479 514 496 526 q 440 492 462 501 q 347 473 397 473 m 406 568 q 498 612 460 568 q 530 663 516 632 q 550 737 543 694 l 496 737 q 374 713 414 737 q 334 640 334 688 q 353 588 334 608 q 406 568 373 568 m 167 406 l 633 406 l 610 290 l 143 290 l 167 406 z "},"«":{"ha":836,"x_min":53,"x_max":747,"o":"m 53 363 l 69 452 l 440 718 l 408 557 l 192 407 l 350 257 l 319 96 l 53 363 m 361 363 l 378 452 l 747 718 l 717 557 l 500 407 l 659 257 l 628 96 l 361 363 z "},"¬":{"ha":836,"x_min":60,"x_max":777,"o":"m 615 449 l 60 449 l 60 610 l 777 610 l 777 245 l 615 245 l 615 449 z "},"­":{"ha":836,"x_min":165,"x_max":629,"o":"m 203 498 l 629 498 l 591 301 l 165 301 l 203 498 z "},"®":{"ha":836,"x_min":0,"x_max":836,"o":"m 418 85 q 123 208 246 85 q 31 344 64 267 q 0 503 0 416 q 31 663 0 590 q 123 799 64 739 q 258 890 182 859 q 418 921 332 921 q 578 890 503 921 q 650 851 616 875 q 713 799 684 828 q 769 730 746 765 q 805 663 791 695 q 836 503 836 590 q 806 345 836 416 q 767 274 791 309 q 713 208 744 239 q 650 156 685 180 q 577 116 616 132 q 418 85 505 85 m 418 174 q 650 271 553 174 q 690 319 671 292 q 723 378 709 347 q 747 503 747 437 q 722 629 747 570 q 650 736 696 689 q 544 809 604 783 q 481 828 511 823 q 418 833 451 833 q 349 827 378 833 q 293 809 319 821 q 241 782 269 799 q 185 736 214 764 q 142 683 160 710 q 113 629 125 655 q 94 565 100 596 q 89 503 89 534 q 113 378 89 437 q 142 325 124 353 q 186 271 159 298 q 293 198 233 224 q 418 174 351 174 m 244 715 l 411 715 q 545 686 501 715 q 589 595 589 656 q 562 522 589 551 q 532 499 550 509 q 488 485 515 490 q 514 471 503 479 q 532 456 526 463 q 549 436 540 449 q 567 404 558 422 l 621 292 l 504 292 l 461 382 q 443 415 452 400 q 424 437 434 429 q 404 449 416 444 q 376 454 391 454 l 355 454 l 355 292 l 244 292 l 244 715 m 399 529 q 457 543 437 529 q 476 584 476 555 q 457 627 476 612 q 399 640 437 640 l 355 640 l 355 529 l 399 529 z "},"¯":{"ha":836,"x_min":286,"x_max":739,"o":"m 311 1055 l 739 1055 l 714 928 l 286 928 l 311 1055 z "},"°":{"ha":836,"x_min":192,"x_max":643,"o":"m 416 579 q 327 596 368 579 q 256 643 286 613 q 192 804 192 707 q 222 919 192 867 q 303 1001 252 970 q 418 1031 354 1031 q 505 1014 465 1031 q 578 964 545 997 q 627 890 611 930 q 643 806 643 850 q 626 718 643 758 q 578 646 609 677 q 504 597 547 614 q 416 579 461 579 m 416 689 q 499 723 465 689 q 533 805 533 757 q 500 887 533 854 q 418 921 466 921 q 335 887 369 921 q 301 804 301 853 q 334 722 301 755 q 416 689 368 689 z "},"±":{"ha":836,"x_min":60,"x_max":777,"o":"m 338 471 l 60 471 l 60 631 l 338 631 l 338 871 l 498 871 l 498 631 l 777 631 l 777 471 l 498 471 l 498 231 l 338 231 l 338 471 m 60 161 l 777 161 l 777 0 l 60 0 l 60 161 z "},"²":{"ha":836,"x_min":176,"x_max":697,"o":"m 196 855 q 239 887 227 878 q 261 902 252 896 q 292 924 271 909 q 502 1090 440 1030 q 564 1184 564 1151 q 557 1207 564 1195 q 539 1227 551 1219 q 469 1244 515 1244 q 376 1232 426 1244 q 273 1196 321 1219 l 294 1305 q 345 1319 320 1313 q 395 1329 370 1325 q 494 1337 445 1337 q 578 1329 541 1337 q 644 1301 616 1320 q 685 1255 672 1281 q 697 1205 697 1230 q 631 1080 697 1149 q 419 907 566 1010 q 404 897 407 899 q 390 887 400 895 q 349 858 380 880 l 646 858 l 627 760 l 176 760 l 196 855 z "},"³":{"ha":836,"x_min":187,"x_max":705,"o":"m 386 748 q 334 750 359 748 q 284 755 309 752 q 236 764 260 759 q 187 776 213 768 l 208 880 q 300 852 253 861 q 399 843 351 843 q 461 850 436 843 q 506 871 487 857 q 534 904 526 886 q 543 942 543 922 q 514 994 543 977 q 433 1012 484 1012 l 358 1012 l 378 1111 l 452 1111 q 543 1130 512 1111 q 575 1182 575 1149 q 548 1225 575 1211 q 474 1241 520 1241 q 394 1233 441 1241 q 347 1223 372 1229 q 293 1209 321 1217 l 313 1312 q 362 1322 338 1318 q 410 1330 387 1326 q 501 1336 458 1336 q 652 1301 600 1336 q 705 1204 705 1267 q 665 1108 705 1146 q 547 1062 623 1070 q 637 1023 604 1056 q 671 936 671 989 q 596 799 671 849 q 386 748 522 748 z "},"´":{"ha":836,"x_min":386,"x_max":819,"o":"m 602 1111 l 819 1111 l 519 856 l 386 856 l 602 1111 z "},"µ":{"ha":836,"x_min":-37,"x_max":778,"o":"m 167 760 l 363 760 l 273 298 q 267 263 270 286 q 265 235 265 247 q 288 168 265 191 q 353 144 312 144 q 443 182 408 144 q 493 298 477 219 l 582 760 l 778 760 l 676 233 q 672 205 673 210 q 671 199 671 199 q 670 188 670 192 q 669 179 669 184 q 697 144 669 144 q 715 149 705 144 q 739 161 724 152 l 710 11 q 651 -13 676 -6 q 599 -20 627 -20 q 555 -13 573 -20 q 526 6 538 -6 q 492 87 500 32 q 414 7 456 34 q 373 -13 395 -5 q 325 -20 351 -20 q 260 -3 285 -20 q 224 45 234 13 l 158 -290 l -37 -290 l 167 760 z "},"¶":{"ha":836,"x_min":69,"x_max":807,"o":"m 310 440 q 132 511 194 452 q 85 578 100 540 q 69 669 69 616 q 180 913 69 811 q 456 1013 290 1013 l 807 1013 l 585 -134 l 456 -134 l 660 913 l 530 913 l 328 -134 l 199 -134 l 310 440 z "},"·":{"ha":836,"x_min":308,"x_max":528,"o":"m 418 391 q 340 422 372 391 q 308 505 308 454 q 340 588 308 556 q 418 620 372 620 q 496 588 464 620 q 528 505 528 556 q 496 422 528 454 q 418 391 464 391 z "},"¸":{"ha":836,"x_min":102,"x_max":431,"o":"m 237 -272 q 200 -271 219 -272 q 169 -268 180 -269 q 136 -262 161 -267 q 102 -254 111 -258 l 121 -149 q 150 -158 136 -154 q 178 -166 164 -163 q 230 -172 205 -172 q 300 -154 275 -172 q 325 -102 325 -136 q 316 -61 325 -83 q 304 -35 312 -50 q 286 0 297 -19 l 382 0 q 418 -64 406 -34 q 431 -125 431 -95 q 380 -232 431 -193 q 237 -272 330 -272 z "},"¹":{"ha":836,"x_min":196,"x_max":661,"o":"m 214 858 l 374 858 l 446 1226 l 290 1197 l 310 1298 l 465 1326 l 599 1326 l 507 858 l 661 858 l 642 760 l 196 760 l 214 858 z "},"º":{"ha":836,"x_min":150,"x_max":724,"o":"m 430 473 q 267 530 327 473 q 208 696 208 585 q 229 827 208 766 q 290 936 249 888 q 502 1031 370 1031 q 665 974 606 1031 q 709 906 694 945 q 724 808 724 867 q 704 679 724 740 q 643 568 684 617 q 548 496 601 519 q 430 473 494 473 m 440 585 q 496 602 471 585 q 540 649 522 619 q 570 724 560 682 q 581 806 581 765 q 576 854 581 831 q 557 892 571 876 q 494 920 534 920 q 437 902 463 920 q 393 855 412 885 q 362 779 372 821 q 353 700 353 737 q 359 648 353 668 q 376 614 365 627 q 440 585 401 585 m 172 406 l 639 406 l 616 290 l 150 290 l 172 406 z "},"»":{"ha":836,"x_min":56,"x_max":751,"o":"m 86 257 l 304 407 l 146 557 l 176 718 l 443 452 l 425 363 l 56 96 l 86 257 m 395 257 l 612 407 l 454 557 l 485 718 l 751 452 l 733 363 l 364 96 l 395 257 z "},"¼":{"ha":836,"x_min":21,"x_max":775,"o":"m 39 657 l 199 657 l 271 1025 l 115 996 l 135 1097 l 290 1125 l 424 1125 l 332 657 l 486 657 l 467 559 l 21 559 l 39 657 m 32 419 l 750 596 l 775 517 l 57 339 l 32 419 m 540 -61 l 276 -61 l 297 49 l 614 383 l 753 383 l 684 36 l 758 36 l 740 -61 l 667 -61 l 643 -183 l 515 -183 l 540 -61 m 558 36 l 602 260 l 389 36 l 558 36 z "},"½":{"ha":836,"x_min":21,"x_max":802,"o":"m 39 657 l 199 657 l 271 1025 l 115 996 l 135 1097 l 290 1125 l 424 1125 l 332 657 l 486 657 l 467 559 l 21 559 l 39 657 m 32 419 l 750 596 l 775 517 l 57 339 l 32 419 m 300 -87 q 343 -56 331 -65 q 366 -40 356 -47 q 397 -18 375 -34 q 605 147 542 86 q 668 241 668 208 q 662 264 668 252 q 644 285 656 276 q 573 301 620 301 q 481 289 530 301 q 378 253 427 276 l 399 363 q 450 376 425 370 q 500 387 475 382 q 597 395 549 395 q 749 358 698 395 q 789 312 777 338 q 802 262 802 286 q 734 136 802 208 q 524 -35 667 64 q 495 -55 507 -46 q 453 -85 483 -64 l 750 -85 l 731 -183 l 281 -183 l 300 -87 z "},"¾":{"ha":836,"x_min":32,"x_max":775,"o":"m 232 549 q 180 551 205 549 q 130 556 155 553 q 82 564 106 559 q 33 576 59 569 l 54 681 q 146 653 99 662 q 245 644 197 644 q 308 651 282 644 q 352 671 333 658 q 380 705 372 686 q 389 743 389 723 q 360 795 389 778 q 279 812 330 812 l 204 812 l 224 911 l 298 911 q 389 930 358 911 q 421 983 421 950 q 394 1026 421 1011 q 320 1042 366 1042 q 240 1034 287 1042 q 193 1024 218 1029 q 139 1010 168 1018 l 159 1113 q 208 1123 184 1118 q 256 1131 233 1127 q 347 1137 304 1137 q 498 1102 446 1137 q 551 1005 551 1067 q 511 909 551 947 q 393 863 469 871 q 484 823 450 857 q 517 736 517 790 q 443 599 517 650 q 232 549 368 549 m 32 419 l 750 596 l 775 517 l 57 339 l 32 419 m 540 -61 l 276 -61 l 297 49 l 614 383 l 753 383 l 684 36 l 758 36 l 740 -61 l 667 -61 l 643 -183 l 515 -183 l 540 -61 m 558 36 l 602 260 l 389 36 l 558 36 z "},"¿":{"ha":836,"x_min":61,"x_max":627,"o":"m 496 829 q 456 837 473 829 q 429 857 440 844 q 411 886 418 869 q 404 922 404 903 l 404 943 q 414 977 404 957 q 455 1028 426 1001 q 531 1055 484 1055 q 620 996 600 1055 q 626 958 626 979 q 614 903 626 926 q 585 864 603 880 q 545 838 568 848 q 496 829 522 829 m 308 -18 q 128 38 195 -18 q 61 184 61 94 q 94 305 61 250 q 207 428 130 365 l 278 486 l 283 491 q 387 657 369 566 l 403 741 l 583 741 l 564 636 q 522 524 551 570 q 481 471 505 495 q 428 421 458 447 l 357 358 l 347 349 q 276 278 300 309 q 252 218 252 246 q 276 164 252 186 q 351 142 301 142 q 479 165 412 142 q 627 240 547 189 l 591 58 q 308 -18 452 -18 z "},"À":{"ha":836,"x_min":-77,"x_max":715,"o":"m 339 1256 l 518 1256 l 615 1077 l 494 1077 l 339 1256 m 395 1013 l 639 1013 l 715 0 l 517 0 l 507 250 l 236 250 l 126 0 l -77 0 l 395 1013 m 500 415 l 486 827 l 307 415 l 500 415 z "},"Á":{"ha":836,"x_min":-77,"x_max":775,"o":"m 585 1256 l 775 1256 l 558 1077 l 418 1077 l 585 1256 m 395 1013 l 639 1013 l 715 0 l 517 0 l 507 250 l 236 250 l 126 0 l -77 0 l 395 1013 m 500 415 l 486 827 l 307 415 l 500 415 z "},"Â":{"ha":836,"x_min":-77,"x_max":772,"o":"m 433 1256 l 669 1256 l 772 1077 l 657 1077 l 546 1186 l 390 1077 l 268 1077 l 433 1256 m 395 1013 l 639 1013 l 715 0 l 517 0 l 507 250 l 236 250 l 126 0 l -77 0 l 395 1013 m 500 415 l 486 827 l 307 415 l 500 415 z "},"Ã":{"ha":836,"x_min":-77,"x_max":794,"o":"m 286 1078 q 348 1211 303 1164 q 456 1258 393 1258 q 505 1250 482 1258 q 550 1223 524 1242 l 586 1196 q 609 1182 596 1187 q 632 1177 619 1177 q 676 1198 659 1177 q 701 1258 694 1219 l 794 1258 q 732 1124 777 1172 q 625 1078 689 1078 q 578 1084 597 1078 q 530 1112 559 1090 l 497 1137 q 482 1148 488 1145 q 469 1155 476 1152 q 448 1159 458 1159 q 422 1153 433 1159 q 404 1138 412 1147 q 387 1107 393 1125 q 379 1078 381 1089 l 286 1078 m 395 1013 l 639 1013 l 715 0 l 517 0 l 507 250 l 236 250 l 126 0 l -77 0 l 395 1013 m 500 415 l 486 827 l 307 415 l 500 415 z "},"Ä":{"ha":836,"x_min":-77,"x_max":770,"o":"m 330 1094 q 312 1110 312 1094 q 313 1116 312 1115 l 338 1242 q 360 1261 342 1261 l 479 1261 q 497 1244 497 1261 q 496 1238 497 1240 l 471 1112 q 450 1094 468 1094 l 330 1094 m 599 1094 q 581 1110 581 1094 q 581 1116 581 1115 l 606 1242 q 628 1261 609 1261 l 747 1261 q 765 1238 770 1261 l 741 1112 q 719 1094 738 1094 l 599 1094 m 395 1013 l 639 1013 l 715 0 l 517 0 l 507 250 l 236 250 l 126 0 l -77 0 l 395 1013 m 500 415 l 486 827 l 307 415 l 500 415 z "},"Å":{"ha":836,"x_min":-77,"x_max":715,"o":"m 371 964 q 332 1024 347 988 q 318 1097 318 1059 q 375 1232 318 1175 q 435 1274 402 1259 q 511 1289 468 1289 q 647 1232 590 1289 q 704 1097 704 1175 q 688 1019 704 1053 q 643 956 672 981 l 715 0 l 515 0 l 501 250 l 233 250 l 123 0 l -77 0 l 371 964 m 511 1007 q 574 1034 548 1007 q 600 1096 600 1059 q 574 1159 600 1133 q 511 1185 546 1185 q 449 1159 475 1185 q 422 1096 422 1133 q 430 1061 422 1076 q 448 1034 437 1045 q 511 1007 475 1007 m 494 415 l 481 829 l 306 415 l 494 415 z "},"Æ":{"ha":836,"x_min":-102,"x_max":889,"o":"m 340 1013 l 889 1013 l 854 836 l 657 836 l 616 625 l 793 625 l 758 449 l 582 449 l 529 176 l 739 176 l 704 0 l 322 0 l 371 245 l 179 245 l 74 0 l -102 0 l 340 1013 m 401 406 l 486 836 l 432 836 l 248 406 l 401 406 z "},"Ç":{"ha":836,"x_min":71,"x_max":809,"o":"m 704 1019 q 755 1004 728 1013 q 809 982 783 995 l 766 760 q 683 829 732 806 q 630 847 658 841 q 578 852 603 852 q 523 845 551 852 q 467 821 494 838 q 417 778 439 803 q 378 728 395 753 q 303 555 332 656 q 281 453 288 500 q 274 364 274 405 q 284 277 274 316 q 317 209 294 237 q 441 157 359 157 q 549 180 495 157 q 607 210 578 192 q 667 252 636 228 l 624 29 q 570 7 597 16 q 517 -7 543 -2 q 488 -13 503 -11 q 458 -17 473 -16 q 483 -64 473 -41 q 495 -125 495 -95 q 444 -232 495 -193 q 300 -272 394 -272 q 264 -271 283 -272 q 233 -268 246 -269 q 191 -260 203 -264 q 166 -254 178 -257 l 185 -149 q 214 -158 200 -154 q 242 -166 229 -163 q 294 -172 270 -172 q 365 -154 340 -172 q 389 -102 389 -136 q 380 -61 389 -83 q 372 -42 377 -53 q 360 -18 368 -31 q 247 10 298 -12 q 157 73 195 33 q 91 193 111 122 q 71 351 71 263 q 83 494 71 420 q 119 643 95 569 q 249 879 168 787 q 319 944 281 916 q 403 992 357 972 q 497 1021 448 1012 q 599 1031 547 1031 q 652 1028 627 1031 q 704 1019 677 1025 z "},"È":{"ha":836,"x_min":20,"x_max":847,"o":"m 357 1257 l 536 1257 l 633 1078 l 513 1078 l 357 1257 m 215 1013 l 847 1013 l 812 836 l 382 836 l 339 618 l 729 618 l 696 441 l 306 441 l 254 176 l 685 176 l 650 0 l 20 0 l 215 1013 z "},"É":{"ha":836,"x_min":20,"x_max":847,"o":"m 610 1256 l 800 1256 l 583 1077 l 443 1077 l 610 1256 m 215 1013 l 847 1013 l 812 836 l 382 836 l 339 618 l 729 618 l 696 441 l 306 441 l 254 176 l 685 176 l 650 0 l 20 0 l 215 1013 z "},"Ê":{"ha":836,"x_min":20,"x_max":847,"o":"m 452 1257 l 688 1257 l 790 1078 l 675 1078 l 564 1187 l 408 1078 l 286 1078 l 452 1257 m 215 1013 l 847 1013 l 812 836 l 382 836 l 339 618 l 729 618 l 696 441 l 306 441 l 254 176 l 685 176 l 650 0 l 20 0 l 215 1013 z "},"Ë":{"ha":836,"x_min":20,"x_max":847,"o":"m 349 1090 q 330 1106 330 1090 q 331 1112 330 1111 l 357 1238 q 378 1257 361 1257 l 497 1257 q 515 1240 515 1257 q 515 1234 515 1236 l 490 1108 q 468 1090 487 1090 l 349 1090 m 617 1090 q 599 1106 599 1090 q 600 1112 599 1111 l 625 1238 q 646 1257 628 1257 l 765 1257 q 783 1234 788 1257 l 759 1108 q 737 1090 755 1090 l 617 1090 m 215 1013 l 847 1013 l 812 836 l 382 836 l 339 618 l 729 618 l 696 441 l 306 441 l 254 176 l 685 176 l 650 0 l 20 0 l 215 1013 z "},"Ì":{"ha":836,"x_min":18,"x_max":818,"o":"m 336 1257 l 515 1257 l 612 1078 l 492 1078 l 336 1257 m 53 176 l 254 176 l 382 836 l 180 836 l 215 1013 l 818 1013 l 783 836 l 582 836 l 454 176 l 656 176 l 621 0 l 18 0 l 53 176 z "},"Í":{"ha":836,"x_min":18,"x_max":818,"o":"m 582 1257 l 772 1257 l 555 1078 l 415 1078 l 582 1257 m 53 176 l 254 176 l 382 836 l 180 836 l 215 1013 l 818 1013 l 783 836 l 582 836 l 454 176 l 656 176 l 621 0 l 18 0 l 53 176 z "},"Î":{"ha":836,"x_min":18,"x_max":818,"o":"m 437 1257 l 673 1257 l 776 1078 l 661 1078 l 550 1187 l 394 1078 l 272 1078 l 437 1257 m 53 176 l 254 176 l 382 836 l 180 836 l 215 1013 l 818 1013 l 783 836 l 582 836 l 454 176 l 656 176 l 621 0 l 18 0 l 53 176 z "},"Ï":{"ha":836,"x_min":18,"x_max":818,"o":"m 334 1089 q 316 1105 316 1089 q 317 1112 316 1110 l 342 1238 q 364 1256 347 1256 l 483 1256 q 501 1240 501 1256 q 500 1234 501 1235 l 475 1107 q 454 1089 472 1089 l 334 1089 m 603 1089 q 585 1105 585 1089 q 585 1112 585 1110 l 610 1238 q 632 1256 613 1256 l 751 1256 q 769 1234 774 1256 l 745 1107 q 723 1089 742 1089 l 603 1089 m 53 176 l 254 176 l 382 836 l 180 836 l 215 1013 l 818 1013 l 783 836 l 582 836 l 454 176 l 656 176 l 621 0 l 18 0 l 53 176 z "},"Ð":{"ha":836,"x_min":9,"x_max":810,"o":"m 102 450 l 9 450 l 41 611 l 133 611 l 212 1013 l 426 1013 q 593 992 520 1013 q 715 929 667 972 q 810 675 810 846 q 808 617 810 651 q 802 552 806 584 q 790 483 798 524 q 774 409 782 442 q 744 310 760 354 q 713 235 728 266 q 671 164 692 193 q 629 116 649 136 q 557 62 596 84 q 475 27 518 41 q 239 0 387 0 l 15 0 l 102 450 m 315 180 q 443 210 391 180 q 490 248 471 226 q 524 300 509 271 q 556 377 541 332 q 582 471 571 422 q 598 569 593 522 q 604 651 604 616 q 593 734 604 701 q 562 789 583 767 q 431 832 519 832 l 376 832 l 333 611 l 476 611 l 446 450 l 302 450 l 250 180 l 315 180 z "},"Ñ":{"ha":836,"x_min":-17,"x_max":851,"o":"m 307 1077 q 368 1211 323 1164 q 477 1257 413 1257 q 525 1249 503 1257 q 570 1223 545 1242 l 606 1195 q 629 1181 616 1186 q 652 1177 640 1177 q 696 1198 680 1177 q 722 1257 714 1218 l 814 1257 q 753 1124 798 1171 q 645 1077 709 1077 q 598 1084 617 1077 q 551 1112 579 1090 l 517 1137 q 489 1154 500 1149 q 468 1158 478 1158 q 443 1152 454 1158 q 425 1137 432 1146 q 408 1106 414 1124 q 399 1077 401 1088 l 307 1077 m 180 1013 l 386 1013 l 532 277 l 675 1013 l 851 1013 l 656 0 l 457 0 l 304 736 l 161 0 l -17 0 l 180 1013 z "},"Ò":{"ha":836,"x_min":41,"x_max":794,"o":"m 346 1256 l 525 1256 l 622 1077 l 501 1077 l 346 1256 m 339 -20 q 213 1 270 -20 q 117 66 157 22 q 59 175 77 111 q 41 323 41 239 q 50 451 41 382 q 75 590 58 520 q 117 725 93 664 q 167 833 140 786 q 223 913 191 876 q 303 980 256 951 q 396 1019 347 1006 q 496 1031 446 1031 q 623 1010 566 1031 q 718 946 679 989 q 778 832 761 899 q 794 688 794 766 q 786 563 794 631 q 761 422 779 496 q 723 293 745 355 q 670 179 701 232 q 533 31 614 81 q 339 -20 448 -20 m 356 158 q 431 182 397 158 q 489 253 465 207 q 505 288 498 269 q 520 328 513 306 q 535 376 530 354 q 549 427 541 398 q 566 503 558 466 q 578 574 573 541 q 589 692 589 641 q 562 814 589 774 q 480 854 534 854 q 438 848 457 854 q 406 831 420 841 q 347 760 373 807 q 331 726 338 743 q 318 690 325 709 q 303 640 309 661 q 288 583 297 620 q 271 509 278 544 q 258 438 263 475 q 248 319 248 370 q 275 198 248 237 q 356 158 302 158 z "},"Ó":{"ha":836,"x_min":41,"x_max":794,"o":"m 591 1256 l 782 1256 l 565 1077 l 425 1077 l 591 1256 m 339 -20 q 213 1 270 -20 q 117 66 157 22 q 59 175 77 111 q 41 323 41 239 q 50 451 41 382 q 75 590 58 520 q 117 725 93 664 q 167 833 140 786 q 223 913 191 876 q 303 980 256 951 q 396 1019 347 1006 q 496 1031 446 1031 q 623 1010 566 1031 q 718 946 679 989 q 778 832 761 899 q 794 688 794 766 q 786 563 794 631 q 761 422 779 496 q 723 293 745 355 q 670 179 701 232 q 533 31 614 81 q 339 -20 448 -20 m 356 158 q 431 182 397 158 q 489 253 465 207 q 505 288 498 269 q 520 328 513 306 q 535 376 530 354 q 549 427 541 398 q 566 503 558 466 q 578 574 573 541 q 589 692 589 641 q 562 814 589 774 q 480 854 534 854 q 438 848 457 854 q 406 831 420 841 q 347 760 373 807 q 331 726 338 743 q 318 690 325 709 q 303 640 309 661 q 288 583 297 620 q 271 509 278 544 q 258 438 263 475 q 248 319 248 370 q 275 198 248 237 q 356 158 302 158 z "},"Ô":{"ha":836,"x_min":41,"x_max":794,"o":"m 427 1256 l 663 1256 l 765 1077 l 650 1077 l 539 1186 l 383 1077 l 261 1077 l 427 1256 m 339 -20 q 213 1 270 -20 q 117 66 157 22 q 59 175 77 111 q 41 323 41 239 q 50 451 41 382 q 75 590 58 520 q 117 725 93 664 q 167 833 140 786 q 223 913 191 876 q 303 980 256 951 q 396 1019 347 1006 q 496 1031 446 1031 q 623 1010 566 1031 q 718 946 679 989 q 778 832 761 899 q 794 688 794 766 q 786 563 794 631 q 761 422 779 496 q 723 293 745 355 q 670 179 701 232 q 533 31 614 81 q 339 -20 448 -20 m 356 158 q 431 182 397 158 q 489 253 465 207 q 505 288 498 269 q 520 328 513 306 q 535 376 530 354 q 549 427 541 398 q 566 503 558 466 q 578 574 573 541 q 589 692 589 641 q 562 814 589 774 q 480 854 534 854 q 438 848 457 854 q 406 831 420 841 q 347 760 373 807 q 331 726 338 743 q 318 690 325 709 q 303 640 309 661 q 288 583 297 620 q 271 509 278 544 q 258 438 263 475 q 248 319 248 370 q 275 198 248 237 q 356 158 302 158 z "},"Õ":{"ha":836,"x_min":41,"x_max":794,"o":"m 286 1078 q 348 1211 303 1164 q 456 1258 393 1258 q 505 1250 482 1258 q 550 1223 524 1242 l 586 1196 q 609 1182 596 1187 q 632 1177 619 1177 q 676 1198 659 1177 q 701 1258 694 1219 l 794 1258 q 732 1124 777 1172 q 625 1078 689 1078 q 578 1084 597 1078 q 530 1112 559 1090 l 497 1137 q 469 1155 480 1150 q 448 1159 458 1159 q 422 1153 433 1159 q 404 1138 412 1147 q 387 1107 393 1125 q 379 1078 381 1089 l 286 1078 m 339 -20 q 213 1 270 -20 q 117 66 157 22 q 59 175 77 111 q 41 323 41 239 q 50 451 41 382 q 75 590 58 520 q 117 725 93 664 q 167 833 140 786 q 223 913 191 876 q 303 980 256 951 q 396 1019 347 1006 q 496 1031 446 1031 q 623 1010 566 1031 q 718 946 679 989 q 778 832 761 899 q 794 688 794 766 q 786 563 794 631 q 761 422 779 496 q 723 293 745 355 q 670 179 701 232 q 533 31 614 81 q 339 -20 448 -20 m 356 158 q 431 182 397 158 q 489 253 465 207 q 505 288 498 269 q 520 328 513 306 q 535 376 530 354 q 549 427 541 398 q 566 503 558 466 q 578 574 573 541 q 589 692 589 641 q 562 814 589 774 q 480 854 534 854 q 438 848 457 854 q 406 831 420 841 q 347 760 373 807 q 331 726 338 743 q 318 690 325 709 q 303 640 309 661 q 288 583 297 620 q 271 509 278 544 q 258 438 263 475 q 248 319 248 370 q 275 198 248 237 q 356 158 302 158 z "},"Ö":{"ha":836,"x_min":41,"x_max":794,"o":"m 330 1089 q 312 1107 312 1089 q 312 1110 312 1109 q 313 1112 313 1110 l 338 1238 q 360 1256 342 1256 l 479 1256 q 497 1238 497 1256 q 497 1235 497 1236 q 496 1234 496 1235 l 471 1107 q 450 1089 468 1089 l 330 1089 m 599 1089 q 581 1107 581 1089 q 581 1110 581 1109 q 581 1112 581 1110 l 606 1238 q 628 1256 609 1256 l 747 1256 q 765 1234 770 1256 l 741 1107 q 719 1089 738 1089 l 599 1089 m 339 -20 q 213 1 270 -20 q 117 66 157 22 q 59 175 77 111 q 41 323 41 239 q 50 451 41 382 q 75 590 58 520 q 117 725 93 664 q 167 833 140 786 q 223 913 191 876 q 303 980 256 951 q 396 1019 347 1006 q 496 1031 446 1031 q 623 1010 566 1031 q 718 946 679 989 q 778 832 761 899 q 794 688 794 766 q 786 563 794 631 q 761 422 779 496 q 723 293 745 355 q 670 179 701 232 q 533 31 614 81 q 339 -20 448 -20 m 356 158 q 431 182 397 158 q 489 253 465 207 q 505 288 498 269 q 520 328 513 306 q 535 376 530 354 q 549 427 541 398 q 566 503 558 466 q 578 574 573 541 q 589 692 589 641 q 562 814 589 774 q 480 854 534 854 q 438 848 457 854 q 406 831 420 841 q 347 760 373 807 q 331 726 338 743 q 318 690 325 709 q 303 640 309 661 q 288 583 297 620 q 271 509 278 544 q 258 438 263 475 q 248 319 248 370 q 275 198 248 237 q 356 158 302 158 z "},"×":{"ha":836,"x_min":81,"x_max":754,"o":"m 81 212 l 304 436 l 81 659 l 195 772 l 416 550 l 640 772 l 754 659 l 530 436 l 754 212 l 640 100 l 416 322 l 195 100 l 81 212 z "},"Ø":{"ha":836,"x_min":-96,"x_max":920,"o":"m -96 35 l 53 200 q 48 225 50 214 q 45 248 46 236 q 42 273 43 261 q 41 308 41 286 q 50 444 41 372 q 75 587 58 515 q 113 718 90 654 q 165 832 136 781 q 304 979 220 927 q 496 1031 389 1031 q 623 1008 567 1031 q 721 942 679 986 l 825 1057 l 920 979 l 781 825 q 787 787 785 804 q 791 755 789 770 q 793 724 792 738 q 794 693 794 711 q 793 650 794 675 q 789 602 792 625 q 783 553 787 583 q 775 500 779 524 q 756 410 768 459 q 732 326 745 361 q 706 253 721 290 q 671 180 690 216 q 607 92 642 130 q 533 31 572 55 q 441 -7 490 5 q 339 -20 392 -20 q 206 5 263 -20 q 109 79 147 31 l 0 -43 l -96 35 m 578 782 q 541 836 566 819 q 511 850 527 846 q 479 854 494 854 q 402 828 435 854 q 346 755 370 802 q 298 627 320 706 q 257 427 276 547 l 578 782 m 356 158 q 494 262 442 158 q 542 400 520 313 q 582 603 564 486 l 254 240 q 293 179 267 199 q 320 164 305 170 q 356 158 335 158 z "},"Ù":{"ha":836,"x_min":31,"x_max":863,"o":"m 336 1256 l 515 1256 l 612 1077 l 492 1077 l 336 1256 m 337 -20 q 111 47 191 -20 q 50 130 68 82 q 31 240 31 178 q 35 301 31 264 q 39 338 37 327 q 46 374 41 350 l 171 1013 l 371 1013 l 236 323 q 235 319 236 321 q 231 271 231 290 q 262 187 231 218 q 351 157 293 157 q 467 198 424 157 q 528 323 511 239 l 663 1013 l 863 1013 l 737 374 q 714 272 726 316 q 686 189 703 227 q 616 83 660 127 q 494 7 563 33 q 337 -20 427 -20 z "},"Ú":{"ha":836,"x_min":31,"x_max":863,"o":"m 589 1257 l 779 1257 l 562 1078 l 422 1078 l 589 1257 m 337 -20 q 111 47 191 -20 q 50 130 68 82 q 31 240 31 178 q 35 301 31 264 q 39 338 37 327 q 46 374 41 350 l 171 1013 l 371 1013 l 236 323 q 235 319 236 321 q 231 271 231 290 q 262 187 231 218 q 351 157 293 157 q 467 198 424 157 q 528 323 511 239 l 663 1013 l 863 1013 l 737 374 q 714 272 726 316 q 686 189 703 227 q 616 83 660 127 q 494 7 563 33 q 337 -20 427 -20 z "},"Û":{"ha":836,"x_min":31,"x_max":863,"o":"m 437 1258 l 673 1258 l 776 1079 l 661 1079 l 550 1188 l 394 1079 l 272 1079 l 437 1258 m 337 -20 q 111 47 191 -20 q 50 130 68 82 q 31 240 31 178 q 35 301 31 264 q 39 338 37 327 q 46 374 41 350 l 171 1013 l 371 1013 l 236 323 q 235 319 236 321 q 231 271 231 290 q 262 187 231 218 q 351 157 293 157 q 467 198 424 157 q 528 323 511 239 l 663 1013 l 863 1013 l 737 374 q 714 272 726 316 q 686 189 703 227 q 616 83 660 127 q 494 7 563 33 q 337 -20 427 -20 z "},"Ü":{"ha":836,"x_min":31,"x_max":863,"o":"m 334 1090 q 316 1108 316 1090 q 316 1111 316 1111 q 317 1113 317 1112 l 342 1239 q 364 1257 347 1257 l 483 1257 q 501 1240 501 1257 q 501 1237 501 1237 q 500 1235 500 1236 l 475 1109 q 454 1090 472 1090 l 334 1090 m 603 1090 q 585 1108 585 1090 q 585 1111 585 1111 q 585 1113 585 1112 l 610 1239 q 632 1257 613 1257 l 751 1257 q 769 1235 774 1257 l 745 1109 q 723 1090 742 1090 l 603 1090 m 337 -20 q 111 47 191 -20 q 50 130 68 82 q 31 240 31 178 q 35 301 31 264 q 39 338 37 327 q 46 374 41 350 l 171 1013 l 371 1013 l 236 323 q 235 319 236 321 q 231 271 231 290 q 262 187 231 218 q 351 157 293 157 q 467 198 424 157 q 528 323 511 239 l 663 1013 l 863 1013 l 737 374 q 714 272 726 316 q 686 189 703 227 q 616 83 660 127 q 494 7 563 33 q 337 -20 427 -20 z "},"Ý":{"ha":836,"x_min":98,"x_max":921,"o":"m 589 1256 l 779 1256 l 562 1077 l 422 1077 l 589 1256 m 293 399 l 98 1013 l 297 1013 l 424 572 l 703 1013 l 921 1013 l 492 399 l 414 0 l 215 0 l 293 399 z "},"Þ":{"ha":836,"x_min":11,"x_max":790,"o":"m 208 1013 l 408 1013 l 376 859 l 463 859 q 707 796 622 859 q 790 612 790 734 q 766 463 790 540 q 737 395 753 424 q 701 343 721 366 q 639 288 671 308 q 570 254 607 267 q 481 232 530 239 q 366 225 433 225 l 254 225 l 211 0 l 11 0 l 208 1013 m 386 393 q 533 439 486 393 q 582 572 582 484 q 573 631 582 609 q 547 665 564 652 q 428 690 511 690 l 346 690 l 288 393 l 386 393 z "},"ß":{"ha":836,"x_min":20,"x_max":785,"o":"m 452 -20 q 404 -17 425 -20 q 363 -11 384 -15 q 275 14 314 -1 l 309 183 q 385 151 346 163 q 454 140 418 140 q 548 168 512 140 q 583 235 583 195 q 565 293 583 263 q 508 360 546 322 l 504 364 l 457 412 q 413 478 426 445 q 399 554 399 513 q 461 708 399 644 q 637 796 523 771 l 637 807 q 630 844 637 827 q 607 875 623 862 q 522 899 575 899 q 367 761 395 899 l 218 0 l 20 0 l 168 764 q 286 983 196 909 q 520 1057 374 1057 q 719 998 653 1057 q 785 824 785 938 q 783 781 785 804 q 777 722 781 757 l 777 718 q 627 679 680 713 q 575 593 575 645 q 590 546 575 571 q 640 485 604 521 l 696 429 q 755 347 737 387 q 770 305 765 328 q 775 254 775 283 q 688 56 775 132 q 452 -20 602 -20 z "},"à":{"ha":836,"x_min":32,"x_max":774,"o":"m 273 1135 l 465 1135 l 607 880 l 473 880 l 273 1135 m 257 -20 q 164 -5 206 -20 q 92 39 122 9 q 46 113 60 71 q 32 203 32 155 q 138 423 32 346 q 441 500 243 500 l 572 500 l 578 533 q 579 541 579 543 l 579 553 q 446 632 579 632 q 319 613 387 632 q 168 555 253 595 l 200 725 q 276 748 239 739 q 345 765 312 758 q 478 778 412 778 q 698 726 621 778 q 756 661 739 699 q 774 573 774 623 q 769 513 774 548 q 764 476 766 493 q 755 433 761 460 l 672 0 l 494 0 l 492 85 q 388 7 444 31 q 325 -13 358 -7 q 257 -20 292 -20 m 340 117 q 410 132 376 117 q 471 180 444 148 q 516 254 496 210 q 545 359 535 299 l 468 359 q 295 324 351 359 q 239 218 239 289 q 266 144 239 172 q 340 117 294 117 z "},"á":{"ha":836,"x_min":32,"x_max":840,"o":"m 623 1135 l 840 1135 l 541 880 l 407 880 l 623 1135 m 257 -20 q 164 -5 206 -20 q 92 39 122 9 q 46 113 60 71 q 32 203 32 155 q 138 423 32 346 q 441 500 243 500 l 572 500 l 578 533 q 579 541 579 543 l 579 553 q 446 632 579 632 q 319 613 387 632 q 168 555 253 595 l 200 725 q 276 748 239 739 q 345 765 312 758 q 478 778 412 778 q 698 726 621 778 q 756 661 739 699 q 774 573 774 623 q 769 513 774 548 q 764 476 766 493 q 755 433 761 460 l 672 0 l 494 0 l 492 85 q 388 7 444 31 q 325 -13 358 -7 q 257 -20 292 -20 m 340 117 q 410 132 376 117 q 471 180 444 148 q 516 254 496 210 q 545 359 535 299 l 468 359 q 295 324 351 359 q 239 218 239 289 q 266 144 239 172 q 340 117 294 117 z "},"â":{"ha":836,"x_min":32,"x_max":774,"o":"m 474 1135 l 639 1135 l 763 880 l 644 880 l 541 1032 l 378 880 l 249 880 l 474 1135 m 257 -20 q 164 -5 206 -20 q 92 39 122 9 q 46 113 60 71 q 32 203 32 155 q 138 423 32 346 q 441 500 243 500 l 572 500 l 578 533 q 579 541 579 543 l 579 553 q 446 632 579 632 q 319 613 387 632 q 168 555 253 595 l 200 725 q 276 748 239 739 q 345 765 312 758 q 478 778 412 778 q 698 726 621 778 q 756 661 739 699 q 774 573 774 623 q 769 513 774 548 q 764 476 766 493 q 755 433 761 460 l 672 0 l 494 0 l 492 85 q 388 7 444 31 q 325 -13 358 -7 q 257 -20 292 -20 m 340 117 q 410 132 376 117 q 471 180 444 148 q 516 254 496 210 q 545 359 535 299 l 468 359 q 295 324 351 359 q 239 218 239 289 q 266 144 239 172 q 340 117 294 117 z "},"ã":{"ha":836,"x_min":32,"x_max":786,"o":"m 618 880 q 571 888 593 880 q 522 918 549 897 l 489 943 q 487 945 487 945 q 486 946 487 945 q 462 962 474 955 q 436 968 450 968 q 395 945 412 968 q 371 881 378 922 l 277 881 q 336 1021 290 970 q 445 1074 382 1074 q 490 1065 472 1074 q 542 1032 509 1057 l 576 1006 q 625 985 602 985 q 667 1008 650 985 q 692 1072 684 1030 l 786 1072 q 618 880 756 880 m 257 -20 q 164 -5 206 -20 q 92 39 122 9 q 46 113 60 71 q 32 203 32 155 q 138 423 32 346 q 441 500 243 500 l 572 500 l 578 533 q 579 541 579 543 l 579 553 q 446 632 579 632 q 319 613 387 632 q 168 555 253 595 l 200 725 q 276 748 239 739 q 345 765 312 758 q 478 778 412 778 q 606 765 552 778 q 698 726 661 751 q 756 662 739 699 q 774 575 774 624 q 769 513 774 548 q 764 476 766 494 q 755 433 761 459 l 672 0 l 494 0 l 492 85 q 388 7 444 31 q 325 -13 358 -7 q 257 -20 292 -20 m 340 117 q 410 132 376 117 q 471 180 444 148 q 516 254 496 210 q 545 359 535 299 l 468 359 q 295 324 351 359 q 239 218 239 289 q 266 144 239 172 q 340 117 294 117 z "},"ä":{"ha":836,"x_min":32,"x_max":774,"o":"m 326 913 q 307 936 302 913 l 332 1062 q 353 1080 335 1080 l 473 1080 q 492 1064 492 1080 q 491 1058 492 1059 l 466 932 q 444 913 463 913 l 326 913 m 593 913 q 575 936 570 913 l 600 1062 q 621 1080 602 1080 l 742 1080 q 760 1064 760 1080 q 760 1058 760 1059 l 734 932 q 713 913 731 913 l 593 913 m 257 -20 q 164 -5 206 -20 q 92 39 122 9 q 46 113 60 71 q 32 203 32 155 q 138 423 32 346 q 441 500 243 500 l 572 500 l 578 533 q 579 541 579 543 l 579 553 q 446 632 579 632 q 319 613 387 632 q 168 555 253 595 l 200 725 q 276 748 239 739 q 345 765 312 758 q 478 778 412 778 q 698 726 621 778 q 756 661 739 699 q 774 573 774 623 q 769 513 774 548 q 764 476 766 493 q 755 433 761 460 l 672 0 l 494 0 l 492 85 q 388 7 444 31 q 325 -13 358 -7 q 257 -20 292 -20 m 340 117 q 410 132 376 117 q 471 180 444 148 q 516 254 496 210 q 545 359 535 299 l 468 359 q 295 324 351 359 q 239 218 239 289 q 266 144 239 172 q 340 117 294 117 z "},"å":{"ha":836,"x_min":32,"x_max":774,"o":"m 528 847 q 391 904 448 847 q 335 1040 335 960 q 351 1118 335 1083 q 391 1178 367 1154 q 451 1218 416 1203 q 528 1234 486 1234 q 665 1178 609 1234 q 705 1119 688 1154 q 721 1041 721 1084 q 705 963 721 998 q 665 903 689 927 q 528 847 609 847 m 528 951 q 592 978 566 951 q 617 1041 617 1004 q 591 1103 617 1077 q 564 1122 579 1115 q 528 1129 548 1129 q 465 1103 491 1129 q 439 1040 439 1077 q 465 977 439 1003 q 528 951 490 951 m 257 -20 q 164 -5 206 -20 q 92 39 122 9 q 46 113 60 71 q 32 203 32 155 q 138 423 32 346 q 441 500 243 500 l 572 500 l 578 533 q 579 541 579 543 l 579 553 q 446 632 579 632 q 319 613 387 632 q 168 555 253 595 l 200 725 q 276 748 239 739 q 345 765 312 758 q 478 778 412 778 q 698 726 621 778 q 756 661 739 699 q 774 573 774 623 q 769 513 774 548 q 764 476 766 493 q 755 433 761 460 l 672 0 l 494 0 l 492 85 q 388 7 444 31 q 325 -13 358 -7 q 257 -20 292 -20 m 340 117 q 410 132 376 117 q 471 180 444 148 q 516 254 496 210 q 545 359 535 299 l 468 359 q 295 324 351 359 q 239 218 239 289 q 266 144 239 172 q 340 117 294 117 z "},"æ":{"ha":836,"x_min":-21,"x_max":835,"o":"m 167 -20 q 30 34 81 -20 q -21 181 -21 87 q 62 389 -21 307 q 282 468 144 468 l 355 468 l 363 507 q 365 522 365 519 q 366 528 366 525 q 367 536 367 531 q 367 543 367 541 q 344 610 367 589 q 277 632 320 632 q 195 615 239 632 q 89 564 144 595 l 121 725 q 224 765 172 751 q 318 778 271 778 q 414 754 374 778 q 471 688 454 730 q 553 755 506 731 q 658 778 599 778 q 789 730 743 778 q 835 592 835 682 q 833 557 835 576 q 829 516 832 539 q 819 449 825 477 q 812 411 814 420 l 798 323 l 492 323 q 487 294 490 311 q 484 273 485 278 q 482 242 482 254 q 511 154 482 185 q 588 122 540 122 q 672 142 623 122 q 716 164 693 151 q 762 196 740 178 l 730 35 q 646 -6 692 7 q 547 -20 599 -20 q 485 -13 511 -20 q 435 9 459 -5 q 368 92 390 39 q 277 8 327 36 q 167 -20 227 -20 m 672 467 l 680 512 q 684 535 684 524 q 685 548 685 541 q 685 566 685 556 q 671 616 685 599 q 628 632 658 632 q 566 604 590 632 q 544 565 553 588 q 529 515 534 541 l 519 467 l 672 467 m 201 122 q 273 157 245 122 q 314 272 300 193 l 323 325 l 273 325 q 168 290 208 325 q 137 249 147 273 q 127 199 127 224 q 147 142 127 163 q 201 122 167 122 z "},"ç":{"ha":836,"x_min":88,"x_max":771,"o":"m 549 616 q 441 594 488 616 q 361 533 395 572 q 307 435 325 490 q 289 316 289 379 q 330 184 289 226 q 454 142 372 142 q 557 159 503 142 q 611 180 583 168 q 673 212 639 193 l 635 25 q 582 5 608 14 q 528 -9 555 -3 q 503 -13 515 -12 q 478 -16 490 -15 q 503 -64 494 -41 q 515 -125 515 -95 q 465 -232 515 -193 q 321 -272 414 -272 q 285 -271 303 -272 q 254 -268 267 -269 q 211 -260 224 -264 q 186 -254 198 -257 l 205 -149 q 235 -158 220 -154 q 262 -166 249 -163 q 315 -172 290 -172 q 385 -154 360 -172 q 410 -102 410 -136 q 401 -61 410 -83 q 393 -42 397 -53 q 381 -18 388 -32 q 268 5 321 -14 q 175 64 216 25 q 108 170 128 109 q 88 304 88 231 q 120 490 88 399 q 212 644 152 580 q 537 778 336 778 q 604 774 571 778 q 662 764 636 770 q 771 721 718 751 l 735 539 q 648 597 694 578 q 549 616 604 616 z "},"è":{"ha":836,"x_min":52,"x_max":783,"o":"m 265 1135 l 458 1135 l 600 880 l 465 880 l 265 1135 m 395 -20 q 139 60 225 -20 q 52 297 52 141 q 81 481 52 389 q 165 636 112 570 q 301 743 224 707 q 471 779 376 779 q 598 759 540 779 q 699 698 656 739 q 761 606 738 660 q 783 484 783 553 q 782 450 783 470 q 779 412 781 429 q 774 371 778 398 q 765 315 770 343 l 250 315 q 249 304 249 310 q 248 294 248 299 l 245 273 q 258 212 245 236 q 291 172 270 188 q 427 138 336 138 q 572 159 500 138 q 708 220 645 180 l 673 37 q 539 -5 609 9 q 395 -20 469 -20 m 594 464 q 598 483 597 473 q 599 492 599 488 q 599 500 599 496 q 564 591 599 557 q 469 624 531 624 q 278 464 332 624 l 594 464 z "},"é":{"ha":836,"x_min":52,"x_max":806,"o":"m 588 1135 l 806 1135 l 506 880 l 372 880 l 588 1135 m 395 -20 q 139 60 225 -20 q 52 297 52 141 q 81 481 52 389 q 165 636 112 570 q 301 743 224 707 q 471 779 376 779 q 598 759 540 779 q 699 698 656 739 q 761 606 738 660 q 783 484 783 553 q 782 450 783 470 q 779 412 781 429 q 774 371 778 398 q 765 315 770 343 l 250 315 q 249 304 249 310 q 248 294 248 299 l 245 273 q 258 212 245 236 q 291 172 270 188 q 427 138 336 138 q 572 159 500 138 q 708 220 645 180 l 673 37 q 539 -5 609 9 q 395 -20 469 -20 m 594 464 q 598 483 597 473 q 599 492 599 488 q 599 500 599 496 q 564 591 599 557 q 469 624 531 624 q 278 464 332 624 l 594 464 z "},"ê":{"ha":836,"x_min":52,"x_max":783,"o":"m 453 1135 l 618 1135 l 742 880 l 623 880 l 519 1032 l 357 880 l 228 880 l 453 1135 m 395 -20 q 139 60 225 -20 q 52 297 52 141 q 81 481 52 389 q 165 636 112 570 q 301 743 224 707 q 471 779 376 779 q 598 759 540 779 q 699 698 656 739 q 761 606 738 660 q 783 484 783 553 q 782 450 783 470 q 779 412 781 429 q 774 371 778 398 q 765 315 770 343 l 250 315 q 249 304 249 310 q 248 294 248 299 l 245 273 q 258 212 245 236 q 291 172 270 188 q 427 138 336 138 q 572 159 500 138 q 708 220 645 180 l 673 37 q 539 -5 609 9 q 395 -20 469 -20 m 594 464 q 598 483 597 473 q 599 492 599 488 q 599 500 599 496 q 564 591 599 557 q 469 624 531 624 q 278 464 332 624 l 594 464 z "},"ë":{"ha":836,"x_min":52,"x_max":783,"o":"m 298 913 q 279 936 275 913 l 304 1062 q 326 1080 307 1080 l 446 1080 q 464 1063 464 1080 q 464 1060 464 1060 q 463 1058 463 1059 l 438 932 q 416 913 435 913 l 298 913 m 566 913 q 547 936 543 913 l 572 1062 q 593 1080 575 1080 l 714 1080 q 732 1063 732 1080 q 732 1060 732 1060 q 732 1058 732 1059 l 707 932 q 685 913 704 913 l 566 913 m 395 -20 q 139 60 225 -20 q 52 297 52 141 q 81 481 52 389 q 165 636 112 570 q 301 743 224 707 q 471 779 376 779 q 598 759 540 779 q 699 698 656 739 q 761 606 738 660 q 783 484 783 553 q 782 450 783 470 q 779 412 781 429 q 774 371 778 398 q 765 315 770 343 l 250 315 q 249 304 249 310 q 248 294 248 299 l 245 273 q 258 212 245 236 q 291 172 270 188 q 427 138 336 138 q 572 159 500 138 q 708 220 645 180 l 673 37 q 539 -5 609 9 q 395 -20 469 -20 m 594 464 q 598 483 597 473 q 599 492 599 488 q 599 500 599 496 q 564 591 599 557 q 469 624 531 624 q 278 464 332 624 l 594 464 z "},"ì":{"ha":836,"x_min":180,"x_max":732,"o":"m 208 1118 l 400 1118 l 542 863 l 408 863 l 208 1118 m 500 -5 q 303 33 359 -5 q 258 85 271 54 q 245 155 245 116 q 247 177 245 167 q 249 198 248 186 q 253 223 250 210 q 258 252 255 237 l 340 607 l 180 607 l 209 760 l 567 760 l 454 242 q 451 224 450 226 q 450 218 452 222 q 449 208 449 212 q 448 200 448 204 q 469 160 448 174 q 543 147 490 147 l 732 147 l 701 -5 l 500 -5 z "},"í":{"ha":836,"x_min":153,"x_max":802,"o":"m 585 1118 l 802 1118 l 503 863 l 369 863 l 585 1118 m 473 -5 q 276 33 332 -5 q 231 85 244 54 q 218 155 218 116 q 219 177 218 167 q 222 198 220 186 q 225 223 223 210 q 231 252 228 237 l 313 607 l 153 607 l 182 760 l 540 760 l 427 242 q 424 224 423 226 q 423 218 425 222 q 421 208 422 212 q 421 200 421 204 q 442 160 421 174 q 516 147 463 147 l 705 147 l 674 -5 l 473 -5 z "},"î":{"ha":836,"x_min":155,"x_max":707,"o":"m 404 1135 l 569 1135 l 693 880 l 574 880 l 471 1032 l 308 880 l 179 880 l 404 1135 m 475 -5 q 278 33 334 -5 q 233 85 246 54 q 220 155 220 116 q 221 177 220 167 q 224 198 222 186 q 228 223 225 210 q 233 252 230 237 l 315 607 l 155 607 l 184 760 l 542 760 l 429 242 q 426 224 425 226 q 425 218 427 222 q 424 208 424 212 q 423 200 423 204 q 444 160 423 174 q 518 147 465 147 l 707 147 l 676 -5 l 475 -5 z "},"ï":{"ha":836,"x_min":167,"x_max":719,"o":"m 268 913 q 250 936 245 913 l 274 1062 q 296 1080 277 1080 l 416 1080 q 428 1076 425 1080 q 433 1064 431 1072 q 433 1058 434 1061 l 408 932 q 387 913 406 913 l 268 913 m 536 913 q 517 936 513 913 l 542 1062 q 564 1080 545 1080 l 684 1080 q 696 1076 694 1080 q 702 1064 699 1072 q 702 1058 703 1061 l 677 932 q 655 913 674 913 l 536 913 m 487 -5 q 290 33 347 -5 q 245 85 258 54 q 233 155 233 116 q 234 177 233 167 q 236 198 235 186 q 240 223 237 210 q 245 252 242 237 l 327 607 l 167 607 l 196 760 l 554 760 l 441 242 q 438 224 437 226 q 437 218 439 222 q 436 208 436 212 q 435 200 435 204 q 456 160 435 174 q 530 147 477 147 l 719 147 l 688 -5 l 487 -5 z "},"ð":{"ha":836,"x_min":56,"x_max":818,"o":"m 365 -20 q 232 1 289 -20 q 137 58 176 22 q 75 156 94 99 q 56 285 56 212 q 82 451 56 372 q 163 592 109 530 q 283 682 214 649 q 441 714 353 714 q 492 710 470 714 q 534 697 516 706 q 520 729 526 717 q 497 777 515 741 q 460 843 468 831 l 236 760 l 208 838 l 416 916 l 332 1055 l 521 1055 l 571 974 l 790 1054 l 818 978 l 612 901 q 734 665 694 778 q 764 554 753 610 q 774 438 774 498 q 746 256 774 340 q 663 107 718 171 q 535 13 610 46 q 365 -20 460 -20 m 380 140 q 520 225 465 140 q 561 322 547 266 q 575 442 575 379 q 574 487 575 467 q 571 505 573 492 q 568 528 570 518 q 541 540 555 535 q 515 549 527 545 q 486 554 501 552 q 458 555 471 555 q 375 536 412 555 q 312 481 338 516 q 269 394 283 443 q 254 296 254 346 q 263 228 254 256 q 288 181 272 199 q 326 152 302 163 q 380 140 349 140 z "},"ñ":{"ha":836,"x_min":40,"x_max":765,"o":"m 597 880 q 550 888 572 880 q 501 918 528 897 l 468 943 q 466 945 466 945 q 465 946 466 945 q 441 962 453 955 q 415 968 429 968 q 374 945 391 968 q 350 881 357 922 l 256 881 q 315 1021 269 970 q 424 1074 361 1074 q 469 1065 451 1074 q 521 1032 488 1057 l 555 1006 q 604 985 581 985 q 646 1008 629 985 q 671 1072 663 1030 l 765 1072 q 597 880 735 880 m 187 760 l 366 760 l 364 646 q 404 703 381 678 q 454 743 427 727 q 581 778 510 778 q 713 731 666 778 q 760 597 760 684 q 759 576 760 587 q 757 551 758 564 q 753 526 755 543 q 747 494 751 509 l 652 0 l 453 0 l 543 463 q 547 483 545 468 q 549 498 549 497 q 550 516 549 507 q 550 532 550 525 q 530 595 550 573 q 474 615 511 615 q 378 566 418 615 q 321 427 338 517 l 239 0 l 40 0 l 187 760 z "},"ò":{"ha":836,"x_min":60,"x_max":777,"o":"m 252 1135 l 444 1135 l 586 880 l 452 880 l 252 1135 m 368 -20 q 234 3 291 -20 q 141 62 178 26 q 79 164 98 104 q 60 300 60 224 q 88 486 60 396 q 172 644 116 575 q 301 744 227 709 q 467 779 376 779 q 594 759 535 779 q 695 699 653 739 q 757 596 738 656 q 777 458 777 536 q 748 271 777 360 q 665 116 720 182 q 531 13 607 46 q 368 -20 456 -20 m 382 140 q 520 233 464 140 q 561 333 546 275 q 576 456 576 391 q 568 531 576 503 q 545 578 560 560 q 504 609 528 600 q 456 618 480 618 q 316 526 372 618 q 274 418 288 477 q 260 304 260 359 q 267 236 260 268 q 292 181 273 204 q 329 152 307 163 q 382 140 351 140 z "},"ó":{"ha":836,"x_min":60,"x_max":819,"o":"m 602 1135 l 819 1135 l 519 880 l 386 880 l 602 1135 m 368 -20 q 234 3 291 -20 q 141 62 178 26 q 79 164 98 104 q 60 300 60 224 q 88 486 60 396 q 172 644 116 575 q 301 744 227 709 q 467 779 376 779 q 594 759 535 779 q 695 699 653 739 q 757 596 738 656 q 777 458 777 536 q 748 271 777 360 q 665 116 720 182 q 531 13 607 46 q 368 -20 456 -20 m 382 140 q 520 233 464 140 q 561 333 546 275 q 576 456 576 391 q 568 531 576 503 q 545 578 560 560 q 504 609 528 600 q 456 618 480 618 q 316 526 372 618 q 274 418 288 477 q 260 304 260 359 q 267 236 260 268 q 292 181 273 204 q 329 152 307 163 q 382 140 351 140 z "},"ô":{"ha":836,"x_min":60,"x_max":777,"o":"m 453 1136 l 618 1136 l 742 881 l 623 881 l 519 1034 l 357 881 l 228 881 l 453 1136 m 368 -20 q 234 3 291 -20 q 141 62 178 26 q 79 164 98 104 q 60 300 60 224 q 88 486 60 396 q 172 644 116 575 q 301 744 227 709 q 467 779 376 779 q 594 759 535 779 q 695 699 653 739 q 757 596 738 656 q 777 458 777 536 q 748 271 777 360 q 665 116 720 182 q 531 13 607 46 q 368 -20 456 -20 m 382 140 q 520 233 464 140 q 561 333 546 275 q 576 456 576 391 q 568 531 576 503 q 545 578 560 560 q 504 609 528 600 q 456 618 480 618 q 316 526 372 618 q 274 418 288 477 q 260 304 260 359 q 267 236 260 268 q 292 181 273 204 q 329 152 307 163 q 382 140 351 140 z "},"õ":{"ha":836,"x_min":60,"x_max":777,"o":"m 597 881 q 550 889 572 881 q 501 920 528 898 l 468 945 q 466 946 466 947 q 465 947 466 946 q 441 963 453 956 q 415 970 429 970 q 374 947 391 970 q 350 882 357 924 l 256 882 q 315 1023 269 971 q 424 1075 361 1075 q 469 1066 451 1075 q 521 1034 488 1058 l 555 1007 q 604 986 581 986 q 646 1009 629 986 q 671 1074 663 1031 l 765 1074 q 597 881 735 881 m 368 -20 q 234 3 291 -20 q 141 62 178 26 q 79 164 98 104 q 60 300 60 224 q 88 486 60 396 q 172 644 116 575 q 301 744 227 709 q 467 779 376 779 q 594 759 535 779 q 695 699 653 739 q 757 596 738 656 q 777 458 777 536 q 748 271 777 360 q 665 116 720 182 q 531 13 607 46 q 368 -20 456 -20 m 382 140 q 520 233 464 140 q 561 333 546 275 q 576 456 576 391 q 568 531 576 503 q 545 578 560 560 q 504 609 528 600 q 456 618 480 618 q 316 526 372 618 q 274 418 288 477 q 260 304 260 359 q 267 236 260 268 q 292 181 273 204 q 329 152 307 163 q 382 140 351 140 z "},"ö":{"ha":836,"x_min":60,"x_max":777,"o":"m 304 913 q 286 936 281 913 l 311 1062 q 332 1080 313 1080 l 452 1080 q 471 1063 471 1080 q 470 1060 471 1060 q 470 1058 470 1059 l 445 932 q 423 913 442 913 l 304 913 m 572 913 q 554 936 549 913 l 578 1062 q 600 1080 582 1080 l 721 1080 q 739 1063 739 1080 q 739 1060 739 1060 q 739 1058 739 1059 l 713 932 q 692 913 711 913 l 572 913 m 368 -20 q 234 3 291 -20 q 141 62 178 26 q 79 164 98 104 q 60 300 60 224 q 88 486 60 396 q 172 644 116 575 q 301 744 227 709 q 467 779 376 779 q 594 759 535 779 q 695 699 653 739 q 757 596 738 656 q 777 458 777 536 q 748 271 777 360 q 665 116 720 182 q 531 13 607 46 q 368 -20 456 -20 m 382 140 q 520 233 464 140 q 561 333 546 275 q 576 456 576 391 q 568 531 576 503 q 545 578 560 560 q 504 609 528 600 q 456 618 480 618 q 316 526 372 618 q 274 418 288 477 q 260 304 260 359 q 267 236 260 268 q 292 181 273 204 q 329 152 307 163 q 382 140 351 140 z "},"÷":{"ha":836,"x_min":45,"x_max":790,"o":"m 313 812 l 522 812 l 522 603 l 313 603 l 313 812 m 45 517 l 790 517 l 790 355 l 45 355 l 45 517 m 313 268 l 522 268 l 522 58 l 313 58 l 313 268 z "},"ø":{"ha":836,"x_min":-56,"x_max":889,"o":"m -56 1 l 87 142 q 76 175 80 160 q 67 209 71 190 q 62 245 64 227 q 60 292 60 264 q 88 486 60 395 q 172 644 117 577 q 303 746 228 712 q 467 779 379 779 q 582 762 530 779 q 679 711 633 745 l 810 838 l 889 755 l 749 619 q 761 585 755 602 q 770 549 766 568 q 775 513 773 530 q 777 472 777 496 q 748 275 777 367 q 665 115 720 183 q 536 15 611 50 q 367 -20 461 -20 q 251 -3 302 -20 q 158 49 199 14 l 24 -79 l -56 1 m 543 581 q 457 618 510 618 q 324 538 376 618 q 260 307 273 458 l 543 581 m 381 140 q 514 222 463 140 q 576 454 566 305 l 294 180 q 312 162 304 169 q 332 151 321 156 q 381 140 354 140 z "},"ù":{"ha":836,"x_min":72,"x_max":790,"o":"m 258 1118 l 451 1118 l 593 863 l 458 863 l 258 1118 m 251 -20 q 119 28 167 -20 q 72 165 72 76 q 75 209 72 187 q 78 233 76 217 q 83 265 80 250 l 180 760 l 378 760 l 289 296 q 284 260 286 281 q 282 228 282 239 q 287 190 282 204 q 302 165 292 176 q 324 149 311 155 q 359 143 337 143 q 453 191 416 143 q 510 332 492 241 l 593 760 l 790 760 l 643 0 l 464 0 l 467 113 q 426 54 450 78 q 380 16 401 30 q 315 -12 348 -3 q 251 -20 283 -20 z "},"ú":{"ha":836,"x_min":72,"x_max":826,"o":"m 608 1118 l 826 1118 l 526 863 l 393 863 l 608 1118 m 251 -20 q 119 28 167 -20 q 72 165 72 76 q 75 209 72 187 q 78 233 76 217 q 83 265 80 250 l 180 760 l 378 760 l 289 296 q 284 260 286 281 q 282 228 282 239 q 287 190 282 204 q 302 165 292 176 q 324 149 311 155 q 359 143 337 143 q 453 191 416 143 q 510 332 492 241 l 593 760 l 790 760 l 643 0 l 464 0 l 467 113 q 426 54 450 78 q 380 16 401 30 q 315 -12 348 -3 q 251 -20 283 -20 z "},"û":{"ha":836,"x_min":72,"x_max":790,"o":"m 460 1118 l 625 1118 l 749 863 l 629 863 l 526 1015 l 363 863 l 235 863 l 460 1118 m 251 -20 q 119 28 167 -20 q 72 165 72 76 q 75 209 72 187 q 78 233 76 217 q 83 265 80 250 l 180 760 l 378 760 l 289 296 q 284 260 286 281 q 282 228 282 239 q 287 190 282 204 q 302 165 292 176 q 324 149 311 155 q 359 143 337 143 q 453 191 416 143 q 510 332 492 241 l 593 760 l 790 760 l 643 0 l 464 0 l 467 113 q 426 54 450 78 q 380 16 401 30 q 315 -12 348 -3 q 251 -20 283 -20 z "},"ü":{"ha":836,"x_min":72,"x_max":790,"o":"m 311 913 q 293 936 288 913 l 317 1062 q 339 1080 320 1080 l 459 1080 q 477 1064 477 1080 q 477 1058 477 1059 l 452 932 q 430 913 449 913 l 311 913 m 579 913 q 561 936 556 913 l 585 1062 q 607 1080 589 1080 l 728 1080 q 746 1064 746 1080 q 745 1058 746 1059 l 720 932 q 699 913 718 913 l 579 913 m 251 -20 q 119 28 167 -20 q 72 165 72 76 q 75 209 72 187 q 78 233 76 217 q 83 265 80 250 l 180 760 l 378 760 l 289 296 q 284 260 286 281 q 282 228 282 239 q 287 190 282 204 q 302 165 292 176 q 324 149 311 155 q 359 143 337 143 q 453 191 416 143 q 510 332 492 241 l 593 760 l 790 760 l 643 0 l 464 0 l 467 113 q 426 54 450 78 q 380 16 401 30 q 315 -12 348 -3 q 251 -20 283 -20 z "},"ý":{"ha":836,"x_min":-44,"x_max":869,"o":"m 625 1118 l 843 1118 l 543 863 l 410 863 l 625 1118 m -14 -136 l 66 -136 q 159 -116 127 -136 q 194 -82 175 -106 q 233 -20 213 -58 l 260 31 l 113 760 l 314 760 l 400 285 l 660 760 l 869 760 l 391 -82 q 260 -252 315 -215 q 119 -288 208 -288 l -44 -288 l -14 -136 z "},"þ":{"ha":836,"x_min":-25,"x_max":793,"o":"m 236 1055 l 435 1055 l 355 646 q 459 745 403 712 q 579 778 514 778 q 735 704 677 778 q 793 498 793 630 q 771 326 793 417 q 713 165 749 234 q 595 29 666 78 q 444 -20 524 -20 q 319 22 369 -20 q 257 140 270 64 l 174 -289 l -25 -289 l 236 1055 m 408 142 q 481 168 448 142 q 538 237 515 195 q 578 343 564 284 q 593 463 593 403 q 565 577 593 541 q 487 615 536 615 q 352 522 408 615 q 296 301 296 425 q 302 234 296 264 q 326 182 309 204 q 408 142 356 142 z "},"ÿ":{"ha":836,"x_min":-44,"x_max":869,"o":"m 328 895 q 310 918 305 895 l 334 1044 q 356 1062 338 1062 l 476 1062 q 494 1046 494 1062 q 494 1041 494 1042 q 494 1040 494 1041 l 469 913 q 447 895 465 895 l 328 895 m 596 895 q 578 918 573 895 l 602 1044 q 624 1062 605 1062 l 745 1062 q 763 1046 763 1062 q 763 1041 763 1042 q 762 1040 762 1041 l 737 913 q 715 895 734 895 l 596 895 m -14 -136 l 66 -136 q 159 -116 127 -136 q 194 -82 175 -106 q 233 -20 213 -58 l 260 31 l 113 760 l 314 760 l 400 285 l 660 760 l 869 760 l 391 -82 q 260 -252 315 -215 q 119 -288 208 -288 l -44 -288 l -14 -136 z "},"Ā":{"ha":836,"x_min":-77,"x_max":780,"o":"m 352 1255 l 780 1255 l 755 1127 l 328 1127 l 352 1255 m 395 1013 l 639 1013 l 715 0 l 517 0 l 507 250 l 236 250 l 126 0 l -77 0 l 395 1013 m 500 415 l 486 827 l 307 415 l 500 415 z "},"ā":{"ha":836,"x_min":32,"x_max":774,"o":"m 311 1041 l 739 1041 l 714 913 l 286 913 l 311 1041 m 258 -20 q 93 39 153 -20 q 32 205 32 97 q 137 422 32 345 q 441 500 243 500 l 572 500 l 578 533 q 579 541 578 537 q 579 550 579 545 q 545 611 579 591 q 448 632 511 632 q 168 555 330 632 l 200 725 q 351 766 286 753 q 481 778 416 778 q 698 726 623 778 q 774 573 774 675 q 769 511 774 546 q 755 433 764 475 l 672 0 l 501 0 l 492 85 q 387 6 446 32 q 258 -20 328 -20 m 342 117 q 471 180 416 117 q 545 359 526 244 l 468 359 q 239 220 239 359 q 266 144 239 172 q 342 117 293 117 z "},"Ă":{"ha":836,"x_min":-77,"x_max":798,"o":"m 540 1077 q 394 1122 444 1077 q 345 1253 345 1168 l 345 1256 l 441 1256 q 473 1199 447 1219 q 553 1178 500 1178 q 693 1256 659 1178 l 798 1256 q 701 1122 770 1166 q 540 1077 632 1077 m 395 1013 l 639 1013 l 715 0 l 517 0 l 507 250 l 236 250 l 126 0 l -77 0 l 395 1013 m 500 415 l 486 827 l 307 415 l 500 415 z "},"ă":{"ha":836,"x_min":32,"x_max":774,"o":"m 499 880 q 302 1059 302 880 l 302 1081 l 400 1081 l 400 1072 q 430 1006 400 1031 q 513 982 460 982 q 606 1008 566 982 q 663 1081 646 1034 l 760 1081 q 674 933 740 987 q 499 880 609 880 m 258 -20 q 93 39 153 -20 q 32 205 32 97 q 137 422 32 345 q 441 500 243 500 l 572 500 l 578 533 q 579 541 578 537 q 579 550 579 545 q 545 611 579 591 q 448 632 511 632 q 168 555 330 632 l 200 725 q 351 766 286 753 q 481 778 416 778 q 698 726 623 778 q 774 573 774 675 q 769 511 774 546 q 755 433 764 475 l 672 0 l 494 0 l 492 85 q 387 6 446 32 q 258 -20 328 -20 m 342 117 q 471 180 416 117 q 545 359 526 244 l 468 359 q 239 220 239 359 q 266 144 239 172 q 342 117 293 117 z "},"Ą":{"ha":836,"x_min":-77,"x_max":715,"o":"m 532 -123 q 549 -158 532 -143 q 600 -172 565 -172 q 646 -168 618 -172 q 706 -151 674 -163 l 685 -257 q 621 -268 652 -264 q 564 -272 589 -272 q 454 -247 494 -272 q 414 -173 414 -221 q 440 -92 414 -136 q 520 0 465 -48 l 517 0 l 507 250 l 236 250 l 126 0 l -77 0 l 395 1013 l 639 1013 l 715 0 l 616 0 q 549 -79 565 -54 q 532 -123 532 -104 m 500 415 l 486 827 l 307 415 l 500 415 z "},"ą":{"ha":836,"x_min":32,"x_max":774,"o":"m 481 778 q 698 726 623 778 q 774 573 774 675 q 769 511 774 546 q 755 433 764 475 l 672 0 l 570 0 q 503 -79 519 -54 q 487 -123 487 -104 q 503 -158 487 -143 q 555 -172 519 -172 q 601 -168 573 -172 q 661 -151 629 -163 l 640 -257 q 575 -268 606 -264 q 518 -272 544 -272 q 409 -247 448 -272 q 369 -173 369 -221 q 394 -92 369 -136 q 475 0 420 -48 l 492 85 q 387 6 446 32 q 258 -20 328 -20 q 93 39 153 -20 q 32 205 32 97 q 137 422 32 345 q 441 500 243 500 l 572 500 l 578 533 q 579 541 578 537 q 579 550 579 545 q 545 611 579 591 q 448 632 511 632 q 168 555 330 632 l 200 725 q 351 766 286 753 q 481 778 416 778 m 342 117 q 471 180 416 117 q 545 359 526 244 l 468 359 q 239 220 239 359 q 266 144 239 172 q 342 117 293 117 z "},"Ć":{"ha":836,"x_min":71,"x_max":854,"o":"m 663 1256 l 854 1256 l 637 1077 l 496 1077 l 663 1256 m 406 -20 q 266 3 331 -20 q 157 73 201 25 q 91 193 111 122 q 71 351 71 263 q 83 494 71 420 q 119 643 95 569 q 249 879 168 787 q 319 944 281 916 q 403 992 357 972 q 496 1021 448 1012 q 596 1031 545 1031 q 704 1019 650 1031 q 753 1004 726 1013 q 809 982 781 996 l 766 760 q 683 829 732 806 q 630 847 658 841 q 578 852 603 852 q 523 845 551 852 q 467 821 494 838 q 417 778 439 803 q 378 728 395 753 q 303 555 332 656 q 281 453 288 500 q 274 364 274 405 q 284 277 274 316 q 317 209 294 237 q 441 157 359 157 q 549 180 495 157 q 607 210 578 192 q 667 252 636 228 l 624 29 q 570 7 597 16 q 517 -7 543 -2 q 406 -20 463 -20 z "},"ć":{"ha":836,"x_min":85,"x_max":861,"o":"m 643 1135 l 861 1135 l 561 880 l 427 880 l 643 1135 m 414 -20 q 281 0 343 -20 q 172 64 218 19 q 105 170 125 109 q 85 304 85 231 q 117 490 85 399 q 209 644 149 580 q 534 778 333 778 q 600 774 568 778 q 659 764 633 770 q 768 721 715 751 l 732 539 q 644 597 690 578 q 545 616 600 616 q 438 594 485 616 q 358 533 391 572 q 303 435 321 490 q 286 316 286 379 q 327 184 286 226 q 451 142 369 142 q 554 159 499 142 q 607 180 579 168 q 669 212 635 193 l 631 25 q 578 5 605 14 q 524 -9 551 -3 q 414 -20 469 -20 z "},"Ĉ":{"ha":836,"x_min":66,"x_max":859,"o":"m 533 1256 l 743 1256 l 859 1077 l 739 1077 l 625 1186 l 469 1077 l 349 1077 l 533 1256 m 66 332 q 85 505 66 411 q 189 793 118 675 q 606 1031 334 1031 q 808 982 724 1031 l 764 760 q 678 829 722 808 q 581 851 634 851 q 399 763 473 851 q 293 505 326 675 q 278 366 278 435 q 447 160 278 160 q 552 182 499 160 q 605 209 578 193 q 665 252 631 225 l 623 29 q 402 -20 518 -20 q 152 70 237 -20 q 66 332 66 160 z "},"ĉ":{"ha":836,"x_min":84,"x_max":808,"o":"m 510 1082 l 673 1082 l 808 880 l 687 880 l 572 979 l 418 880 l 297 880 l 510 1082 m 215 20 q 84 271 84 96 q 96 379 84 313 q 182 593 120 501 q 338 731 245 684 q 547 779 431 779 q 768 721 669 779 l 732 539 q 544 616 658 616 q 383 555 447 616 q 297 379 319 493 q 289 304 289 338 q 452 143 289 143 q 566 163 510 143 q 671 221 623 182 l 635 39 q 394 -20 524 -20 q 215 20 283 -20 z "},"Ċ":{"ha":836,"x_min":72,"x_max":810,"o":"m 517 1090 q 499 1112 494 1090 l 524 1238 q 546 1257 528 1257 l 692 1257 q 710 1234 715 1257 l 685 1108 q 663 1090 682 1090 l 517 1090 m 404 -20 q 157 73 243 -20 q 72 354 72 165 q 94 547 72 450 q 155 730 115 644 q 250 879 195 817 q 403 992 315 954 q 594 1031 491 1031 q 704 1019 652 1031 q 810 982 757 1006 l 766 760 q 684 829 733 805 q 581 852 634 852 q 467 820 517 852 q 379 729 416 787 q 325 620 349 682 q 288 490 301 557 q 275 363 275 423 q 442 157 275 157 q 550 179 495 157 q 668 252 604 202 l 625 29 q 404 -20 519 -20 z "},"ċ":{"ha":836,"x_min":85,"x_max":768,"o":"m 459 913 q 441 936 437 913 l 467 1062 q 488 1080 469 1080 l 632 1080 q 650 1058 655 1080 l 626 932 q 604 913 623 913 l 459 913 m 412 -20 q 172 63 259 -20 q 85 310 85 146 q 141 548 85 442 q 300 716 198 654 q 539 778 403 778 q 659 764 601 778 q 768 721 716 750 l 732 539 q 546 616 650 616 q 410 578 469 616 q 318 472 351 539 q 286 320 286 406 q 326 185 286 228 q 448 142 366 142 q 551 158 498 142 q 669 212 604 175 l 631 25 q 412 -20 526 -20 z "},"Č":{"ha":836,"x_min":71,"x_max":838,"o":"m 344 1257 l 459 1257 l 560 1147 l 715 1257 l 838 1257 l 673 1078 l 437 1078 l 344 1257 m 406 -20 q 266 3 331 -20 q 157 73 201 25 q 91 193 111 122 q 71 351 71 263 q 83 494 71 420 q 119 643 95 569 q 249 879 168 787 q 319 944 281 916 q 403 992 357 972 q 496 1021 448 1012 q 596 1031 545 1031 q 704 1019 650 1031 q 753 1004 726 1013 q 809 982 781 996 l 766 760 q 683 829 732 806 q 630 847 658 841 q 578 852 603 852 q 523 845 551 852 q 467 821 494 838 q 417 778 439 803 q 378 728 395 753 q 303 555 332 656 q 281 453 288 500 q 274 364 274 405 q 284 277 274 316 q 317 209 294 237 q 441 157 359 157 q 549 180 495 157 q 607 210 578 192 q 667 252 636 228 l 624 29 q 570 7 597 16 q 517 -7 543 -2 q 406 -20 463 -20 z "},"č":{"ha":836,"x_min":85,"x_max":834,"o":"m 322 1135 l 440 1135 l 544 981 l 705 1135 l 834 1135 l 610 880 l 446 880 l 322 1135 m 414 -20 q 281 0 343 -20 q 172 64 218 19 q 105 170 125 109 q 85 304 85 231 q 117 490 85 399 q 209 644 149 580 q 534 778 333 778 q 600 774 568 778 q 659 764 633 770 q 768 721 715 751 l 732 539 q 644 597 690 578 q 545 616 600 616 q 438 594 485 616 q 358 533 391 572 q 303 435 321 490 q 286 316 286 379 q 327 184 286 226 q 451 142 369 142 q 554 159 499 142 q 607 180 579 168 q 669 212 635 193 l 631 25 q 578 5 605 14 q 524 -9 551 -3 q 414 -20 469 -20 z "},"Ď":{"ha":836,"x_min":-5,"x_max":790,"o":"m 260 1257 l 375 1257 l 476 1147 l 631 1257 l 754 1257 l 589 1078 l 353 1078 l 260 1257 m 192 1013 l 406 1013 q 695 929 600 1013 q 790 674 790 845 q 781 552 790 621 q 753 408 772 484 q 691 230 726 298 q 608 117 656 163 q 455 27 545 54 q 218 0 366 0 l -5 0 l 192 1013 m 294 180 q 422 210 372 180 q 504 300 473 239 q 544 403 526 341 q 572 530 562 465 q 583 648 583 595 q 542 788 583 743 q 411 832 501 832 l 355 832 l 229 180 l 294 180 z "},"ď":{"ha":836,"x_min":45,"x_max":1122,"o":"m 259 -20 q 102 55 160 -20 q 45 267 45 129 q 67 440 45 353 q 125 592 90 526 q 244 732 175 684 q 393 779 313 779 q 520 735 471 779 q 579 618 570 690 l 664 1055 l 863 1055 l 657 0 l 479 0 l 481 113 q 259 -20 391 -20 m 904 1055 l 1122 1055 l 947 800 l 814 800 l 904 1055 m 348 143 q 449 189 405 143 q 517 306 492 235 q 542 452 542 377 q 512 576 542 536 q 433 616 481 616 q 356 589 391 616 q 297 514 321 561 q 259 412 272 468 q 245 300 245 357 q 273 181 245 218 q 348 143 301 143 z "},"Đ":{"ha":836,"x_min":-11,"x_max":790,"o":"m 82 450 l -11 450 l 21 611 l 113 611 l 192 1013 l 406 1013 q 695 929 600 1013 q 790 674 790 845 q 781 552 790 621 q 753 408 772 484 q 691 230 726 298 q 608 117 656 163 q 455 27 545 54 q 218 0 366 0 l -5 0 l 82 450 m 294 180 q 422 210 372 180 q 504 300 473 239 q 544 403 526 341 q 572 530 562 465 q 583 648 583 595 q 542 788 583 743 q 411 832 501 832 l 355 832 l 313 611 l 456 611 l 425 450 l 282 450 l 229 180 l 294 180 z "},"đ":{"ha":836,"x_min":45,"x_max":946,"o":"m 259 -20 q 103 55 161 -20 q 59 143 74 92 q 45 262 45 193 q 55 374 45 315 q 83 491 65 434 q 125 593 101 548 q 243 730 170 678 q 394 779 313 779 q 519 736 469 779 q 558 687 543 717 q 579 618 574 657 l 624 848 l 418 848 l 443 977 l 648 977 l 664 1055 l 863 1055 l 847 977 l 946 977 l 921 848 l 822 848 l 657 0 l 479 0 l 481 113 q 380 14 436 47 q 259 -20 324 -20 m 351 143 q 423 166 388 140 q 485 238 458 192 q 528 341 513 284 q 542 457 544 399 q 534 529 542 502 q 511 576 526 557 q 430 616 481 616 q 300 521 354 616 q 259 414 273 472 q 245 296 245 355 q 253 226 245 252 q 274 181 260 200 q 351 143 302 143 z "},"Ē":{"ha":836,"x_min":20,"x_max":847,"o":"m 366 1255 l 794 1255 l 770 1127 l 342 1127 l 366 1255 m 215 1013 l 847 1013 l 812 836 l 382 836 l 339 618 l 729 618 l 696 441 l 306 441 l 254 176 l 685 176 l 650 0 l 20 0 l 215 1013 z "},"ē":{"ha":836,"x_min":52,"x_max":783,"o":"m 317 1042 l 745 1042 l 720 915 l 292 915 l 317 1042 m 397 -20 q 52 298 52 -20 q 81 479 52 391 q 165 636 110 568 q 472 779 283 779 q 635 742 566 779 q 744 638 705 705 q 783 480 783 571 q 779 412 783 452 q 765 315 774 372 l 250 315 q 245 273 247 294 q 427 138 245 138 q 572 158 499 138 q 708 220 644 179 l 673 37 q 397 -20 543 -20 m 594 464 q 599 501 599 481 q 564 591 599 558 q 467 624 530 624 q 278 464 332 624 l 594 464 z "},"Ĕ":{"ha":836,"x_min":20,"x_max":847,"o":"m 547 1090 q 404 1137 454 1090 q 353 1267 353 1183 l 353 1270 l 450 1270 q 485 1211 457 1229 q 564 1192 512 1192 q 650 1213 614 1192 q 702 1270 686 1234 l 806 1270 q 712 1137 779 1182 q 547 1090 644 1090 m 215 1013 l 847 1013 l 812 836 l 382 836 l 339 618 l 729 618 l 696 441 l 306 441 l 254 176 l 685 176 l 650 0 l 20 0 l 215 1013 z "},"ĕ":{"ha":836,"x_min":52,"x_max":783,"o":"m 508 882 q 359 927 410 882 q 322 980 336 948 q 309 1061 309 1013 l 309 1084 l 407 1084 l 407 1075 q 437 1009 407 1034 q 518 985 467 985 q 613 1011 574 985 q 669 1084 650 1035 l 766 1084 q 680 935 747 988 q 508 882 612 882 m 395 -20 q 139 60 225 -20 q 52 297 52 141 q 81 481 52 389 q 165 636 112 570 q 301 743 224 707 q 471 779 380 779 q 598 759 540 779 q 699 698 656 739 q 761 606 738 660 q 783 484 783 553 q 782 450 783 470 q 779 412 781 429 q 774 371 778 398 q 765 315 770 343 l 250 315 q 249 304 249 310 q 248 294 248 299 l 245 273 q 258 212 245 236 q 291 172 270 188 q 427 138 336 138 q 572 159 500 138 q 708 220 645 180 l 673 37 q 539 -5 609 9 q 395 -20 469 -20 m 594 464 q 598 483 597 473 q 599 492 599 488 q 599 500 599 496 q 564 591 599 557 q 469 624 531 624 q 278 464 332 624 l 594 464 z "},"Ė":{"ha":836,"x_min":20,"x_max":847,"o":"m 481 1089 q 463 1112 458 1089 l 488 1238 q 509 1256 491 1256 l 655 1256 q 673 1234 678 1256 l 648 1107 q 627 1089 646 1089 l 481 1089 m 215 1013 l 847 1013 l 812 836 l 382 836 l 339 618 l 729 618 l 696 441 l 306 441 l 254 176 l 685 176 l 650 0 l 20 0 l 215 1013 z "},"ė":{"ha":836,"x_min":52,"x_max":783,"o":"m 431 915 q 414 937 409 915 l 439 1063 q 460 1082 442 1082 l 604 1082 q 623 1059 627 1082 l 598 933 q 576 915 595 915 l 431 915 m 397 -20 q 52 298 52 -20 q 81 479 52 391 q 165 636 110 568 q 472 779 283 779 q 635 742 566 779 q 744 638 705 705 q 783 480 783 571 q 779 412 783 452 q 765 315 774 372 l 250 315 q 245 273 247 294 q 427 138 245 138 q 572 158 499 138 q 708 220 644 179 l 673 37 q 397 -20 543 -20 m 594 464 q 599 501 599 481 q 564 591 599 558 q 467 624 530 624 q 278 464 332 624 l 594 464 z "},"Ę":{"ha":836,"x_min":20,"x_max":847,"o":"m 382 836 l 339 618 l 729 618 l 696 441 l 306 441 l 254 176 l 685 176 l 650 0 l 562 0 q 494 -79 511 -54 q 478 -123 478 -104 q 494 -158 478 -143 q 546 -172 511 -172 q 592 -168 564 -172 q 652 -151 620 -163 l 631 -257 q 566 -268 597 -264 q 509 -272 535 -272 q 400 -247 439 -272 q 360 -173 360 -221 q 386 -92 360 -136 q 466 0 411 -48 l 20 0 l 215 1013 l 847 1013 l 812 836 l 382 836 z "},"ę":{"ha":836,"x_min":52,"x_max":783,"o":"m 250 315 q 245 273 247 294 q 427 138 245 138 q 572 158 499 138 q 708 220 644 179 l 673 37 q 618 16 646 26 q 562 0 591 7 q 495 -79 511 -54 q 479 -123 479 -104 q 495 -158 479 -143 q 547 -172 511 -172 q 593 -168 565 -172 q 652 -151 621 -163 l 631 -257 q 567 -268 598 -264 q 510 -272 536 -272 q 400 -247 440 -272 q 361 -173 361 -221 q 381 -100 361 -140 q 447 -18 402 -61 q 397 -20 422 -20 q 52 298 52 -20 q 81 479 52 391 q 165 636 110 568 q 472 779 283 779 q 635 742 566 779 q 744 638 705 705 q 783 480 783 571 q 779 412 783 452 q 765 315 774 372 l 250 315 m 467 624 q 278 464 332 624 l 594 464 q 599 501 599 481 q 564 591 599 558 q 467 624 530 624 z "},"Ě":{"ha":836,"x_min":20,"x_max":847,"o":"m 345 1256 l 460 1256 l 562 1146 l 717 1256 l 840 1256 l 674 1077 l 438 1077 l 345 1256 m 215 1013 l 847 1013 l 812 836 l 382 836 l 339 618 l 729 618 l 696 441 l 306 441 l 254 176 l 685 176 l 650 0 l 20 0 l 215 1013 z "},"ě":{"ha":836,"x_min":52,"x_max":790,"o":"m 278 1135 l 396 1135 l 500 981 l 661 1135 l 790 1135 l 566 880 l 401 880 l 278 1135 m 397 -20 q 52 298 52 -20 q 81 479 52 391 q 165 636 110 568 q 472 779 283 779 q 635 742 566 779 q 744 638 705 705 q 783 480 783 571 q 779 412 783 452 q 765 315 774 372 l 250 315 q 245 273 247 294 q 427 138 245 138 q 572 158 499 138 q 708 220 644 179 l 673 37 q 397 -20 543 -20 m 594 464 q 599 501 599 481 q 564 591 599 558 q 467 624 530 624 q 278 464 332 624 l 594 464 z "},"Ĝ":{"ha":836,"x_min":64,"x_max":878,"o":"m 552 1256 l 762 1256 l 878 1077 l 758 1077 l 644 1186 l 488 1077 l 368 1077 l 552 1256 m 64 334 q 83 507 64 412 q 187 793 116 675 q 602 1031 331 1031 q 823 964 730 1031 l 780 742 q 585 851 717 851 q 397 766 470 851 q 291 507 325 682 q 275 365 275 419 q 437 160 275 160 q 492 166 471 160 q 532 183 515 172 l 570 376 l 433 376 l 465 545 l 777 545 l 687 81 q 390 -20 551 -20 q 148 72 231 -20 q 64 334 64 163 z "},"ĝ":{"ha":836,"x_min":12,"x_max":806,"o":"m 491 1135 l 654 1135 l 779 880 l 658 880 l 553 1032 l 389 880 l 268 880 l 491 1135 m 12 -250 l 47 -68 q 153 -113 97 -97 q 267 -129 209 -129 q 401 -90 355 -129 q 466 35 450 -50 l 482 117 q 267 9 402 9 q 102 77 161 9 q 44 268 44 145 q 57 389 44 330 q 131 594 79 507 q 256 731 182 682 q 413 779 330 779 q 525 749 479 779 q 588 663 570 718 l 627 760 l 806 760 l 669 57 q 595 -140 646 -64 q 251 -288 495 -288 q 12 -250 126 -288 m 446 206 q 535 391 514 275 q 543 470 543 434 q 516 577 543 538 q 439 616 488 616 q 361 589 398 616 q 296 510 324 561 q 260 412 273 465 q 248 313 248 358 q 250 273 248 285 q 351 167 266 167 q 446 206 408 167 z "},"Ğ":{"ha":836,"x_min":69,"x_max":808,"o":"m 547 1077 q 404 1123 454 1077 q 353 1253 353 1169 l 353 1256 l 450 1256 q 485 1197 457 1215 q 564 1178 512 1178 q 650 1199 614 1178 q 702 1256 686 1220 l 806 1256 q 712 1123 779 1168 q 547 1077 644 1077 m 414 -20 q 265 6 328 -20 q 159 78 202 32 q 91 201 112 130 q 69 358 69 272 q 81 497 69 423 q 118 644 93 570 q 173 768 140 707 q 249 878 205 828 q 318 942 279 912 q 404 992 356 971 q 594 1031 492 1031 q 703 1019 650 1031 q 753 1004 725 1013 q 808 982 781 996 l 764 760 q 682 829 729 806 q 581 852 633 852 q 532 847 555 852 q 489 833 509 842 q 449 809 469 823 q 410 774 430 795 q 382 739 395 757 q 359 699 370 720 q 338 656 348 680 q 318 604 328 633 q 285 476 296 539 q 273 361 273 410 q 286 269 273 306 q 317 210 298 232 q 371 169 340 181 q 439 157 403 157 q 485 163 465 157 q 503 168 493 165 q 522 179 512 172 l 561 376 l 421 376 l 454 545 l 766 545 l 672 64 q 558 2 624 24 q 414 -20 490 -20 z "},"ğ":{"ha":836,"x_min":12,"x_max":807,"o":"m 508 882 q 359 927 410 882 q 322 980 336 948 q 309 1061 309 1013 l 309 1084 l 407 1084 l 407 1075 q 437 1009 407 1034 q 518 985 467 985 q 613 1011 574 985 q 669 1084 650 1035 l 766 1084 q 680 935 747 988 q 508 882 612 882 m 262 -288 q 133 -277 195 -288 q 12 -248 69 -266 l 49 -68 q 156 -114 99 -98 q 269 -129 212 -129 q 404 -90 356 -129 q 444 -37 430 -68 q 467 35 458 -6 l 485 125 q 396 40 448 68 q 277 11 345 11 q 184 28 226 11 q 109 82 142 45 q 46 276 46 153 q 75 463 46 366 q 110 556 90 515 q 153 632 130 598 q 269 741 201 702 q 408 781 336 781 q 525 743 479 781 q 585 636 570 706 l 628 760 l 807 760 l 669 57 q 621 -101 652 -35 q 540 -210 589 -168 q 262 -288 448 -288 m 353 167 q 488 257 431 167 q 531 358 517 303 q 545 467 545 414 q 538 531 545 502 q 517 580 532 559 q 440 616 490 616 q 305 527 361 616 q 263 426 277 482 q 249 315 249 370 q 255 252 249 281 q 276 204 261 224 q 353 167 303 167 z "},"Ġ":{"ha":836,"x_min":69,"x_max":808,"o":"m 500 1090 q 482 1112 477 1090 l 507 1238 q 529 1257 510 1257 l 675 1257 q 693 1234 698 1257 l 668 1108 q 646 1090 665 1090 l 500 1090 m 414 -20 q 159 78 250 -20 q 69 361 69 176 q 91 549 69 454 q 154 730 113 644 q 249 878 194 815 q 593 1031 385 1031 q 703 1019 650 1031 q 808 982 755 1006 l 764 760 q 581 852 692 852 q 490 833 534 852 q 410 774 446 814 q 358 698 380 741 q 318 604 336 655 q 286 481 298 547 q 273 361 273 415 q 316 210 273 262 q 437 157 359 157 q 522 179 488 157 l 561 376 l 421 376 l 454 545 l 766 545 l 672 64 q 558 2 625 23 q 414 -20 492 -20 z "},"ġ":{"ha":836,"x_min":12,"x_max":807,"o":"m 439 916 q 421 939 416 916 l 446 1065 q 468 1083 449 1083 l 612 1083 q 630 1061 635 1083 l 606 935 q 584 916 602 916 l 439 916 m 264 -288 q 133 -277 194 -288 q 12 -248 72 -267 l 49 -68 q 268 -129 151 -129 q 404 -89 357 -129 q 467 35 450 -49 l 485 125 q 394 39 447 66 q 277 11 342 11 q 109 81 172 11 q 46 279 46 152 q 60 402 46 338 q 97 526 73 466 q 153 632 121 586 q 269 742 201 703 q 409 781 336 781 q 525 743 479 781 q 585 636 570 706 l 628 760 l 807 760 l 669 57 q 596 -144 645 -68 q 467 -254 548 -220 q 264 -288 386 -288 m 350 167 q 448 209 404 167 q 518 319 492 251 q 545 464 545 387 q 517 579 545 542 q 443 616 490 616 q 346 575 389 616 q 275 465 302 533 q 249 319 249 397 q 276 204 249 241 q 350 167 302 167 z "},"Ģ":{"ha":836,"x_min":69,"x_max":808,"o":"m 414 -20 q 159 78 250 -20 q 69 361 69 176 q 91 549 69 454 q 154 730 113 644 q 249 878 194 815 q 593 1031 385 1031 q 703 1019 650 1031 q 808 982 755 1006 l 764 760 q 581 852 692 852 q 490 833 534 852 q 410 774 446 814 q 358 698 380 741 q 318 604 336 655 q 286 481 298 547 q 273 361 273 415 q 316 210 273 262 q 437 157 359 157 q 522 179 488 157 l 561 376 l 421 376 l 454 545 l 766 545 l 672 64 q 558 2 625 23 q 414 -20 492 -20 m 332 -127 l 524 -127 l 363 -334 l 232 -334 l 332 -127 z "},"ģ":{"ha":836,"x_min":12,"x_max":807,"o":"m 516 1071 l 648 1071 l 547 863 l 356 863 l 516 1071 m 264 -288 q 133 -277 194 -288 q 12 -248 72 -267 l 49 -68 q 268 -129 151 -129 q 404 -89 357 -129 q 467 35 450 -49 l 485 125 q 394 39 447 66 q 277 11 342 11 q 109 81 172 11 q 46 279 46 152 q 60 402 46 338 q 97 526 73 466 q 153 632 121 586 q 269 742 201 703 q 409 781 336 781 q 525 743 479 781 q 585 636 570 706 l 628 760 l 807 760 l 669 57 q 596 -144 645 -68 q 467 -254 548 -220 q 264 -288 386 -288 m 350 167 q 448 209 404 167 q 518 319 492 251 q 545 464 545 387 q 517 579 545 542 q 443 616 490 616 q 346 575 389 616 q 275 465 302 533 q 249 319 249 397 q 276 204 249 241 q 350 167 302 167 z "},"Ĥ":{"ha":836,"x_min":-5,"x_max":842,"o":"m 458 1256 l 668 1256 l 785 1077 l 664 1077 l 550 1186 l 395 1077 l 274 1077 l 458 1256 m 191 1013 l 391 1013 l 317 627 l 567 627 l 642 1013 l 842 1013 l 645 0 l 445 0 l 532 450 l 282 450 l 195 0 l -5 0 l 191 1013 z "},"ĥ":{"ha":836,"x_min":40,"x_max":880,"o":"m 553 1290 l 763 1290 l 880 1111 l 759 1111 l 645 1220 l 490 1111 l 369 1111 l 553 1290 m 245 1055 l 443 1055 l 363 646 q 454 743 397 709 q 584 778 511 778 q 756 595 756 778 q 745 493 756 543 l 650 0 l 452 0 l 543 463 q 551 532 551 503 q 532 595 551 576 q 473 615 513 615 q 378 568 418 615 q 322 435 338 520 l 237 0 l 40 0 l 245 1055 z "},"Ħ":{"ha":836,"x_min":-5,"x_max":903,"o":"m 140 749 l 50 749 l 71 861 l 162 861 l 191 1013 l 391 1013 l 362 861 l 612 861 l 642 1013 l 841 1013 l 812 861 l 903 861 l 882 749 l 790 749 l 644 0 l 445 0 l 532 450 l 282 450 l 195 0 l -5 0 l 140 749 m 567 627 l 591 749 l 340 749 l 317 627 l 567 627 z "},"ħ":{"ha":836,"x_min":14,"x_max":732,"o":"m 182 861 l 73 861 l 95 972 l 203 972 l 219 1055 l 416 1055 l 401 972 l 589 972 l 567 861 l 379 861 l 337 646 q 428 744 372 711 q 555 778 484 778 q 686 731 640 778 q 732 595 732 684 q 730 555 732 578 q 720 493 727 532 l 624 0 l 427 0 l 516 463 q 524 509 522 494 q 525 532 525 524 q 451 623 525 623 q 296 435 332 623 l 212 0 l 14 0 l 182 861 z "},"Ĩ":{"ha":836,"x_min":18,"x_max":818,"o":"m 290 1077 q 352 1211 307 1165 q 461 1257 397 1257 q 554 1223 509 1257 l 590 1195 q 637 1177 612 1177 q 705 1257 690 1177 l 798 1257 q 738 1125 781 1173 q 627 1077 695 1077 q 582 1084 604 1077 q 534 1112 560 1092 l 501 1137 q 473 1154 484 1149 q 452 1158 462 1158 q 383 1077 399 1158 l 290 1077 m 53 176 l 254 176 l 382 836 l 180 836 l 215 1013 l 818 1013 l 783 836 l 582 836 l 454 176 l 656 176 l 621 0 l 18 0 l 53 176 z "},"ĩ":{"ha":836,"x_min":173,"x_max":725,"o":"m 545 861 q 450 900 500 861 l 417 925 q 414 928 415 927 q 364 950 385 950 q 323 927 341 950 q 299 863 306 903 l 205 863 q 263 1003 217 951 q 374 1055 310 1055 q 418 1047 397 1055 q 470 1014 439 1038 l 505 987 q 552 966 530 966 q 620 1054 606 966 l 714 1054 q 545 861 682 861 m 493 -5 q 296 33 353 -5 q 252 85 264 54 q 239 155 239 116 q 240 177 239 167 q 242 198 241 186 q 246 221 243 206 q 252 252 248 235 l 333 607 l 173 607 l 202 760 l 560 760 l 448 242 q 444 225 444 226 q 444 218 445 224 q 442 208 442 212 q 441 200 441 204 q 463 160 441 174 q 536 147 484 147 l 725 147 l 694 -5 l 493 -5 z "},"Ī":{"ha":836,"x_min":18,"x_max":818,"o":"m 352 1255 l 780 1255 l 755 1127 l 328 1127 l 352 1255 m 53 176 l 254 176 l 382 836 l 180 836 l 215 1013 l 818 1013 l 783 836 l 582 836 l 454 176 l 656 176 l 621 0 l 18 0 l 53 176 z "},"ī":{"ha":836,"x_min":166,"x_max":718,"o":"m 249 1023 l 677 1023 l 652 895 l 224 895 l 249 1023 m 486 -5 q 290 33 346 -5 q 245 85 258 54 q 232 155 232 116 q 233 177 232 167 q 235 198 234 186 q 245 252 239 225 l 326 607 l 166 607 l 195 760 l 553 760 l 441 242 q 437 225 437 226 q 437 218 438 224 q 435 208 435 212 q 435 200 435 204 q 456 160 435 174 q 530 147 477 147 l 718 147 l 688 -5 l 486 -5 z "},"Ĭ":{"ha":836,"x_min":18,"x_max":818,"o":"m 526 1090 q 382 1137 432 1090 q 332 1267 332 1183 l 332 1270 l 429 1270 q 463 1211 435 1229 q 543 1192 492 1192 q 629 1213 593 1192 q 680 1270 665 1234 l 785 1270 q 690 1137 758 1182 q 526 1090 622 1090 m 53 176 l 254 176 l 382 836 l 180 836 l 215 1013 l 818 1013 l 783 836 l 582 836 l 454 176 l 656 176 l 621 0 l 18 0 l 53 176 z "},"ĭ":{"ha":836,"x_min":176,"x_max":748,"o":"m 488 880 q 291 1059 291 880 l 291 1081 l 389 1081 l 389 1072 q 418 1006 389 1031 q 501 982 448 982 q 594 1008 555 982 q 651 1081 634 1034 l 748 1081 q 663 933 728 987 q 488 880 597 880 m 496 -5 q 300 33 356 -5 q 255 85 268 54 q 242 155 242 116 q 243 177 242 167 q 245 198 244 186 q 255 252 249 225 l 336 607 l 176 607 l 205 760 l 564 760 l 451 242 q 448 225 447 226 q 447 218 448 224 q 445 208 446 212 q 445 200 445 204 q 466 160 445 174 q 540 147 487 147 l 728 147 l 698 -5 l 496 -5 z "},"Į":{"ha":836,"x_min":18,"x_max":818,"o":"m 582 836 l 454 176 l 656 176 l 621 0 l 419 0 q 352 -79 368 -54 q 336 -123 336 -104 q 352 -158 336 -143 q 404 -172 368 -172 q 450 -168 422 -172 q 509 -151 477 -163 l 488 -257 q 424 -268 455 -264 q 367 -272 393 -272 q 257 -247 297 -272 q 218 -173 218 -221 q 243 -92 218 -136 q 323 0 269 -48 l 18 0 l 53 176 l 254 176 l 382 836 l 180 836 l 215 1013 l 818 1013 l 783 836 l 582 836 z "},"į":{"ha":836,"x_min":166,"x_max":718,"o":"m 369 897 q 351 920 346 897 l 389 1111 q 410 1129 392 1129 l 568 1129 q 587 1107 591 1129 l 549 916 q 527 897 545 897 l 369 897 m 558 -5 q 497 -78 514 -52 q 481 -122 481 -103 q 497 -156 481 -142 q 549 -171 513 -171 q 595 -166 567 -171 q 654 -150 623 -161 l 633 -256 q 569 -267 600 -263 q 512 -271 538 -271 q 402 -245 442 -271 q 363 -172 363 -220 q 387 -94 363 -136 q 461 -5 410 -52 q 290 33 341 -1 q 245 85 258 54 q 232 155 232 116 q 233 177 232 167 q 235 198 234 186 q 239 221 237 206 q 245 252 241 235 l 326 607 l 166 607 l 195 760 l 553 760 l 441 242 q 437 225 437 226 q 437 218 438 224 q 435 208 435 212 q 435 200 435 204 q 456 160 435 174 q 530 147 477 147 l 718 147 l 688 -5 l 558 -5 z "},"İ":{"ha":836,"x_min":18,"x_max":818,"o":"m 457 1090 q 439 1112 434 1090 l 463 1238 q 485 1257 467 1257 l 630 1257 q 648 1234 653 1257 l 624 1108 q 602 1090 621 1090 l 457 1090 m 53 176 l 254 176 l 382 836 l 180 836 l 215 1013 l 818 1013 l 783 836 l 582 836 l 454 176 l 656 176 l 621 0 l 18 0 l 53 176 z "},"ı":{"ha":836,"x_min":176,"x_max":728,"o":"m 496 -5 q 300 33 356 -5 q 255 85 268 54 q 242 155 242 116 q 243 177 242 167 q 245 198 244 186 q 255 252 249 225 l 336 607 l 176 607 l 205 760 l 564 760 l 451 242 q 448 225 447 226 q 447 218 448 224 q 445 208 446 212 q 445 200 445 204 q 466 160 445 174 q 540 147 487 147 l 728 147 l 698 -5 l 496 -5 z "},"Ĳ":{"ha":836,"x_min":18,"x_max":867,"o":"m 56 200 l 310 200 q 416 227 364 200 q 503 300 467 254 q 549 400 538 346 l 668 1013 l 867 1013 l 749 400 q 656 200 728 292 q 482 54 585 107 q 271 0 379 0 l 18 0 l 56 200 m 214 1013 l 414 1013 l 295 400 l 95 400 l 214 1013 z "},"ĳ":{"ha":836,"x_min":12,"x_max":884,"o":"m 180 864 q 180 870 180 869 l 218 1061 q 242 1082 222 1082 l 400 1082 q 417 1067 417 1082 q 416 1061 417 1062 l 379 870 q 355 850 375 850 l 197 850 q 180 864 180 850 m 646 864 q 647 870 646 869 l 684 1061 q 709 1082 688 1082 l 867 1082 q 884 1067 884 1082 q 883 1061 884 1062 l 846 870 q 821 850 842 850 l 663 850 q 646 864 646 850 m 159 760 l 357 760 l 210 0 l 12 0 l 159 760 m 193 -89 l 371 -89 q 439 -63 409 -89 q 477 0 470 -37 l 625 760 l 825 760 l 677 0 q 610 -144 662 -79 q 484 -250 558 -212 q 332 -289 410 -289 l 154 -289 l 193 -89 z "},"Ĵ":{"ha":836,"x_min":-15,"x_max":947,"o":"m 621 1256 l 830 1256 l 947 1077 l 826 1077 l 712 1186 l 557 1077 l 436 1077 l 621 1256 m 117 -2 q -15 50 52 15 l 30 282 q 135 192 73 224 q 264 160 196 160 q 387 200 342 160 q 448 325 431 239 l 547 836 l 302 836 l 336 1013 l 781 1013 l 648 325 q 519 60 612 140 q 253 -20 427 -20 q 189 -16 220 -20 q 117 -2 158 -12 z "},"ĵ":{"ha":836,"x_min":-16,"x_max":833,"o":"m 545 1135 l 709 1135 l 833 880 l 712 880 l 607 1032 l 443 880 l 322 880 l 545 1135 m 14 -135 l 172 -135 q 275 -98 240 -135 q 327 29 309 -62 l 439 607 l 237 607 l 267 760 l 667 760 l 526 29 q 463 -155 503 -84 q 358 -256 422 -224 q 199 -288 294 -288 l -16 -288 l 14 -135 z "},"Ķ":{"ha":836,"x_min":-12,"x_max":928,"o":"m 183 1013 l 383 1013 l 310 635 l 692 1013 l 928 1013 l 517 603 l 746 0 l 541 0 l 368 454 l 252 339 l 187 0 l -12 0 l 183 1013 m 286 -107 l 477 -107 l 317 -315 l 185 -315 l 286 -107 z "},"ķ":{"ha":836,"x_min":42,"x_max":867,"o":"m 246 1055 l 445 1055 l 342 525 l 616 760 l 867 760 l 524 476 l 736 0 l 526 0 l 375 355 l 296 290 l 241 0 l 42 0 l 246 1055 m 308 -107 l 499 -107 l 339 -315 l 208 -315 l 308 -107 z "},"ĸ":{"ha":836,"x_min":44,"x_max":870,"o":"m 192 760 l 391 760 l 340 501 l 629 760 l 870 760 l 528 476 l 739 0 l 519 0 l 380 355 l 299 290 l 243 0 l 44 0 l 192 760 z "},"Ĺ":{"ha":836,"x_min":54,"x_max":772,"o":"m 582 1257 l 772 1257 l 555 1078 l 415 1078 l 582 1257 m 252 1013 l 452 1013 l 289 176 l 717 176 l 682 0 l 54 0 l 252 1013 z "},"ĺ":{"ha":836,"x_min":157,"x_max":770,"o":"m 580 1289 l 770 1289 l 553 1110 l 413 1110 l 580 1289 m 468 -7 q 273 31 332 -7 q 214 151 214 68 q 227 250 214 188 l 364 903 l 157 903 l 186 1055 l 591 1055 l 422 241 q 416 196 416 210 q 441 157 416 168 q 511 146 465 146 l 700 146 l 669 -7 l 468 -7 z "},"Ļ":{"ha":836,"x_min":54,"x_max":717,"o":"m 252 1013 l 452 1013 l 289 176 l 717 176 l 682 0 l 54 0 l 252 1013 m 287 -107 l 478 -107 l 318 -315 l 186 -315 l 287 -107 z "},"ļ":{"ha":836,"x_min":142,"x_max":700,"o":"m 468 -7 q 273 31 332 -7 q 214 151 214 68 q 227 250 214 188 l 364 903 l 157 903 l 186 1055 l 591 1055 l 422 241 q 416 196 416 210 q 441 157 416 168 q 511 146 465 146 l 700 146 l 669 -7 l 468 -7 m 243 -104 l 434 -104 l 274 -311 l 142 -311 l 243 -104 z "},"Ľ":{"ha":836,"x_min":54,"x_max":833,"o":"m 252 1013 l 452 1013 l 289 176 l 717 176 l 682 0 l 54 0 l 252 1013 m 616 1012 l 833 1012 l 659 757 l 526 757 l 616 1012 z "},"ľ":{"ha":836,"x_min":157,"x_max":889,"o":"m 468 -7 q 273 31 332 -7 q 214 151 214 68 q 227 250 214 188 l 364 903 l 157 903 l 186 1055 l 591 1055 l 422 241 q 416 196 416 210 q 441 157 416 168 q 511 146 465 146 l 700 146 l 669 -7 l 468 -7 m 671 1055 l 889 1055 l 715 800 l 581 800 l 671 1055 z "},"Ŀ":{"ha":836,"x_min":54,"x_max":717,"o":"m 251 1013 l 451 1013 l 289 176 l 717 176 l 682 0 l 54 0 l 251 1013 m 465 465 l 490 591 q 514 612 494 612 l 660 612 q 677 597 677 612 q 677 591 677 592 l 652 465 q 628 445 648 445 l 482 445 q 465 465 463 445 z "},"ŀ":{"ha":836,"x_min":129,"x_max":750,"o":"m 201 186 q 215 311 201 239 l 330 903 l 129 903 l 159 1055 l 559 1055 l 414 311 q 406 239 406 270 q 429 169 406 191 q 504 147 452 147 l 663 147 l 633 -5 l 419 -5 q 253 40 305 -5 q 201 186 201 85 m 538 465 l 563 591 q 587 612 567 612 l 732 612 q 750 597 750 612 q 749 591 750 592 l 724 465 q 701 445 722 445 l 555 445 q 538 465 534 445 z "},"Ł":{"ha":836,"x_min":-47,"x_max":717,"o":"m 119 340 l 31 273 l -47 378 l 155 521 l 252 1013 l 452 1013 l 387 686 l 557 804 l 635 700 l 351 500 l 289 176 l 717 176 l 682 0 l 54 0 l 119 340 z "},"ł":{"ha":836,"x_min":33,"x_max":814,"o":"m 488 -7 q 291 31 349 -7 q 233 154 233 68 q 236 197 233 175 q 245 250 239 220 l 281 427 l 94 294 l 33 393 l 317 586 l 383 903 l 176 903 l 205 1055 l 611 1055 l 547 741 l 744 878 l 814 785 l 513 581 l 441 240 q 438 226 438 228 q 438 222 438 224 q 437 212 438 221 q 436 195 436 202 q 456 158 441 169 q 530 146 472 148 l 720 146 l 689 -7 l 488 -7 z "},"Ń":{"ha":836,"x_min":-17,"x_max":851,"o":"m 602 1257 l 792 1257 l 575 1078 l 435 1078 l 602 1257 m 180 1013 l 386 1013 l 532 277 l 675 1013 l 851 1013 l 656 0 l 457 0 l 304 736 l 161 0 l -17 0 l 180 1013 z "},"ń":{"ha":836,"x_min":40,"x_max":815,"o":"m 597 1135 l 815 1135 l 515 880 l 382 880 l 597 1135 m 187 760 l 366 760 l 364 646 q 452 743 397 707 q 582 778 508 778 q 713 731 666 778 q 760 598 760 684 q 747 494 760 559 l 652 0 l 453 0 l 543 463 q 548 498 547 480 q 550 529 550 517 q 475 615 550 615 q 378 567 417 615 q 321 427 338 518 l 239 0 l 40 0 l 187 760 z "},"Ņ":{"ha":836,"x_min":-17,"x_max":851,"o":"m 180 1013 l 386 1013 l 532 277 l 675 1013 l 851 1013 l 656 0 l 457 0 l 304 736 l 161 0 l -17 0 l 180 1013 m 238 -107 l 429 -107 l 269 -315 l 138 -315 l 238 -107 z "},"ņ":{"ha":836,"x_min":40,"x_max":760,"o":"m 187 760 l 366 760 l 364 646 q 452 743 397 707 q 582 778 508 778 q 713 731 666 778 q 760 598 760 684 q 747 494 760 559 l 652 0 l 453 0 l 543 463 q 548 498 547 480 q 550 529 550 517 q 475 615 550 615 q 378 567 417 615 q 321 427 338 518 l 239 0 l 40 0 l 187 760 m 264 -107 l 456 -107 l 296 -315 l 164 -315 l 264 -107 z "},"Ň":{"ha":836,"x_min":-17,"x_max":851,"o":"m 330 1256 l 446 1256 l 547 1146 l 702 1256 l 825 1256 l 659 1077 l 423 1077 l 330 1256 m 180 1013 l 386 1013 l 532 277 l 675 1013 l 851 1013 l 656 0 l 457 0 l 304 736 l 161 0 l -17 0 l 180 1013 z "},"ň":{"ha":836,"x_min":40,"x_max":793,"o":"m 281 1135 l 399 1135 l 503 981 l 664 1135 l 793 1135 l 568 880 l 404 880 l 281 1135 m 187 760 l 366 760 l 364 646 q 452 743 397 707 q 582 778 508 778 q 713 731 666 778 q 760 598 760 684 q 747 494 760 559 l 652 0 l 453 0 l 543 463 q 548 498 547 480 q 550 529 550 517 q 475 615 550 615 q 378 567 417 615 q 321 427 338 518 l 239 0 l 40 0 l 187 760 z "},"ŉ":{"ha":836,"x_min":11,"x_max":869,"o":"m 127 872 l 163 1055 l 376 1055 l 340 872 l 157 612 l 11 612 l 127 872 m 300 760 l 477 760 l 475 646 q 566 743 509 709 q 696 778 623 778 q 869 594 869 778 q 858 493 869 543 l 762 0 l 564 0 l 654 463 q 663 534 663 505 q 654 581 663 564 q 587 616 638 616 q 491 568 532 616 q 434 435 452 521 l 349 0 l 152 0 l 300 760 z "},"Ŋ":{"ha":836,"x_min":-14,"x_max":819,"o":"m 303 -135 l 328 -135 q 431 -98 396 -135 q 484 30 466 -60 l 612 688 q 618 751 618 722 q 514 851 618 851 q 383 799 434 851 q 314 659 332 747 l 186 0 l -14 0 l 183 1013 l 363 1013 l 351 850 q 463 985 394 937 q 621 1032 532 1032 q 819 795 819 1032 q 802 639 819 726 l 685 39 q 620 -153 661 -81 q 514 -257 578 -225 q 355 -289 449 -289 l 273 -289 l 303 -135 z "},"ŋ":{"ha":836,"x_min":48,"x_max":764,"o":"m 284 -135 l 311 -135 q 413 -99 377 -135 q 466 29 448 -62 l 550 463 q 558 534 558 505 q 553 570 558 551 q 533 603 549 589 q 485 616 518 616 q 386 568 425 616 q 330 435 346 519 l 245 0 l 48 0 l 195 760 l 373 760 l 371 646 q 463 745 406 711 q 595 778 521 778 q 701 751 665 778 q 751 682 738 724 q 764 595 764 640 q 753 493 764 548 l 663 29 q 555 -215 631 -142 q 336 -288 479 -288 l 254 -288 l 284 -135 z "},"Ō":{"ha":836,"x_min":41,"x_max":794,"o":"m 345 1255 l 773 1255 l 749 1127 l 321 1127 l 345 1255 m 337 -20 q 117 66 193 -20 q 41 327 41 153 q 58 504 41 410 q 102 684 74 597 q 167 833 130 771 q 304 981 222 931 q 498 1031 387 1031 q 718 945 642 1031 q 794 686 794 860 q 780 517 794 609 q 737 336 765 425 q 671 179 709 247 q 532 31 615 81 q 337 -20 450 -20 m 358 158 q 432 182 401 158 q 488 253 463 206 q 549 427 522 316 q 577 567 566 495 q 589 694 589 640 q 478 854 589 854 q 404 830 434 854 q 349 759 373 806 q 317 687 333 730 q 286 584 302 645 q 257 427 266 503 q 248 311 248 351 q 275 198 248 238 q 358 158 302 158 z "},"ō":{"ha":836,"x_min":60,"x_max":777,"o":"m 311 1042 l 739 1042 l 714 915 l 286 915 l 311 1042 m 361 -20 q 141 63 222 -20 q 60 308 60 145 q 87 485 60 400 q 168 636 115 570 q 298 741 220 703 q 475 779 375 779 q 695 697 614 779 q 777 451 777 614 q 749 274 777 358 q 669 123 722 189 q 538 19 616 57 q 361 -20 461 -20 m 378 140 q 483 186 439 140 q 552 303 528 232 q 576 450 576 374 q 545 577 576 537 q 460 618 514 618 q 375 590 412 618 q 312 518 338 563 q 273 418 286 473 q 260 309 260 363 q 292 181 260 222 q 378 140 324 140 z "},"Ŏ":{"ha":836,"x_min":41,"x_max":795,"o":"m 536 1077 q 392 1123 442 1077 q 342 1253 342 1169 l 342 1256 l 439 1256 q 473 1197 446 1215 q 553 1178 502 1178 q 639 1199 603 1178 q 690 1256 675 1220 l 795 1256 q 701 1123 768 1168 q 536 1077 632 1077 m 339 -20 q 213 1 270 -20 q 117 66 157 22 q 59 175 77 111 q 41 323 41 239 q 50 451 41 382 q 75 590 58 520 q 116 724 93 664 q 167 833 140 785 q 223 913 191 876 q 303 980 256 951 q 396 1019 347 1006 q 496 1031 446 1031 q 623 1010 566 1031 q 718 946 679 989 q 778 832 761 899 q 794 688 794 766 q 786 563 794 631 q 761 422 779 496 q 723 293 745 355 q 670 179 701 232 q 533 31 614 81 q 339 -20 448 -20 m 356 158 q 431 182 397 158 q 489 253 465 207 q 505 288 498 269 q 520 328 513 306 q 535 374 529 353 q 549 427 541 396 q 566 505 559 470 q 578 574 573 541 q 589 692 589 641 q 562 814 589 774 q 480 854 534 854 q 438 848 457 854 q 406 831 420 841 q 347 760 373 807 q 331 726 338 743 q 318 690 325 709 q 303 640 309 661 q 288 583 297 620 q 271 510 279 548 q 258 438 263 473 q 248 319 248 370 q 275 198 248 237 q 356 158 302 158 z "},"ŏ":{"ha":836,"x_min":60,"x_max":777,"o":"m 508 882 q 359 927 410 882 q 322 980 336 948 q 309 1061 309 1013 l 309 1084 l 407 1084 l 407 1075 q 437 1009 407 1034 q 518 985 467 985 q 613 1011 574 985 q 669 1084 650 1035 l 766 1084 q 680 935 747 988 q 508 882 612 882 m 368 -20 q 234 3 291 -20 q 141 62 178 26 q 79 164 98 104 q 60 300 60 224 q 88 486 60 396 q 172 644 116 575 q 301 744 227 709 q 467 779 376 779 q 594 759 535 779 q 695 699 653 739 q 757 596 738 656 q 777 458 777 536 q 748 271 777 360 q 665 116 720 182 q 531 13 607 46 q 368 -20 456 -20 m 382 140 q 520 233 464 140 q 561 333 546 275 q 576 456 576 391 q 568 531 576 503 q 545 578 560 560 q 504 609 528 600 q 456 618 480 618 q 316 526 372 618 q 274 418 288 477 q 260 304 260 359 q 267 236 260 268 q 292 181 273 204 q 329 152 307 163 q 382 140 351 140 z "},"Ő":{"ha":836,"x_min":41,"x_max":913,"o":"m 466 1256 l 659 1256 l 430 1077 l 296 1077 l 466 1256 m 720 1256 l 913 1256 l 684 1077 l 551 1077 l 720 1256 m 337 -20 q 117 66 193 -20 q 41 327 41 153 q 58 504 41 410 q 102 684 74 597 q 167 833 130 771 q 304 981 222 931 q 498 1031 387 1031 q 718 945 642 1031 q 794 686 794 860 q 780 517 794 609 q 737 336 765 425 q 671 179 709 247 q 532 31 615 81 q 337 -20 450 -20 m 358 158 q 432 182 401 158 q 488 253 463 206 q 549 427 522 316 q 577 567 566 495 q 589 694 589 640 q 478 854 589 854 q 404 830 434 854 q 349 759 373 806 q 317 687 333 730 q 286 584 302 645 q 257 427 266 503 q 248 311 248 351 q 275 198 248 238 q 358 158 302 158 z "},"ő":{"ha":836,"x_min":60,"x_max":860,"o":"m 415 1135 l 582 1135 l 364 880 l 253 880 l 415 1135 m 684 1135 l 860 1135 l 625 880 l 509 880 l 684 1135 m 361 -20 q 141 63 222 -20 q 60 308 60 145 q 87 485 60 400 q 168 636 115 570 q 298 741 220 703 q 475 779 375 779 q 695 697 614 779 q 777 451 777 614 q 749 274 777 358 q 669 123 722 189 q 538 19 616 57 q 361 -20 461 -20 m 378 140 q 483 186 439 140 q 552 303 528 232 q 576 450 576 374 q 545 577 576 537 q 460 618 514 618 q 375 590 412 618 q 312 518 338 563 q 273 418 286 473 q 260 309 260 363 q 292 181 260 222 q 378 140 324 140 z "},"Œ":{"ha":836,"x_min":7,"x_max":903,"o":"m 321 0 q 173 16 231 0 q 79 62 115 32 q 25 143 43 92 q 7 273 7 193 q 18 410 7 330 q 48 576 29 490 q 94 734 68 662 q 148 855 117 802 q 227 946 178 908 q 322 997 270 981 q 438 1013 374 1013 l 903 1013 l 868 836 l 644 836 l 603 625 l 807 625 l 772 449 l 568 449 l 515 176 l 747 176 l 713 0 l 321 0 m 343 176 l 471 836 l 437 836 q 381 827 404 836 q 340 804 357 819 q 305 763 319 787 q 278 705 290 739 q 249 608 264 669 q 222 486 233 547 q 206 382 212 432 q 200 298 200 333 q 227 205 200 232 q 258 184 239 191 q 309 176 278 176 l 343 176 z "},"œ":{"ha":836,"x_min":-14,"x_max":856,"o":"m 201 -20 q 111 -6 152 -20 q 42 37 71 8 q 1 105 15 64 q -14 210 -14 147 q -8 299 -14 248 q 8 404 -3 350 q 67 597 31 517 q 112 675 87 642 q 172 732 137 709 q 329 778 241 778 q 492 696 441 778 q 571 757 524 735 q 673 778 616 778 q 809 731 762 778 q 856 595 856 684 q 854 555 856 578 q 850 516 852 533 q 843 468 848 496 q 833 411 839 439 l 818 325 l 513 325 q 508 294 509 307 q 505 271 506 280 q 503 241 503 254 q 532 156 503 189 q 611 125 561 125 q 694 144 650 125 q 738 165 717 153 q 783 196 760 178 l 751 35 q 666 -6 713 7 q 566 -20 617 -20 q 455 8 500 -20 q 396 82 410 35 q 358 38 379 56 q 314 6 338 19 q 262 -13 290 -7 q 201 -20 235 -20 m 216 125 q 275 146 251 125 q 297 176 288 159 q 315 218 307 194 q 322 241 319 227 q 331 273 326 254 q 341 319 336 293 q 353 379 346 346 q 363 436 358 404 q 372 481 369 468 q 376 513 374 496 q 378 545 378 530 q 374 583 378 566 q 360 612 370 600 q 307 633 342 633 q 245 612 269 633 q 206 541 225 593 q 185 471 195 510 q 165 379 175 432 q 156 331 160 351 q 149 283 153 310 q 144 247 146 260 q 143 218 143 233 q 161 147 143 169 q 216 125 178 125 m 693 468 l 700 513 q 704 540 703 526 q 705 553 705 547 q 705 566 705 559 q 692 617 705 600 q 649 633 678 633 q 587 605 610 633 q 550 515 562 573 l 541 468 l 693 468 z "},"Ŕ":{"ha":836,"x_min":2,"x_max":787,"o":"m 572 1257 l 763 1257 l 546 1078 l 406 1078 l 572 1257 m 199 1013 l 477 1013 q 711 952 636 1013 q 787 767 787 892 q 720 568 787 645 q 531 478 653 492 q 595 447 572 471 q 637 364 617 423 l 748 0 l 544 0 l 472 255 l 467 273 q 422 369 447 338 q 359 400 397 400 l 280 400 l 202 0 l 2 0 l 199 1013 m 397 568 q 536 612 489 568 q 583 732 583 656 q 553 818 583 791 q 458 844 524 844 l 368 844 l 313 568 l 397 568 z "},"ŕ":{"ha":836,"x_min":84,"x_max":836,"o":"m 618 1135 l 836 1135 l 536 880 l 402 880 l 618 1135 m 233 760 l 412 760 l 408 642 q 518 743 451 709 q 664 778 585 778 q 744 768 707 778 q 812 739 781 758 l 776 553 q 610 610 711 610 q 439 550 500 610 q 352 350 379 490 l 284 0 l 84 0 l 233 760 z "},"Ŗ":{"ha":836,"x_min":2,"x_max":787,"o":"m 199 1013 l 477 1013 q 711 952 636 1013 q 787 767 787 892 q 720 568 787 645 q 531 478 653 492 q 595 447 572 471 q 637 364 617 423 l 748 0 l 544 0 l 472 255 l 467 273 q 422 369 447 338 q 359 400 397 400 l 280 400 l 202 0 l 2 0 l 199 1013 m 397 568 q 536 612 489 568 q 583 732 583 656 q 553 818 583 791 q 458 844 524 844 l 368 844 l 313 568 l 397 568 m 294 -107 l 485 -107 l 325 -315 l 193 -315 l 294 -107 z "},"ŗ":{"ha":836,"x_min":22,"x_max":832,"o":"m 253 760 l 432 760 l 428 642 q 538 743 471 709 q 684 778 606 778 q 764 768 727 778 q 832 739 802 758 l 796 553 q 630 610 732 610 q 460 550 520 610 q 372 350 399 490 l 304 0 l 104 0 l 253 760 m 123 -107 l 314 -107 l 154 -315 l 22 -315 l 123 -107 z "},"Ř":{"ha":836,"x_min":2,"x_max":787,"o":"m 285 1256 l 400 1256 l 501 1146 l 656 1256 l 779 1256 l 614 1077 l 378 1077 l 285 1256 m 199 1013 l 477 1013 q 711 952 636 1013 q 787 767 787 892 q 720 568 787 645 q 531 478 653 492 q 595 447 572 471 q 637 364 617 423 l 748 0 l 544 0 l 472 255 l 467 273 q 422 369 447 338 q 359 400 397 400 l 280 400 l 202 0 l 2 0 l 199 1013 m 397 568 q 536 612 489 568 q 583 732 583 656 q 553 818 583 791 q 458 844 524 844 l 368 844 l 313 568 l 397 568 z "},"ř":{"ha":836,"x_min":87,"x_max":834,"o":"m 322 1135 l 440 1135 l 544 981 l 705 1135 l 834 1135 l 610 880 l 446 880 l 322 1135 m 236 760 l 415 760 l 411 642 q 522 743 454 709 q 667 778 589 778 q 747 768 710 778 q 815 739 785 758 l 779 553 q 613 610 715 610 q 443 550 503 610 q 355 350 382 490 l 288 0 l 87 0 l 236 760 z "},"Ś":{"ha":836,"x_min":3,"x_max":792,"o":"m 602 1257 l 792 1257 l 575 1078 l 435 1078 l 602 1257 m 318 -20 q 3 52 168 -20 l 43 258 q 326 146 177 146 q 466 185 414 146 q 518 292 518 225 q 424 416 518 376 l 343 450 q 211 519 258 486 q 147 592 165 552 q 129 686 129 631 q 179 868 129 791 q 318 988 229 945 q 526 1031 408 1031 q 658 1017 591 1031 q 786 975 724 1004 l 747 782 q 638 845 701 824 q 511 867 575 867 q 398 845 439 867 q 340 793 357 823 q 322 738 322 763 q 351 675 322 705 q 447 617 380 646 l 452 615 l 530 581 q 675 474 629 537 q 721 319 721 412 q 671 141 721 217 q 531 23 622 65 q 318 -20 441 -20 z "},"ś":{"ha":836,"x_min":61,"x_max":815,"o":"m 597 1135 l 815 1135 l 515 880 l 382 880 l 597 1135 m 336 -20 q 198 -8 268 -20 q 61 28 129 4 l 96 201 q 347 123 215 123 q 463 149 421 123 q 504 224 504 174 q 500 247 504 236 q 482 268 496 257 q 440 291 467 280 q 372 313 413 301 l 313 329 q 153 522 153 373 q 244 708 153 637 q 494 778 336 778 q 742 736 614 778 l 708 564 q 596 618 656 601 q 480 636 536 636 q 375 613 412 636 q 338 549 338 589 q 363 500 338 518 q 406 478 375 490 q 475 456 437 467 l 525 441 q 650 371 609 418 q 692 243 692 323 q 599 50 692 120 q 336 -20 506 -20 z "},"Ŝ":{"ha":836,"x_min":1,"x_max":784,"o":"m 456 1256 l 666 1256 l 783 1077 l 662 1077 l 548 1186 l 393 1077 l 272 1077 l 456 1256 m 1 52 l 41 258 q 321 146 178 146 q 444 180 396 146 q 503 273 491 214 q 505 301 505 282 q 423 407 505 372 l 332 444 q 209 509 255 477 q 123 665 123 569 q 130 736 123 689 q 201 894 149 827 q 517 1031 309 1031 q 784 968 660 1031 l 746 772 q 500 865 633 865 q 385 836 429 865 q 330 753 340 807 q 327 728 327 742 q 359 668 327 689 q 450 623 392 647 l 530 590 q 670 495 625 551 q 715 356 715 438 q 707 281 715 321 q 573 56 678 132 q 291 -20 467 -20 q 1 52 125 -20 z "},"ŝ":{"ha":836,"x_min":61,"x_max":753,"o":"m 456 1082 l 619 1082 l 753 880 l 633 880 l 517 979 l 363 880 l 243 880 l 456 1082 m 600 51 q 340 -20 505 -20 q 200 -8 264 -20 q 61 28 135 3 l 96 201 q 218 144 157 163 q 346 123 283 123 q 463 149 421 123 q 504 221 504 174 q 483 268 504 252 q 372 313 455 290 l 313 329 q 153 520 153 373 q 244 709 153 641 q 492 778 339 778 q 616 768 556 778 q 679 754 644 763 q 742 736 713 746 l 708 564 q 478 636 601 636 q 375 613 413 636 q 338 549 338 589 q 352 509 338 524 q 396 482 366 494 q 475 456 422 471 l 525 441 q 651 370 611 417 q 692 243 692 322 q 600 51 692 121 z "},"Ş":{"ha":836,"x_min":3,"x_max":786,"o":"m 372 829 q 335 784 347 809 q 322 737 322 760 q 447 617 322 671 l 452 615 l 530 581 q 675 475 630 536 q 721 321 721 413 q 694 184 721 248 q 612 73 668 121 q 393 -16 527 1 q 418 -64 410 -42 q 431 -125 431 -95 q 380 -232 431 -193 q 236 -272 330 -272 q 200 -271 218 -272 q 169 -268 182 -269 q 126 -260 140 -264 q 102 -254 113 -256 l 121 -149 q 150 -158 136 -154 q 178 -166 164 -163 q 230 -172 205 -172 q 300 -154 275 -172 q 325 -102 325 -136 q 316 -61 325 -83 q 308 -43 313 -54 q 297 -19 304 -32 q 165 -2 229 -17 q 3 52 87 16 l 43 258 q 180 175 105 205 q 251 153 216 161 q 325 146 286 146 q 467 186 414 146 q 518 291 518 225 q 494 366 518 336 q 424 416 471 397 l 343 450 q 235 503 277 478 q 171 556 194 528 q 140 612 151 580 q 129 692 129 644 q 159 833 129 772 q 238 937 189 895 q 363 1006 291 982 q 522 1031 435 1031 q 786 975 661 1031 l 747 782 q 640 846 701 824 q 574 862 608 857 q 507 867 540 867 q 428 857 460 867 q 372 829 395 846 z "},"ş":{"ha":836,"x_min":61,"x_max":742,"o":"m 375 612 q 338 549 338 589 q 363 500 338 518 q 403 479 376 490 q 475 456 430 469 l 525 441 q 601 410 570 429 q 652 369 633 391 q 692 243 692 323 q 600 51 692 121 q 508 4 560 21 q 394 -18 456 -12 q 418 -64 409 -41 q 431 -125 431 -95 q 380 -232 431 -193 q 236 -272 330 -272 q 200 -271 218 -272 q 169 -268 182 -269 q 126 -260 140 -264 q 102 -254 113 -256 l 121 -149 q 150 -158 136 -154 q 178 -166 164 -163 q 230 -172 205 -172 q 300 -154 275 -172 q 325 -102 325 -136 q 316 -60 325 -83 q 308 -42 313 -52 q 296 -18 303 -31 q 245 -14 271 -17 q 199 -8 220 -12 q 61 28 133 3 l 96 201 q 157 167 128 180 q 218 144 186 154 q 280 129 250 134 q 346 123 311 123 q 463 149 420 123 q 504 221 504 174 q 498 250 504 239 q 483 268 492 260 q 372 313 456 289 l 313 329 q 244 357 275 339 q 191 401 213 375 q 163 453 173 424 q 153 520 153 481 q 244 709 153 640 q 492 778 336 778 q 617 768 557 778 q 742 736 676 759 l 708 564 q 598 618 655 600 q 538 632 568 627 q 478 636 508 636 q 375 612 413 636 z "},"Š":{"ha":836,"x_min":3,"x_max":804,"o":"m 310 1257 l 425 1257 l 526 1147 l 682 1257 l 804 1257 l 639 1078 l 403 1078 l 310 1257 m 318 -20 q 241 -15 279 -20 q 165 -2 203 -11 q 3 52 87 16 l 43 258 q 180 175 105 205 q 251 153 216 161 q 325 146 286 146 q 467 186 414 146 q 518 291 518 225 q 494 366 518 336 q 424 416 471 397 l 343 450 q 235 503 277 478 q 171 556 194 528 q 140 612 151 580 q 129 692 129 644 q 159 833 129 772 q 238 937 189 895 q 363 1006 291 982 q 522 1031 435 1031 q 786 975 661 1031 l 747 782 q 640 846 701 824 q 574 862 608 857 q 507 867 540 867 q 428 857 460 867 q 372 829 395 846 q 335 784 347 809 q 322 737 322 760 q 447 617 322 671 l 452 615 l 530 581 q 675 475 630 536 q 721 321 721 413 q 694 184 721 248 q 612 73 668 121 q 485 4 559 28 q 318 -20 411 -20 z "},"š":{"ha":836,"x_min":61,"x_max":800,"o":"m 288 1135 l 406 1135 l 509 981 l 671 1135 l 800 1135 l 575 880 l 411 880 l 288 1135 m 340 -20 q 267 -17 304 -20 q 199 -8 229 -14 q 61 28 133 3 l 96 201 q 157 167 128 180 q 218 144 186 154 q 280 129 250 134 q 346 123 311 123 q 463 149 420 123 q 504 221 504 174 q 498 250 504 239 q 483 268 492 260 q 372 313 456 289 l 313 329 q 244 357 275 339 q 191 401 213 375 q 163 453 173 424 q 153 520 153 481 q 244 709 153 640 q 492 778 336 778 q 617 768 557 778 q 742 736 676 759 l 708 564 q 598 618 655 600 q 538 632 568 627 q 478 636 508 636 q 375 612 413 636 q 338 549 338 589 q 363 500 338 518 q 403 479 376 490 q 475 456 430 469 l 525 441 q 601 410 570 429 q 652 369 633 391 q 692 243 692 323 q 600 51 692 121 q 486 -2 552 15 q 340 -20 419 -20 z "},"Ţ":{"ha":836,"x_min":102,"x_max":873,"o":"m 873 1013 l 839 838 l 582 838 l 419 0 l 382 0 q 431 -126 431 -66 q 380 -232 431 -193 q 235 -272 323 -272 q 102 -254 171 -272 l 121 -149 q 231 -172 183 -172 q 301 -154 276 -172 q 326 -102 326 -136 q 317 -61 326 -84 q 287 0 308 -37 l 220 0 l 382 838 l 122 838 l 155 1013 l 873 1013 z "},"ţ":{"ha":836,"x_min":111,"x_max":793,"o":"m 429 220 l 428 203 q 449 161 428 173 q 522 149 469 149 l 675 149 l 646 -3 l 510 -3 q 554 -123 554 -68 q 503 -229 554 -191 q 357 -269 446 -269 q 225 -252 294 -269 l 244 -146 q 354 -170 306 -170 q 424 -152 399 -170 q 448 -100 448 -134 q 440 -59 448 -82 q 412 -1 431 -37 q 273 42 321 7 q 225 155 225 78 q 226 172 225 162 q 229 197 227 182 l 232 221 q 234 233 233 224 q 237 254 235 241 l 306 607 l 111 607 l 140 760 l 335 760 l 376 975 l 575 975 l 533 760 l 793 760 l 764 607 l 504 607 l 433 244 l 429 220 z "},"Ť":{"ha":836,"x_min":122,"x_max":873,"o":"m 311 1257 l 427 1257 l 528 1147 l 683 1257 l 806 1257 l 640 1078 l 404 1078 l 311 1257 m 382 838 l 122 838 l 155 1013 l 873 1013 l 839 838 l 582 838 l 419 0 l 220 0 l 382 838 z "},"ť":{"ha":836,"x_min":111,"x_max":945,"o":"m 728 1126 l 945 1126 l 771 871 l 637 871 l 728 1126 m 479 -3 q 283 35 340 -3 q 239 86 252 56 q 225 155 225 117 q 226 176 225 167 q 229 197 227 185 q 232 221 230 205 q 237 254 234 237 l 306 607 l 111 607 l 140 760 l 335 760 l 376 975 l 575 975 l 533 760 l 793 760 l 764 607 l 504 607 l 433 244 q 432 235 433 241 q 429 220 431 230 q 428 211 429 215 q 428 203 428 208 q 448 162 428 174 q 522 149 467 149 l 675 149 l 646 -3 l 479 -3 z "},"Ŧ":{"ha":836,"x_min":123,"x_max":873,"o":"m 290 365 l 123 365 l 149 495 l 316 495 l 382 838 l 125 838 l 159 1013 l 873 1013 l 840 838 l 583 838 l 516 495 l 684 495 l 658 365 l 490 365 l 420 0 l 220 0 l 290 365 z "},"ŧ":{"ha":836,"x_min":111,"x_max":793,"o":"m 479 -3 q 258 51 309 -3 q 227 158 227 87 q 237 254 227 201 l 261 380 l 140 380 l 166 511 l 287 511 l 305 607 l 111 607 l 141 760 l 335 760 l 377 975 l 576 975 l 534 760 l 793 760 l 764 607 l 504 607 l 486 511 l 610 511 l 585 380 l 460 380 l 434 244 q 431 214 431 222 q 444 172 431 187 q 523 149 465 149 l 675 149 l 646 -3 l 479 -3 z "},"Ũ":{"ha":836,"x_min":31,"x_max":863,"o":"m 297 1078 q 359 1212 314 1166 q 468 1258 404 1258 q 561 1223 515 1258 l 597 1196 q 644 1177 618 1177 q 712 1258 696 1177 l 805 1258 q 745 1126 787 1174 q 634 1078 702 1078 q 589 1085 610 1078 q 541 1112 567 1093 l 508 1137 q 480 1155 491 1150 q 458 1159 469 1159 q 390 1078 406 1159 l 297 1078 m 334 -20 q 110 48 190 -20 q 31 243 31 115 q 46 374 31 296 l 171 1013 l 371 1013 l 236 323 q 235 319 236 321 q 231 271 231 290 q 262 187 231 217 q 354 157 293 157 q 466 197 422 157 q 528 323 511 238 l 663 1013 l 863 1013 l 737 374 q 688 192 714 257 q 616 83 661 127 q 495 7 566 33 q 334 -20 425 -20 z "},"ũ":{"ha":836,"x_min":72,"x_max":790,"o":"m 605 861 q 557 870 578 861 q 508 900 536 879 l 475 925 q 471 928 473 927 q 422 950 443 950 q 381 927 399 950 q 357 863 363 903 l 262 863 q 321 1003 275 951 q 433 1055 368 1055 q 477 1046 458 1055 q 528 1014 496 1037 l 562 987 q 611 966 589 966 q 654 990 637 966 q 677 1054 671 1013 l 772 1054 q 605 861 740 861 m 250 -20 q 119 28 166 -20 q 72 165 72 75 q 83 265 72 203 l 180 760 l 378 760 l 289 296 q 284 259 286 277 q 282 229 282 241 q 358 143 282 143 q 452 189 412 143 q 510 332 491 235 l 593 760 l 790 760 l 643 0 l 464 0 l 467 113 q 380 16 436 51 q 250 -20 323 -20 z "},"Ū":{"ha":836,"x_min":31,"x_max":863,"o":"m 352 1255 l 780 1255 l 755 1127 l 328 1127 l 352 1255 m 334 -20 q 110 48 190 -20 q 31 243 31 115 q 46 374 31 296 l 171 1013 l 371 1013 l 236 323 q 235 319 236 321 q 231 271 231 290 q 262 187 231 217 q 354 157 293 157 q 466 197 422 157 q 528 323 511 238 l 663 1013 l 863 1013 l 737 374 q 688 192 714 257 q 616 83 661 127 q 495 7 566 33 q 334 -20 425 -20 z "},"ū":{"ha":836,"x_min":72,"x_max":790,"o":"m 318 1023 l 746 1023 l 721 895 l 293 895 l 318 1023 m 250 -20 q 119 28 166 -20 q 72 165 72 75 q 83 265 72 203 l 180 760 l 378 760 l 289 296 q 284 259 286 277 q 282 229 282 241 q 358 143 282 143 q 452 189 412 143 q 510 332 491 235 l 593 760 l 790 760 l 643 0 l 464 0 l 467 113 q 380 16 436 51 q 250 -20 323 -20 z "},"Ŭ":{"ha":836,"x_min":31,"x_max":863,"o":"m 335 1237 q 336 1256 335 1254 l 431 1256 q 547 1174 441 1174 q 694 1256 652 1174 l 791 1256 q 696 1123 764 1169 q 528 1077 629 1077 q 384 1119 433 1077 q 335 1237 335 1160 m 496 7 q 337 -20 426 -20 q 111 47 191 -20 q 31 240 31 115 q 35 301 31 264 l 39 338 l 43 358 l 46 374 l 171 1013 l 371 1013 l 236 323 q 235 319 236 320 q 231 271 231 296 q 262 187 231 217 q 351 157 294 157 q 528 323 494 157 l 663 1013 l 863 1013 l 737 374 q 710 256 723 302 q 677 168 696 209 q 607 75 653 118 q 496 7 562 32 z "},"ŭ":{"ha":836,"x_min":72,"x_max":790,"o":"m 680 935 q 508 882 612 882 q 309 1061 309 882 l 309 1084 l 407 1084 l 407 1075 q 436 1009 407 1034 q 518 985 466 985 q 613 1011 574 985 q 669 1084 650 1035 l 766 1084 q 680 935 747 988 m 379 16 q 252 -20 321 -20 q 119 28 165 -20 q 72 165 72 76 q 75 209 72 193 q 77 229 75 210 q 83 265 79 245 l 180 760 l 378 760 l 289 296 l 286 274 l 284 260 q 282 228 282 245 q 302 165 282 189 q 359 143 321 143 q 453 191 417 143 q 510 332 492 241 l 593 760 l 790 760 l 643 0 l 464 0 l 467 113 q 379 16 435 52 z "},"Ů":{"ha":836,"x_min":31,"x_max":863,"o":"m 863 1013 l 737 374 q 688 192 714 257 q 616 83 661 127 q 495 7 566 33 q 334 -20 425 -20 q 110 48 190 -20 q 31 243 31 115 q 46 374 31 296 l 171 1013 l 341 1013 q 322 1096 322 1051 q 348 1193 322 1149 q 417 1263 374 1237 q 515 1289 461 1289 q 612 1263 568 1289 q 682 1193 656 1237 q 708 1096 708 1149 q 689 1013 708 1051 l 863 1013 m 515 1185 q 452 1159 478 1185 q 426 1096 426 1133 q 452 1033 426 1059 q 515 1007 478 1007 q 578 1033 551 1007 q 604 1096 604 1059 q 578 1159 604 1133 q 515 1185 551 1185 m 652 960 q 591 918 626 933 q 515 903 555 903 q 429 922 468 903 q 363 976 390 942 l 236 323 q 235 319 236 321 q 231 271 231 290 q 262 187 231 217 q 354 157 293 157 q 466 197 422 157 q 528 323 511 238 l 652 960 z "},"ů":{"ha":836,"x_min":72,"x_max":790,"o":"m 500 850 q 402 877 446 850 q 333 946 359 903 q 307 1044 307 990 q 333 1141 307 1097 q 402 1211 359 1185 q 500 1237 446 1237 q 597 1211 553 1237 q 667 1141 641 1185 q 693 1044 693 1097 q 667 946 693 990 q 597 877 641 903 q 500 850 553 850 m 500 955 q 563 981 536 955 q 589 1044 589 1007 q 563 1106 589 1080 q 500 1133 536 1133 q 437 1106 463 1133 q 411 1044 411 1080 q 437 981 411 1006 q 500 955 463 955 m 250 -20 q 119 28 166 -20 q 72 165 72 75 q 83 265 72 203 l 180 760 l 378 760 l 289 296 q 284 259 286 277 q 282 229 282 241 q 358 143 282 143 q 452 189 412 143 q 510 332 491 235 l 593 760 l 790 760 l 643 0 l 464 0 l 467 113 q 380 16 436 51 q 250 -20 323 -20 z "},"Ű":{"ha":836,"x_min":31,"x_max":913,"o":"m 466 1256 l 659 1256 l 430 1077 l 296 1077 l 466 1256 m 720 1256 l 913 1256 l 684 1077 l 551 1077 l 720 1256 m 334 -20 q 110 48 190 -20 q 31 243 31 115 q 46 374 31 296 l 171 1013 l 371 1013 l 236 323 q 235 319 236 321 q 231 271 231 290 q 262 187 231 217 q 354 157 293 157 q 466 197 422 157 q 528 323 511 238 l 663 1013 l 863 1013 l 737 374 q 688 192 714 257 q 616 83 661 127 q 495 7 566 33 q 334 -20 425 -20 z "},"ű":{"ha":836,"x_min":72,"x_max":873,"o":"m 429 1118 l 595 1118 l 378 863 l 267 863 l 429 1118 m 697 1118 l 873 1118 l 639 863 l 522 863 l 697 1118 m 250 -20 q 119 28 166 -20 q 72 165 72 75 q 83 265 72 203 l 180 760 l 378 760 l 289 296 q 284 259 286 277 q 282 229 282 241 q 358 143 282 143 q 452 189 412 143 q 510 332 491 235 l 593 760 l 790 760 l 643 0 l 464 0 l 467 113 q 380 16 436 51 q 250 -20 323 -20 z "},"Ų":{"ha":836,"x_min":31,"x_max":863,"o":"m 863 1013 l 737 374 q 688 192 714 257 q 616 83 661 127 q 495 7 566 33 q 334 -20 425 -20 l 330 -20 q 271 -90 288 -64 q 255 -134 255 -115 q 271 -169 255 -154 q 323 -183 288 -183 q 369 -178 341 -183 q 429 -162 397 -174 l 408 -268 q 343 -279 374 -275 q 286 -283 312 -283 q 177 -257 216 -283 q 137 -184 137 -232 q 162 -103 137 -147 q 242 -12 188 -60 q 85 72 140 8 q 31 243 31 136 q 46 374 31 296 l 171 1013 l 371 1013 l 236 323 q 235 319 236 321 q 231 271 231 290 q 262 187 231 217 q 354 157 293 157 q 466 197 422 157 q 528 323 511 238 l 663 1013 l 863 1013 z "},"ų":{"ha":836,"x_min":72,"x_max":790,"o":"m 558 -123 q 574 -158 558 -143 q 626 -172 591 -172 q 672 -168 644 -172 q 732 -151 700 -163 l 711 -257 q 646 -268 677 -264 q 589 -272 615 -272 q 480 -247 519 -272 q 440 -173 440 -221 q 466 -92 440 -136 q 546 0 491 -48 l 444 0 l 467 113 q 380 16 436 51 q 250 -20 323 -20 q 119 28 166 -20 q 72 165 72 75 q 83 265 72 203 l 180 760 l 378 760 l 289 296 q 284 259 286 277 q 282 229 282 241 q 358 143 282 143 q 452 189 412 143 q 510 332 491 235 l 593 760 l 790 760 l 643 0 l 642 0 q 574 -79 591 -54 q 558 -123 558 -104 z "},"Ŵ":{"ha":836,"x_min":28,"x_max":929,"o":"m 454 1261 l 690 1261 l 792 1082 l 677 1082 l 566 1191 l 410 1082 l 288 1082 l 454 1261 m 97 1013 l 269 1013 l 196 269 l 380 750 l 542 750 l 550 269 l 751 1013 l 929 1013 l 616 0 l 433 0 l 425 532 l 210 0 l 28 0 l 97 1013 z "},"ŵ":{"ha":836,"x_min":61,"x_max":899,"o":"m 473 1116 l 638 1116 l 762 861 l 643 861 l 540 1014 l 377 861 l 248 861 l 473 1116 m 65 760 l 228 760 l 205 178 l 359 561 l 515 561 l 530 178 l 728 760 l 899 760 l 615 0 l 425 0 l 412 400 l 250 0 l 61 0 l 65 760 z "},"Ŷ":{"ha":836,"x_min":98,"x_max":921,"o":"m 445 1261 l 681 1261 l 783 1082 l 669 1082 l 557 1191 l 401 1082 l 279 1082 l 445 1261 m 293 399 l 98 1013 l 297 1013 l 424 572 l 703 1013 l 921 1013 l 492 399 l 414 0 l 215 0 l 293 399 z "},"ŷ":{"ha":836,"x_min":-44,"x_max":869,"o":"m 486 1117 l 650 1117 l 774 862 l 655 862 l 552 1015 l 389 862 l 260 862 l 486 1117 m -14 -136 l 66 -136 q 131 -129 103 -136 q 182 -96 158 -121 q 233 -20 206 -71 l 260 31 l 113 760 l 314 760 l 400 285 l 660 760 l 869 760 l 391 -82 q 300 -216 340 -172 q 218 -274 260 -260 q 119 -288 176 -288 l -44 -288 l -14 -136 z "},"Ÿ":{"ha":836,"x_min":98,"x_max":921,"o":"m 332 1090 q 313 1106 313 1090 q 314 1112 313 1111 l 340 1238 q 361 1257 344 1257 l 480 1257 q 498 1240 498 1257 q 498 1234 498 1236 l 473 1108 q 451 1090 469 1090 l 332 1090 m 600 1090 q 582 1106 582 1090 q 583 1112 582 1111 l 608 1238 q 629 1257 610 1257 l 748 1257 q 766 1234 771 1257 l 742 1108 q 720 1090 739 1090 l 600 1090 m 293 399 l 98 1013 l 297 1013 l 424 572 l 703 1013 l 921 1013 l 492 399 l 414 0 l 215 0 l 293 399 z "},"Ź":{"ha":836,"x_min":-29,"x_max":868,"o":"m 588 1257 l 779 1257 l 562 1078 l 421 1078 l 588 1257 m 3 165 l 585 836 l 149 836 l 184 1013 l 868 1013 l 835 847 l 241 176 l 715 176 l 681 0 l -29 0 l 3 165 z "},"ź":{"ha":836,"x_min":33,"x_max":829,"o":"m 611 1117 l 829 1117 l 529 862 l 395 862 l 611 1117 m 64 155 l 543 611 l 170 611 l 199 760 l 806 760 l 775 604 l 296 149 l 686 149 l 657 0 l 33 0 l 64 155 z "},"Ż":{"ha":836,"x_min":-29,"x_max":868,"o":"m 473 1089 q 455 1112 450 1089 l 480 1238 q 502 1256 483 1256 l 648 1256 q 666 1234 671 1256 l 641 1107 q 619 1089 637 1089 l 473 1089 m 3 165 l 585 836 l 149 836 l 184 1013 l 868 1013 l 835 847 l 241 176 l 715 176 l 681 0 l -29 0 l 3 165 z "},"ż":{"ha":836,"x_min":33,"x_max":806,"o":"m 452 895 q 435 918 430 895 l 460 1044 q 481 1062 463 1062 l 625 1062 q 644 1040 648 1062 l 619 913 q 597 895 616 895 l 452 895 m 64 155 l 543 611 l 170 611 l 199 760 l 806 760 l 775 604 l 296 149 l 686 149 l 657 0 l 33 0 l 64 155 z "},"Ž":{"ha":836,"x_min":-29,"x_max":868,"o":"m 323 1256 l 439 1256 l 540 1146 l 695 1256 l 818 1256 l 652 1077 l 416 1077 l 323 1256 m 3 165 l 585 836 l 149 836 l 184 1013 l 868 1013 l 835 847 l 241 176 l 715 176 l 681 0 l -29 0 l 3 165 z "},"ž":{"ha":836,"x_min":33,"x_max":813,"o":"m 301 1118 l 419 1118 l 523 964 l 684 1118 l 813 1118 l 589 863 l 425 863 l 301 1118 m 64 155 l 543 611 l 170 611 l 199 760 l 806 760 l 775 604 l 296 149 l 686 149 l 657 0 l 33 0 l 64 155 z "},"ſ":{"ha":836,"x_min":124,"x_max":854,"o":"m 336 607 l 124 607 l 153 760 l 366 760 l 376 812 q 415 936 392 890 q 467 1006 437 982 q 553 1043 498 1030 q 692 1055 608 1055 l 854 1055 l 825 903 l 669 903 q 606 884 625 903 q 575 811 587 865 l 564 760 l 381 -183 l 182 -183 l 336 607 z "},"ƒ":{"ha":836,"x_min":28,"x_max":802,"o":"m 183 -289 q 105 -281 143 -289 q 28 -254 68 -273 l 28 -96 q 85 -123 56 -114 q 139 -132 111 -132 q 239 -92 203 -132 q 286 37 275 -51 l 340 452 l 169 452 l 169 600 l 359 600 l 386 799 q 416 908 394 861 q 471 989 438 956 q 648 1055 541 1055 q 688 1053 667 1055 q 727 1047 709 1051 q 802 1021 762 1040 l 802 864 q 772 880 787 873 q 747 890 758 886 q 693 899 721 899 q 595 858 630 899 q 548 729 559 814 l 532 600 l 708 600 l 708 452 l 512 452 l 448 -32 q 419 -138 441 -90 q 363 -222 398 -187 q 183 -289 294 -289 z "},"Ơ":{"ha":836,"x_min":6,"x_max":941,"o":"m 941 1055 q 939 986 941 1017 q 931 926 937 954 q 877 806 916 848 q 779 764 838 764 q 754 766 766 764 q 759 686 759 731 q 744 517 759 609 q 702 336 730 425 q 635 179 674 247 q 497 31 580 81 q 302 -20 414 -20 q 82 66 158 -20 q 6 327 6 153 q 22 504 6 410 q 67 684 39 597 q 132 833 95 771 q 269 981 187 931 q 463 1031 351 1031 q 719 890 650 1031 l 722 888 q 762 876 743 876 q 806 893 785 876 q 836 949 827 910 q 841 1002 841 975 q 836 1055 841 1023 l 941 1055 m 514 427 q 542 567 530 495 q 553 694 553 640 q 443 854 553 854 q 368 830 399 854 q 313 759 338 806 q 282 687 298 730 q 251 584 267 645 q 221 427 231 503 q 212 311 212 351 q 239 198 212 238 q 323 158 267 158 q 396 182 366 158 q 452 253 427 206 q 514 427 486 316 z "},"ơ":{"ha":836,"x_min":33,"x_max":878,"o":"m 878 791 q 875 723 878 754 q 867 663 873 691 q 747 505 840 528 q 750 451 750 482 q 723 274 750 358 q 642 123 695 189 q 512 19 589 57 q 335 -20 435 -20 q 114 63 195 -20 q 33 308 33 145 q 61 485 33 400 q 141 636 88 570 q 271 741 194 703 q 448 779 349 779 q 617 739 547 779 q 721 616 686 699 q 752 640 738 623 q 772 686 766 657 q 777 739 777 711 q 772 791 777 760 l 878 791 m 351 140 q 457 186 412 140 q 526 303 502 232 q 550 450 550 374 q 519 577 550 537 q 434 618 488 618 q 349 590 386 618 q 286 518 311 563 q 247 418 260 473 q 233 309 233 363 q 266 181 233 222 q 351 140 298 140 z "},"Ƥ":{"ha":836,"x_min":71,"x_max":903,"o":"m 255 844 q 223 837 233 844 q 208 814 213 830 q 195 758 203 800 l 189 726 l 71 726 l 87 814 q 203 991 113 943 q 288 1013 243 1013 l 562 1013 q 903 775 903 1013 q 895 696 903 739 q 439 379 834 379 l 365 379 l 291 0 l 91 0 l 255 844 m 479 547 q 652 608 609 547 q 686 696 676 642 q 692 747 692 727 q 655 822 692 799 q 537 844 619 844 l 455 844 l 397 547 l 479 547 z "},"Ư":{"ha":836,"x_min":-19,"x_max":975,"o":"m 975 1055 q 972 986 975 1017 q 964 926 970 954 q 910 806 949 848 q 812 764 871 764 q 766 772 789 764 l 688 374 q 638 192 665 257 q 567 83 612 127 q 446 7 516 33 q 284 -20 376 -20 q 61 48 140 -20 q -19 243 -19 115 q -3 374 -19 296 l 121 1013 l 321 1013 l 186 323 q 186 319 186 321 q 181 271 181 290 q 212 187 181 217 q 304 157 243 157 q 417 197 372 157 q 478 323 461 238 l 613 1013 l 813 1013 l 787 876 q 795 876 789 876 q 840 893 819 876 q 869 949 861 910 q 874 1002 874 975 q 869 1055 874 1023 l 975 1055 z "},"ư":{"ha":836,"x_min":31,"x_max":906,"o":"m 906 791 q 904 723 906 754 q 896 663 901 691 q 841 543 880 585 q 744 501 802 501 q 700 508 720 501 l 602 0 l 422 0 l 425 113 q 338 16 395 51 q 208 -20 282 -20 q 78 28 125 -20 q 31 165 31 75 q 42 265 31 203 l 139 760 l 336 760 l 248 296 q 242 259 244 277 q 241 229 241 241 q 317 143 241 143 q 410 189 371 143 q 469 332 450 235 l 551 760 l 749 760 l 720 612 l 726 612 q 771 630 750 612 q 800 686 792 647 q 806 739 806 711 q 800 791 806 760 l 906 791 z "},"Ǧ":{"ha":836,"x_min":69,"x_max":837,"o":"m 342 1257 l 458 1257 l 559 1147 l 714 1257 l 837 1257 l 671 1078 l 435 1078 l 342 1257 m 414 -20 q 159 78 250 -20 q 69 361 69 176 q 91 549 69 454 q 154 730 113 644 q 249 878 194 815 q 593 1031 385 1031 q 703 1019 650 1031 q 808 982 755 1006 l 764 760 q 581 852 692 852 q 490 833 534 852 q 410 774 446 814 q 358 698 380 741 q 318 604 336 655 q 286 481 298 547 q 273 361 273 415 q 316 210 273 262 q 437 157 359 157 q 522 179 488 157 l 561 376 l 421 376 l 454 545 l 766 545 l 672 64 q 558 2 625 23 q 414 -20 492 -20 z "},"ǧ":{"ha":836,"x_min":12,"x_max":807,"o":"m 281 1137 l 399 1137 l 503 983 l 664 1137 l 793 1137 l 568 882 l 404 882 l 281 1137 m 264 -288 q 133 -277 194 -288 q 12 -248 72 -267 l 49 -68 q 268 -129 151 -129 q 404 -89 357 -129 q 467 35 450 -49 l 485 125 q 394 39 447 66 q 277 11 342 11 q 109 81 172 11 q 46 279 46 152 q 60 402 46 338 q 97 526 73 466 q 153 632 121 586 q 269 742 201 703 q 409 781 336 781 q 525 743 479 781 q 585 636 570 706 l 628 760 l 807 760 l 669 57 q 596 -144 645 -68 q 467 -254 548 -220 q 264 -288 386 -288 m 350 167 q 448 209 404 167 q 518 319 492 251 q 545 464 545 387 q 517 579 545 542 q 443 616 490 616 q 346 575 389 616 q 275 465 302 533 q 249 319 249 397 q 276 204 249 241 q 350 167 302 167 z "},"Ǿ":{"ha":836,"x_min":-96,"x_max":920,"o":"m 585 1257 l 775 1257 l 558 1078 l 418 1078 l 585 1257 m -96 35 l 53 200 q 44 252 46 228 q 41 307 41 275 q 57 494 41 397 q 100 679 73 591 q 165 832 128 766 q 303 980 220 929 q 496 1031 386 1031 q 721 942 638 1031 l 825 1057 l 920 979 l 781 825 q 791 754 787 787 q 794 690 794 722 q 789 597 794 650 q 776 500 784 544 q 730 319 759 401 q 669 180 702 237 q 529 28 610 76 q 342 -20 447 -20 q 109 79 188 -20 l 0 -43 l -96 35 m 578 782 q 479 854 553 854 q 403 828 436 854 q 346 755 370 802 q 297 620 319 703 q 257 427 275 536 l 578 782 m 357 158 q 432 183 397 158 q 494 262 467 208 q 582 603 547 365 l 254 240 q 357 158 279 158 z "},"ǿ":{"ha":836,"x_min":-56,"x_max":889,"o":"m 602 1136 l 819 1136 l 519 881 l 386 881 l 602 1136 m -56 1 l 87 142 q 66 210 73 175 q 60 294 60 244 q 111 546 60 436 q 254 717 162 655 q 468 779 346 779 q 679 711 591 779 l 810 838 l 889 755 l 749 619 q 770 547 764 583 q 777 464 777 511 q 725 212 777 321 q 581 42 674 103 q 365 -20 488 -20 q 158 49 239 -20 l 24 -79 l -56 1 m 543 581 q 456 618 510 618 q 324 538 375 618 q 260 307 273 459 l 543 581 m 381 140 q 514 222 463 140 q 576 454 566 304 l 294 180 q 381 140 326 140 z "},"Ș":{"ha":836,"x_min":3,"x_max":786,"o":"m 318 -20 q 3 52 168 -20 l 43 258 q 326 146 177 146 q 466 185 414 146 q 518 292 518 225 q 424 416 518 376 l 343 450 q 211 519 258 486 q 147 592 165 552 q 129 686 129 631 q 179 868 129 791 q 318 988 229 945 q 526 1031 408 1031 q 658 1017 591 1031 q 786 975 724 1004 l 747 782 q 638 845 701 824 q 511 867 575 867 q 398 845 439 867 q 340 793 357 823 q 322 738 322 763 q 351 675 322 705 q 447 617 380 646 l 452 615 l 530 581 q 675 474 629 537 q 721 319 721 412 q 671 141 721 217 q 531 23 622 65 q 318 -20 441 -20 m 193 -134 l 384 -134 l 224 -342 l 92 -342 l 193 -134 z "},"ș":{"ha":836,"x_min":61,"x_max":742,"o":"m 336 -20 q 198 -8 268 -20 q 61 28 129 4 l 96 201 q 347 123 215 123 q 463 149 421 123 q 504 224 504 174 q 500 247 504 236 q 482 268 496 257 q 440 291 467 280 q 372 313 413 301 l 313 329 q 153 522 153 373 q 244 708 153 637 q 494 778 336 778 q 742 736 614 778 l 708 564 q 596 618 656 601 q 480 636 536 636 q 375 613 412 636 q 338 549 338 589 q 363 500 338 518 q 406 478 375 490 q 475 456 437 467 l 525 441 q 650 371 609 418 q 692 243 692 323 q 599 50 692 120 q 336 -20 506 -20 m 193 -134 l 384 -134 l 224 -342 l 92 -342 l 193 -134 z "},"Ț":{"ha":836,"x_min":102,"x_max":873,"o":"m 873 1013 l 839 838 l 582 838 l 419 0 l 382 0 q 431 -126 431 -65 q 379 -232 431 -193 q 235 -272 327 -272 q 102 -254 169 -272 l 121 -149 q 231 -172 181 -172 q 301 -154 276 -172 q 326 -102 326 -136 q 317 -61 326 -84 q 287 0 308 -37 l 220 0 l 382 838 l 122 838 l 155 1013 l 873 1013 z "},"ț":{"ha":836,"x_min":111,"x_max":793,"o":"m 433 244 q 432 235 433 241 q 429 220 431 230 q 428 211 429 215 q 428 203 428 208 q 448 162 428 174 q 522 149 467 149 l 675 149 l 646 -3 l 510 -3 q 554 -123 554 -66 q 502 -230 554 -190 q 357 -269 450 -269 q 225 -252 292 -269 l 244 -146 q 354 -170 304 -170 q 424 -152 399 -170 q 448 -100 448 -134 q 440 -59 448 -82 q 412 -1 431 -37 q 336 12 368 3 q 283 35 305 21 q 239 86 252 56 q 225 155 225 117 q 226 176 225 167 q 229 197 227 185 q 232 221 230 205 q 237 254 234 237 l 306 607 l 111 607 l 140 760 l 335 760 l 376 975 l 575 975 l 533 760 l 793 760 l 764 607 l 504 607 l 433 244 z "},"ʹ":{"ha":836,"x_min":307,"x_max":566,"o":"m 416 1111 l 566 1111 l 426 773 l 307 773 l 416 1111 z "},"ʻ":{"ha":836,"x_min":285,"x_max":650,"o":"m 321 796 l 504 1055 l 650 1055 l 533 796 l 497 612 l 285 612 l 321 796 z "},"ʼ":{"ha":836,"x_min":250,"x_max":615,"o":"m 368 871 l 403 1055 l 615 1055 l 580 871 l 396 612 l 250 612 l 368 871 z "},"ʽ":{"ha":836,"x_min":321,"x_max":545,"o":"m 477 826 q 321 954 321 827 q 326 1006 321 975 l 359 1173 l 545 1173 l 512 1006 l 430 1006 q 427 981 427 994 q 496 923 427 923 l 477 826 z "},"ʾ":{"ha":836,"x_min":408,"x_max":642,"o":"m 429 773 q 503 805 469 773 q 536 878 536 836 q 515 930 536 909 q 463 951 495 951 l 483 1055 q 598 1010 553 1055 q 642 899 642 966 q 639 862 642 878 q 593 765 628 808 q 510 695 559 721 q 408 669 461 669 l 429 773 z "},"ʿ":{"ha":836,"x_min":364,"x_max":598,"o":"m 523 669 q 397 725 443 669 q 364 824 364 768 q 386 917 364 871 q 450 999 408 963 q 598 1055 519 1055 l 578 951 q 504 919 537 951 q 470 845 470 887 q 490 794 470 814 q 543 773 511 773 l 523 669 z "},"ˀ":{"ha":836,"x_min":242,"x_max":633,"o":"m 296 732 l 333 732 q 460 776 418 732 q 495 852 495 812 q 483 893 495 875 q 382 937 452 937 q 253 904 319 937 l 275 1017 q 317 1031 297 1025 q 367 1041 338 1038 q 444 1044 396 1044 q 543 1019 500 1044 q 609 954 585 994 q 633 865 633 913 q 630 831 633 853 q 554 699 614 743 q 418 642 495 654 l 382 453 l 242 453 l 296 732 z "},"ˁ":{"ha":836,"x_min":234,"x_max":666,"o":"m 376 642 q 274 687 314 651 q 234 787 234 722 q 235 809 234 798 q 239 831 237 820 q 290 934 250 886 q 388 1013 330 983 q 507 1044 445 1044 q 583 1041 555 1044 q 629 1031 611 1038 q 666 1017 648 1025 l 644 904 q 527 937 589 937 q 410 893 457 937 q 375 821 375 863 q 387 776 375 798 q 496 732 412 732 l 533 732 l 479 453 l 339 453 l 376 642 z "},"ˆ":{"ha":836,"x_min":228,"x_max":742,"o":"m 453 1111 l 618 1111 l 742 856 l 623 856 l 519 1008 l 357 856 l 228 856 l 453 1111 z "},"ˇ":{"ha":836,"x_min":281,"x_max":793,"o":"m 281 1111 l 399 1111 l 503 957 l 664 1111 l 793 1111 l 568 856 l 404 856 l 281 1111 z "},"ˈ":{"ha":836,"x_min":317,"x_max":519,"o":"m 391 1054 l 519 1054 l 446 677 l 317 677 l 391 1054 z "},"ˉ":{"ha":836,"x_min":286,"x_max":739,"o":"m 311 1055 l 739 1055 l 714 928 l 286 928 l 311 1055 z "},"ˌ":{"ha":836,"x_min":317,"x_max":519,"o":"m 391 264 l 519 264 l 446 -112 l 317 -112 l 391 264 z "},"ˍ":{"ha":836,"x_min":52,"x_max":505,"o":"m 77 -148 l 505 -148 l 480 -275 l 52 -275 l 77 -148 z "},"ˎ":{"ha":836,"x_min":318,"x_max":652,"o":"m 318 -141 l 511 -141 l 652 -396 l 518 -396 l 318 -141 z "},"ˏ":{"ha":836,"x_min":319,"x_max":753,"o":"m 535 -141 l 753 -141 l 453 -396 l 319 -396 l 535 -141 z "},"ː":{"ha":836,"x_min":205,"x_max":631,"o":"m 353 760 l 631 760 l 441 502 l 353 760 m 395 258 l 484 0 l 205 0 l 395 258 z "},"ˑ":{"ha":836,"x_min":304,"x_max":583,"o":"m 304 760 l 583 760 l 393 502 l 304 760 z "},"˘":{"ha":836,"x_min":302,"x_max":760,"o":"m 501 888 q 353 932 403 888 q 316 986 329 954 q 302 1067 302 1018 l 302 1089 l 400 1089 l 400 1080 q 430 1015 400 1039 q 511 990 460 990 q 606 1017 567 990 q 663 1089 644 1040 l 760 1089 q 673 941 741 994 q 501 888 606 888 z "},"˙":{"ha":836,"x_min":407,"x_max":621,"o":"m 425 908 q 407 924 407 908 q 408 930 407 929 l 433 1057 q 454 1075 435 1075 l 598 1075 q 616 1053 621 1075 l 592 926 q 570 908 589 908 l 425 908 z "},"˚":{"ha":836,"x_min":314,"x_max":700,"o":"m 507 847 q 370 904 427 847 q 314 1040 314 960 q 330 1118 314 1083 q 370 1178 346 1154 q 430 1218 395 1203 q 507 1234 465 1234 q 644 1178 588 1234 q 684 1119 667 1154 q 700 1041 700 1084 q 684 963 700 998 q 644 903 668 927 q 507 847 588 847 m 508 951 q 570 978 544 951 q 596 1040 596 1004 q 570 1103 596 1077 q 507 1129 542 1129 q 444 1103 470 1129 q 418 1040 418 1077 q 444 977 418 1003 q 508 951 469 951 z "},"˛":{"ha":836,"x_min":174,"x_max":465,"o":"m 319 -272 q 260 -266 288 -272 q 213 -246 233 -260 q 174 -174 174 -220 q 200 -91 174 -134 q 279 0 228 -45 l 375 0 q 308 -79 324 -54 q 292 -123 292 -104 q 309 -159 292 -144 q 359 -172 326 -172 q 381 -171 368 -172 q 408 -168 394 -170 q 465 -151 433 -163 l 444 -257 q 411 -263 433 -260 q 380 -269 389 -267 q 319 -272 349 -272 z "},"˜":{"ha":836,"x_min":256,"x_max":765,"o":"m 597 886 q 550 895 572 886 q 501 925 528 903 l 468 950 q 467 951 467 951 q 465 953 467 951 q 441 968 453 962 q 415 975 429 975 q 374 952 391 975 q 350 888 357 929 l 256 888 q 315 1028 269 977 q 424 1080 361 1080 q 469 1072 451 1080 q 521 1039 488 1063 l 555 1013 q 604 991 581 991 q 646 1015 629 991 q 671 1079 663 1037 l 765 1079 q 597 886 735 886 z "},"˝":{"ha":836,"x_min":253,"x_max":860,"o":"m 415 1111 l 582 1111 l 364 856 l 253 856 l 415 1111 m 684 1111 l 860 1111 l 625 856 l 509 856 l 684 1111 z "},"̀":{"ha":836,"x_min":-585,"x_max":-250,"o":"m -585 1111 l -392 1111 l -250 856 l -385 856 l -585 1111 z "},"́":{"ha":836,"x_min":-450,"x_max":-17,"o":"m -235 1111 l -17 1111 l -317 856 l -450 856 l -235 1111 z "},"̂":{"ha":836,"x_min":-608,"x_max":-94,"o":"m -383 1111 l -218 1111 l -94 856 l -214 856 l -317 1008 l -479 856 l -608 856 l -383 1111 z "},"̃":{"ha":836,"x_min":-581,"x_max":-71,"o":"m -240 886 q -335 925 -285 886 l -368 950 q -372 953 -370 952 q -421 975 -400 975 q -462 952 -444 975 q -486 888 -479 928 l -581 888 q -522 1028 -568 976 q -411 1080 -475 1080 q -367 1072 -388 1080 q -315 1039 -347 1063 l -281 1013 q -233 991 -255 991 q -165 1079 -179 991 l -71 1079 q -240 886 -103 886 z "},"̄":{"ha":836,"x_min":-550,"x_max":-97,"o":"m -525 1055 l -97 1055 l -122 928 l -550 928 l -525 1055 z "},"̅":{"ha":836,"x_min":-836,"x_max":0,"o":"m -836 1049 l 0 1049 l 0 920 l -836 920 l -836 1049 z "},"̆":{"ha":836,"x_min":-534,"x_max":-77,"o":"m -334 888 q -534 1067 -534 888 l -534 1089 l -436 1089 l -436 1080 q -406 1015 -436 1039 q -325 990 -376 990 q -230 1016 -270 990 q -174 1089 -191 1042 l -77 1089 q -163 940 -96 992 q -334 888 -230 888 z "},"̇":{"ha":836,"x_min":-433,"x_max":-216,"o":"m -400 1075 l -216 1075 l -248 908 l -433 908 l -400 1075 z "},"̈":{"ha":836,"x_min":-554,"x_max":-93,"o":"m -522 1075 l -361 1075 l -395 908 l -554 908 l -522 1075 m -254 1075 l -93 1075 l -126 908 l -286 908 l -254 1075 z "},"̉":{"ha":836,"x_min":-564,"x_max":-252,"o":"m -481 933 q -399 975 -435 944 q -381 999 -389 983 q -374 1033 -374 1016 q -380 1058 -374 1046 q -404 1074 -387 1069 q -448 1079 -427 1080 l -481 1079 q -564 1058 -513 1079 l -543 1161 q -403 1179 -465 1179 q -254 1080 -252 1179 q -256 1067 -255 1074 q -258 1053 -256 1060 q -356 913 -270 991 l -368 856 l -496 856 l -481 933 z "},"̊":{"ha":836,"x_min":-522,"x_max":-136,"o":"m -329 847 q -427 873 -383 847 q -496 943 -471 899 q -522 1040 -522 987 q -496 1137 -522 1093 q -427 1207 -471 1181 q -329 1234 -383 1234 q -232 1207 -276 1234 q -162 1137 -189 1181 q -136 1040 -136 1093 q -162 943 -136 987 q -232 873 -189 899 q -329 847 -276 847 m -329 951 q -266 978 -292 951 q -240 1040 -240 1004 q -267 1103 -240 1077 q -329 1129 -293 1129 q -392 1103 -366 1129 q -418 1040 -418 1077 q -392 977 -418 1003 q -329 951 -366 951 z "},"̋":{"ha":836,"x_min":-583,"x_max":24,"o":"m -421 1111 l -254 1111 l -472 856 l -583 856 l -421 1111 m -153 1111 l 24 1111 l -211 856 l -328 856 l -153 1111 z "},"̌":{"ha":836,"x_min":-555,"x_max":-43,"o":"m -555 1111 l -437 1111 l -334 957 l -172 1111 l -43 1111 l -268 856 l -432 856 l -555 1111 z "},"̍":{"ha":836,"x_min":-511,"x_max":-324,"o":"m -453 1157 l -324 1157 l -382 856 l -511 856 l -453 1157 z "},"̎":{"ha":836,"x_min":-705,"x_max":-131,"o":"m -646 1157 l -517 1157 l -576 856 l -705 856 l -646 1157 m -260 1157 l -131 1157 l -189 856 l -318 856 l -260 1157 z "},"̏":{"ha":836,"x_min":-623,"x_max":-138,"o":"m -623 1111 l -466 1111 l -370 856 l -488 856 l -623 1111 m -367 1111 l -220 1111 l -138 856 l -248 856 l -367 1111 z "},"̐":{"ha":836,"x_min":-509,"x_max":-52,"o":"m -52 1236 q -139 1086 -72 1139 q -309 1034 -205 1034 q -509 1213 -509 1034 l -509 1236 l -412 1236 l -412 1227 q -387 1166 -412 1189 l -376 1221 l -191 1221 l -202 1165 q -149 1236 -165 1191 l -52 1236 z "},"̑":{"ha":836,"x_min":-572,"x_max":-113,"o":"m -572 888 q -480 1038 -549 986 q -305 1089 -412 1089 q -156 1043 -199 1089 q -113 931 -113 998 q -117 888 -113 911 l -214 888 q -213 893 -213 889 q -241 961 -213 937 q -326 985 -269 985 q -476 888 -441 985 l -572 888 z "},"̒":{"ha":836,"x_min":-541,"x_max":-250,"o":"m -381 820 l -250 820 l -350 612 l -541 612 l -381 820 z "},"̓":{"ha":836,"x_min":-545,"x_max":-292,"o":"m -526 923 q -428 1006 -444 923 l -510 1006 l -477 1173 l -292 1173 l -324 1006 q -545 826 -359 827 l -526 923 z "},"̔":{"ha":836,"x_min":-515,"x_max":-292,"o":"m -359 826 q -515 954 -515 827 q -510 1006 -515 975 l -477 1173 l -292 1173 l -324 1006 l -406 1006 q -409 981 -409 994 q -340 923 -409 923 l -359 826 z "},"̕":{"ha":836,"x_min":-450,"x_max":-142,"o":"m -360 1111 l -142 1111 l -317 856 l -450 856 l -360 1111 z "},"̖":{"ha":836,"x_min":-493,"x_max":-159,"o":"m -493 -147 l -300 -147 l -159 -402 l -293 -402 l -493 -147 z "},"̗":{"ha":836,"x_min":-542,"x_max":-109,"o":"m -326 -147 l -109 -147 l -408 -402 l -542 -402 l -326 -147 z "},"̘":{"ha":836,"x_min":-626,"x_max":-324,"o":"m -502 -423 l -626 -423 l -601 -295 l -477 -295 l -453 -171 l -324 -171 l -397 -547 l -526 -547 l -502 -423 z "},"̙":{"ha":836,"x_min":-587,"x_max":-286,"o":"m -514 -171 l -385 -171 l -410 -295 l -286 -295 l -311 -423 l -434 -423 l -458 -547 l -587 -547 l -514 -171 z "},"̚":{"ha":836,"x_min":-595,"x_max":-193,"o":"m -347 1162 l -595 1162 l -570 1290 l -193 1290 l -267 913 l -395 913 l -347 1162 z "},"̛":{"ha":836,"x_min":-568,"x_max":-269,"o":"m -431 501 q -568 576 -500 501 l -549 672 q -488 625 -509 638 q -448 612 -467 612 q -401 632 -422 612 q -374 686 -380 652 q -370 712 -372 699 q -369 739 -369 725 q -374 791 -369 760 l -269 791 q -271 723 -269 754 q -279 663 -273 691 q -333 543 -294 585 q -431 501 -372 501 z "},"̜":{"ha":836,"x_min":-631,"x_max":-450,"o":"m -509 -340 q -602 -303 -572 -340 q -631 -222 -631 -265 q -604 -128 -631 -168 q -534 -65 -576 -87 q -450 -43 -492 -43 l -468 -132 q -516 -152 -492 -132 q -541 -197 -541 -172 q -491 -251 -541 -251 l -509 -340 z "},"̝":{"ha":836,"x_min":-667,"x_max":-265,"o":"m -642 -295 l -517 -295 l -494 -171 l -365 -171 l -389 -295 l -265 -295 l -290 -423 l -667 -423 l -642 -295 z "},"̞":{"ha":836,"x_min":-712,"x_max":-311,"o":"m -588 -423 l -712 -423 l -687 -295 l -311 -295 l -336 -423 l -460 -423 l -484 -547 l -612 -547 l -588 -423 z "},"̟":{"ha":836,"x_min":-684,"x_max":-282,"o":"m -559 -423 l -684 -423 l -659 -295 l -534 -295 l -511 -171 l -382 -171 l -406 -295 l -282 -295 l -307 -423 l -431 -423 l -455 -547 l -583 -547 l -559 -423 z "},"̠":{"ha":836,"x_min":-618,"x_max":-218,"o":"m -594 -171 l -218 -171 l -242 -299 l -618 -299 l -594 -171 z "},"̡":{"ha":836,"x_min":-496,"x_max":-71,"o":"m -467 -135 l -440 -135 q -338 -99 -374 -135 q -285 29 -302 -62 l -268 114 l -71 114 l -87 29 q -196 -214 -120 -140 q -414 -288 -272 -288 l -496 -288 l -467 -135 z "},"̢":{"ha":836,"x_min":-714,"x_max":-385,"o":"m -497 -289 q -662 -243 -610 -289 q -714 -96 -714 -198 q -701 28 -714 -46 l -684 113 l -486 113 l -503 28 q -511 -44 -511 -14 q -487 -116 -511 -95 q -412 -136 -463 -136 l -385 -136 l -415 -289 l -497 -289 z "},"̣":{"ha":836,"x_min":-671,"x_max":-452,"o":"m -638 -146 l -452 -146 l -484 -313 l -671 -313 l -638 -146 z "},"̤":{"ha":836,"x_min":-791,"x_max":-331,"o":"m -759 -146 l -599 -146 l -631 -313 l -791 -313 l -759 -146 m -491 -146 l -331 -146 l -363 -313 l -524 -313 l -491 -146 z "},"̥":{"ha":836,"x_min":-705,"x_max":-401,"o":"m -583 -340 q -675 -303 -646 -340 q -705 -222 -705 -265 q -677 -128 -705 -168 q -608 -65 -650 -87 q -525 -43 -567 -43 q -432 -80 -462 -43 q -401 -160 -401 -118 q -429 -255 -401 -214 q -499 -318 -457 -296 q -583 -340 -541 -340 m -566 -251 q -517 -231 -541 -251 q -493 -187 -493 -211 q -543 -132 -493 -132 q -591 -152 -568 -132 q -614 -197 -614 -172 q -566 -251 -614 -251 z "},"̦":{"ha":836,"x_min":-744,"x_max":-452,"o":"m -644 -134 l -452 -134 l -612 -342 l -744 -342 l -644 -134 z "},"̧":{"ha":836,"x_min":-734,"x_max":-405,"o":"m -597 -272 q -734 -254 -667 -272 l -715 -149 q -606 -172 -655 -172 q -511 -102 -511 -172 q -519 -61 -511 -84 q -549 0 -528 -37 l -454 0 q -405 -125 -405 -65 q -457 -232 -405 -192 q -597 -272 -509 -272 z "},"̨":{"ha":836,"x_min":-692,"x_max":-401,"o":"m -547 -272 q -653 -246 -614 -272 q -692 -175 -692 -220 q -587 0 -692 -94 l -491 0 q -558 -79 -542 -54 q -574 -122 -574 -104 q -557 -158 -574 -144 q -511 -172 -539 -172 q -401 -151 -460 -172 l -422 -257 q -547 -272 -486 -272 z "},"̩":{"ha":836,"x_min":-511,"x_max":-325,"o":"m -453 -148 l -325 -148 l -383 -449 l -511 -449 l -453 -148 z "},"̪":{"ha":836,"x_min":-656,"x_max":-180,"o":"m -607 -148 l -180 -148 l -229 -401 l -357 -401 l -332 -275 l -505 -275 l -529 -401 l -656 -401 l -607 -148 z "},"̫":{"ha":836,"x_min":-680,"x_max":-122,"o":"m -551 -332 q -680 -192 -680 -332 q -679 -162 -680 -178 q -675 -130 -678 -147 l -578 -130 q -578 -138 -578 -134 q -578 -146 -578 -142 q -532 -228 -578 -222 q -450 -141 -478 -228 q -447 -130 -448 -137 l -350 -130 q -350 -138 -350 -134 q -351 -146 -351 -142 q -304 -228 -351 -222 q -227 -154 -256 -228 q -219 -130 -222 -143 l -122 -130 q -244 -315 -154 -271 q -323 -332 -278 -332 q -429 -284 -396 -332 q -551 -332 -478 -332 z "},"̬":{"ha":836,"x_min":-786,"x_max":-275,"o":"m -786 -74 l -665 -74 l -561 -228 l -396 -74 l -275 -74 l -498 -329 l -662 -329 l -786 -74 z "},"̭":{"ha":836,"x_min":-836,"x_max":-325,"o":"m -612 -74 l -449 -74 l -325 -329 l -446 -329 l -551 -176 l -715 -329 l -836 -329 l -612 -74 z "},"̮":{"ha":836,"x_min":-770,"x_max":-313,"o":"m -570 -333 q -770 -154 -770 -333 l -770 -132 l -672 -132 l -672 -140 q -642 -206 -672 -182 q -561 -231 -612 -231 q -466 -204 -506 -231 q -410 -132 -427 -178 l -313 -132 q -399 -281 -332 -229 q -570 -333 -466 -333 z "},"̯":{"ha":836,"x_min":-808,"x_max":-350,"o":"m -808 -332 q -717 -182 -785 -233 q -541 -130 -648 -130 q -393 -176 -435 -130 q -350 -288 -350 -222 q -353 -332 -350 -306 l -449 -332 l -449 -327 q -477 -259 -449 -283 q -562 -234 -505 -234 q -711 -332 -677 -234 l -808 -332 z "},"̰":{"ha":836,"x_min":-817,"x_max":-307,"o":"m -476 -330 q -571 -292 -521 -330 l -604 -267 q -608 -264 -606 -264 q -657 -241 -636 -241 q -698 -265 -680 -241 q -722 -329 -715 -288 l -817 -329 q -758 -189 -804 -241 q -647 -136 -711 -136 q -603 -145 -624 -136 q -551 -178 -583 -153 l -517 -204 q -469 -225 -491 -225 q -401 -138 -415 -225 l -307 -138 q -476 -330 -339 -330 z "},"̱":{"ha":836,"x_min":-784,"x_max":-331,"o":"m -759 -148 l -331 -148 l -356 -275 l -784 -275 l -759 -148 z "},"̲":{"ha":836,"x_min":-836,"x_max":0,"o":"m -836 -199 l 0 -199 l 0 -328 l -836 -328 l -836 -199 z "},"̳":{"ha":836,"x_min":-836,"x_max":0,"o":"m -836 -12 l 0 -12 l 0 -141 l -836 -141 l -836 -12 m -836 -199 l 0 -199 l 0 -328 l -836 -328 l -836 -199 z "},"̴":{"ha":836,"x_min":-799,"x_max":-37,"o":"m -284 314 q -415 349 -345 314 q -427 354 -422 352 q -435 358 -432 357 q -517 389 -484 381 q -585 397 -550 397 q -799 315 -686 397 l -769 471 q -655 530 -708 512 q -546 549 -602 549 q -478 541 -510 549 q -399 513 -446 534 q -378 503 -392 510 q -243 465 -307 465 q -37 550 -153 465 l -67 392 q -178 333 -126 351 q -284 314 -231 314 z "},"̵":{"ha":836,"x_min":-719,"x_max":-168,"o":"m -693 429 l -168 429 l -194 297 l -719 297 l -693 429 z "},"̶":{"ha":836,"x_min":-848,"x_max":14,"o":"m -823 429 l 14 429 l -12 297 l -848 297 l -823 429 z "},"̷":{"ha":836,"x_min":-892,"x_max":53,"o":"m -892 1 l -26 838 l 53 755 l -813 -79 l -892 1 z "},"̸":{"ha":836,"x_min":-931,"x_max":84,"o":"m -931 35 l -10 1057 l 84 979 l -837 -43 l -931 35 z "},"̹":{"ha":836,"x_min":-658,"x_max":-476,"o":"m -640 -251 q -592 -231 -616 -251 q -568 -187 -568 -211 q -617 -132 -568 -132 l -600 -43 q -506 -80 -536 -43 q -476 -160 -476 -118 q -504 -255 -476 -214 q -574 -318 -532 -296 q -658 -340 -616 -340 l -640 -251 z "},"̺":{"ha":836,"x_min":-656,"x_max":-180,"o":"m -607 -99 l -479 -99 l -504 -225 l -332 -225 l -307 -99 l -180 -99 l -229 -353 l -656 -353 l -607 -99 z "},"̻":{"ha":836,"x_min":-650,"x_max":-186,"o":"m -574 -148 l -186 -148 l -262 -536 l -650 -536 l -574 -148 m -355 -420 l -325 -264 l -481 -264 l -511 -420 l -355 -420 z "},"̼":{"ha":836,"x_min":-714,"x_max":-156,"o":"m -714 -332 q -592 -147 -682 -191 q -513 -130 -558 -130 q -408 -178 -440 -130 q -285 -130 -358 -130 q -156 -270 -156 -130 q -157 -299 -156 -284 q -161 -332 -158 -315 l -258 -332 q -258 -323 -258 -328 q -258 -315 -258 -319 q -304 -234 -258 -239 q -386 -321 -358 -234 q -389 -332 -388 -325 l -486 -332 q -486 -323 -486 -328 q -486 -315 -486 -319 q -532 -234 -486 -239 q -609 -308 -581 -234 q -617 -332 -614 -319 l -714 -332 z "},"̽":{"ha":836,"x_min":-614,"x_max":-222,"o":"m -614 899 l -509 987 l -580 1074 l -471 1165 l -400 1078 l -296 1165 l -222 1074 l -327 987 l -256 899 l -365 808 l -436 896 l -541 808 l -614 899 z "},"̾":{"ha":836,"x_min":-551,"x_max":-286,"o":"m -534 909 l -529 909 q -439 947 -447 909 q -453 985 -437 962 l -476 1016 q -502 1076 -502 1051 q -500 1092 -502 1084 q -434 1176 -489 1147 q -286 1204 -378 1204 l -302 1121 l -307 1121 q -397 1084 -390 1121 q -382 1047 -399 1070 q -380 1042 -381 1046 l -360 1014 q -334 954 -334 976 q -336 937 -334 947 q -402 854 -347 882 q -551 826 -458 826 l -534 909 z "},"̿":{"ha":836,"x_min":-836,"x_max":0,"o":"m 0 863 l 0 734 l -836 734 l -836 863 l 0 863 z "},"͘":{"ha":836,"x_min":-14,"x_max":203,"o":"m 19 1075 l 203 1075 l 172 908 l -14 908 l 19 1075 z "},"͡":{"ha":836,"x_min":-1019,"x_max":150,"o":"m -1019 1021 q -959 1118 -1016 1080 q -812 1179 -903 1156 q -613 1211 -722 1201 q -398 1223 -505 1221 l -368 1223 q -230 1217 -302 1223 q -91 1199 -159 1211 q 31 1166 -24 1186 q 118 1117 85 1145 q 150 1050 150 1088 q 145 1021 150 1035 l 48 1021 q -81 1094 48 1069 q -418 1119 -211 1119 q -765 1094 -625 1119 q -922 1021 -904 1069 l -1019 1021 z "},"΄":{"ha":836,"x_min":386,"x_max":819,"o":"m 602 1111 l 819 1111 l 519 856 l 386 856 l 602 1111 z "},"΅":{"ha":836,"x_min":234,"x_max":868,"o":"m 650 1320 l 868 1320 l 568 1065 l 435 1065 l 650 1320 m 257 908 q 239 930 234 908 l 263 1057 q 285 1075 266 1075 l 405 1075 q 422 1053 427 1075 l 397 926 q 376 908 395 908 l 257 908 m 593 908 q 574 930 570 908 l 599 1057 q 621 1075 602 1075 l 741 1075 q 759 1053 764 1075 l 734 926 q 712 908 731 908 l 593 908 z "},"Ά":{"ha":836,"x_min":-55,"x_max":737,"o":"m 178 1029 l 395 1029 l 96 774 l -38 774 l 178 1029 m 416 1013 l 661 1013 l 737 0 l 538 0 l 529 250 l 258 250 l 148 0 l -55 0 l 416 1013 m 522 415 l 508 827 l 329 415 l 522 415 z "},"Έ":{"ha":836,"x_min":-269,"x_max":833,"o":"m -54 1019 l 164 1019 l -136 764 l -269 764 l -54 1019 m 201 1013 l 833 1013 l 799 836 l 368 836 l 326 618 l 715 618 l 682 441 l 292 441 l 241 176 l 671 176 l 636 0 l 6 0 l 201 1013 z "},"Ή":{"ha":836,"x_min":-271,"x_max":842,"o":"m -56 1019 l 162 1019 l -138 764 l -271 764 l -56 1019 m 192 1013 l 392 1013 l 317 627 l 567 627 l 642 1013 l 842 1013 l 644 0 l 444 0 l 532 450 l 282 450 l 195 0 l -5 0 l 192 1013 z "},"Ί":{"ha":836,"x_min":-245,"x_max":818,"o":"m -29 1019 l 189 1019 l -111 764 l -245 764 l -29 1019 m 53 176 l 254 176 l 382 836 l 180 836 l 215 1013 l 818 1013 l 783 836 l 582 836 l 454 176 l 656 176 l 621 0 l 18 0 l 53 176 z "},"Ό":{"ha":836,"x_min":-148,"x_max":789,"o":"m 68 1019 l 286 1019 l -14 764 l -148 764 l 68 1019 m 332 -38 q 112 48 188 -38 q 36 309 36 134 q 52 486 36 392 q 97 666 68 579 q 161 815 125 753 q 299 963 217 913 q 493 1013 381 1013 q 712 927 636 1013 q 789 667 789 842 q 774 498 789 590 q 732 317 760 406 q 665 161 704 228 q 527 13 610 63 q 332 -38 444 -38 m 353 140 q 426 164 395 140 q 482 235 457 188 q 544 409 516 298 q 572 549 560 477 q 583 676 583 621 q 473 836 583 836 q 398 812 429 836 q 343 741 368 787 q 312 669 328 711 q 281 566 296 627 q 251 409 260 485 q 242 292 242 332 q 269 180 242 220 q 353 140 296 140 z "},"Ύ":{"ha":836,"x_min":-362,"x_max":904,"o":"m 290 362 q 304 464 300 414 q 309 562 309 515 q 291 730 309 659 q 243 816 273 800 q 142 840 193 840 q 86 833 115 840 l 121 1013 q 182 1020 144 1020 q 225 1018 202 1020 q 275 1010 249 1016 q 451 717 454 978 q 741 1010 573 972 q 787 1016 768 1016 q 857 995 828 1016 q 904 903 904 962 q 858 766 904 847 q 823 732 844 743 q 780 721 802 721 q 720 745 746 721 q 698 816 694 769 q 567 611 617 724 q 490 362 516 499 l 419 0 l 219 0 l 290 362 m -146 1019 l 71 1019 l -229 764 l -362 764 l -146 1019 z "},"Ώ":{"ha":836,"x_min":-104,"x_max":800,"o":"m 111 1019 l 329 1019 l 29 764 l -104 764 l 111 1019 m 3 143 l 164 143 q 71 395 71 245 q 85 530 71 456 q 174 773 112 669 q 326 933 237 876 q 524 990 416 990 q 727 905 655 990 q 800 671 800 820 q 785 530 800 606 q 706 309 761 401 q 555 143 650 216 l 717 143 l 689 0 l 370 0 l 405 182 q 514 317 475 239 q 576 507 553 395 q 592 649 592 589 q 582 731 592 696 q 490 810 559 810 q 365 729 418 810 q 284 507 312 648 q 270 374 270 434 q 331 182 270 252 l 296 0 l -25 0 l 3 143 z "},"ΐ":{"ha":836,"x_min":209,"x_max":863,"o":"m 645 1313 l 863 1313 l 563 1058 l 429 1058 l 645 1313 m 259 895 q 241 918 236 895 l 265 1044 q 287 1062 269 1062 l 407 1062 q 425 1040 429 1062 l 399 913 q 378 895 396 895 l 259 895 m 581 895 q 563 918 558 895 l 587 1044 q 609 1062 590 1062 l 730 1062 q 747 1040 752 1062 l 722 913 q 701 895 719 895 l 581 895 m 519 -5 q 324 28 382 -5 q 266 151 266 61 q 269 197 266 172 q 277 252 272 222 l 345 607 l 209 607 l 239 760 l 573 760 l 473 242 q 470 212 470 224 q 562 147 470 147 l 602 147 l 572 -5 l 519 -5 z "},"Α":{"ha":836,"x_min":-71,"x_max":721,"o":"m 400 1013 l 644 1013 l 721 0 l 522 0 l 513 250 l 241 250 l 132 0 l -71 0 l 400 1013 m 505 415 l 492 827 l 313 415 l 505 415 z "},"Β":{"ha":836,"x_min":-9,"x_max":804,"o":"m 188 1014 l 515 1014 q 804 789 804 1014 q 739 614 804 681 q 556 533 674 547 q 701 473 648 525 q 755 323 755 421 q 729 193 755 256 q 656 86 703 129 q 528 21 608 41 q 317 0 449 0 l -9 0 l 188 1014 m 438 619 q 562 656 520 619 q 604 759 604 693 q 576 832 604 810 q 484 854 549 854 l 351 854 l 304 619 l 438 619 m 349 160 q 555 336 555 160 q 525 428 555 395 q 408 460 494 460 l 274 460 l 216 160 l 349 160 z "},"Γ":{"ha":836,"x_min":35,"x_max":863,"o":"m 232 1013 l 863 1013 l 829 836 l 398 836 l 235 0 l 35 0 l 232 1013 z "},"Δ":{"ha":836,"x_min":-75,"x_max":716,"o":"m 395 1013 l 640 1013 l 716 0 l -75 0 l 395 1013 m 509 176 l 481 829 l 199 176 l 509 176 z "},"Ε":{"ha":836,"x_min":20,"x_max":847,"o":"m 215 1013 l 847 1013 l 812 836 l 382 836 l 339 618 l 729 618 l 696 441 l 306 441 l 254 176 l 685 176 l 650 0 l 20 0 l 215 1013 z "},"Ζ":{"ha":836,"x_min":-22,"x_max":875,"o":"m 9 165 l 591 836 l 155 836 l 191 1013 l 875 1013 l 842 847 l 248 176 l 722 176 l 688 0 l -22 0 l 9 165 z "},"Η":{"ha":836,"x_min":-5,"x_max":842,"o":"m 192 1013 l 392 1013 l 317 627 l 567 627 l 642 1013 l 842 1013 l 644 0 l 444 0 l 532 450 l 282 450 l 195 0 l -5 0 l 192 1013 z "},"Θ":{"ha":836,"x_min":-14,"x_max":842,"o":"m -14 307 q 2 461 -14 377 q 181 832 49 703 q 511 962 314 962 q 757 875 673 962 q 842 621 842 788 q 824 458 842 551 q 649 100 777 216 q 325 -16 522 -16 q -14 307 -14 -16 m 633 465 q 649 607 649 543 q 484 802 649 802 q 294 710 364 802 q 195 465 224 618 q 181 342 181 394 q 223 204 181 252 q 359 157 265 157 q 542 236 480 157 q 633 465 604 315 m 286 549 l 575 549 l 545 393 l 255 393 l 286 549 z "},"Ι":{"ha":836,"x_min":18,"x_max":818,"o":"m 53 176 l 254 176 l 382 836 l 180 836 l 215 1013 l 818 1013 l 783 836 l 582 836 l 454 176 l 656 176 l 621 0 l 18 0 l 53 176 z "},"Κ":{"ha":836,"x_min":-15,"x_max":925,"o":"m 180 1013 l 380 1013 l 307 635 l 689 1013 l 925 1013 l 514 603 l 743 0 l 538 0 l 366 454 l 249 339 l 184 0 l -15 0 l 180 1013 z "},"Λ":{"ha":836,"x_min":-70,"x_max":722,"o":"m 400 1013 l 645 1013 l 722 0 l 522 0 l 487 829 l 130 0 l -70 0 l 400 1013 z "},"Μ":{"ha":836,"x_min":-39,"x_max":875,"o":"m 157 1013 l 396 1013 l 429 568 l 631 1013 l 875 1013 l 679 0 l 507 0 l 668 812 l 469 368 l 321 368 l 289 812 l 132 0 l -39 0 l 157 1013 z "},"Ν":{"ha":836,"x_min":-17,"x_max":851,"o":"m 180 1013 l 386 1013 l 532 277 l 675 1013 l 851 1013 l 656 0 l 457 0 l 304 736 l 161 0 l -17 0 l 180 1013 z "},"Ξ":{"ha":836,"x_min":-5,"x_max":842,"o":"m 192 1013 l 842 1013 l 808 836 l 158 836 l 192 1013 m 279 627 l 605 627 l 570 450 l 245 450 l 279 627 m 29 176 l 680 176 l 646 0 l -5 0 l 29 176 z "},"Ο":{"ha":836,"x_min":41,"x_max":794,"o":"m 337 -20 q 117 66 193 -20 q 41 327 41 153 q 58 504 41 410 q 102 684 74 597 q 167 833 130 771 q 304 981 222 931 q 498 1031 387 1031 q 718 945 642 1031 q 794 686 794 860 q 780 517 794 609 q 737 336 765 425 q 671 179 709 247 q 532 31 615 81 q 337 -20 450 -20 m 358 158 q 432 182 401 158 q 488 253 463 206 q 549 427 522 316 q 577 567 566 495 q 589 694 589 640 q 478 854 589 854 q 404 830 434 854 q 349 759 373 806 q 317 687 333 730 q 286 584 302 645 q 257 427 266 503 q 248 311 248 351 q 275 198 248 238 q 358 158 302 158 z "},"Π":{"ha":836,"x_min":1,"x_max":848,"o":"m 198 1013 l 848 1013 l 652 0 l 452 0 l 614 836 l 364 836 l 201 0 l 1 0 l 198 1013 z "},"Ρ":{"ha":836,"x_min":18,"x_max":827,"o":"m 215 1013 l 500 1013 q 744 951 660 1013 q 827 762 827 889 q 802 616 827 688 q 739 496 777 544 q 601 405 686 431 q 403 379 516 379 l 292 379 l 218 0 l 18 0 l 215 1013 m 422 547 q 570 593 522 547 q 619 725 619 639 q 585 817 619 790 q 464 844 551 844 l 382 844 l 325 547 l 422 547 z "},"Σ":{"ha":836,"x_min":-32,"x_max":874,"o":"m 2 176 l 338 507 l 131 837 l 165 1013 l 874 1013 l 840 836 l 361 836 l 570 507 l 233 176 l 711 176 l 677 0 l -32 0 l 2 176 z "},"Τ":{"ha":836,"x_min":130,"x_max":882,"o":"m 390 838 l 130 838 l 163 1013 l 882 1013 l 847 838 l 590 838 l 427 0 l 228 0 l 390 838 z "},"Υ":{"ha":836,"x_min":90,"x_max":907,"o":"m 293 362 q 308 464 303 414 q 313 562 313 515 q 295 730 313 659 q 246 816 277 800 q 145 840 197 840 q 90 833 118 840 l 124 1013 q 186 1020 147 1020 q 229 1018 205 1020 q 278 1010 252 1016 q 454 717 457 978 q 745 1010 576 972 q 790 1016 772 1016 q 861 995 831 1016 q 907 903 907 962 q 861 766 907 847 q 827 732 848 743 q 783 721 806 721 q 724 745 750 721 q 701 816 697 769 q 570 611 621 724 q 493 362 519 499 l 422 0 l 222 0 l 293 362 z "},"Φ":{"ha":836,"x_min":55,"x_max":781,"o":"m 173 176 l 254 176 l 263 224 q 115 284 175 236 q 55 429 55 332 q 57 467 55 446 q 62 505 58 488 q 124 654 77 595 q 237 746 172 713 q 373 787 302 779 l 382 836 l 301 836 l 336 1013 l 697 1013 l 663 836 l 583 836 l 573 787 q 679 754 632 777 q 754 689 726 732 q 781 578 781 647 q 780 544 781 563 q 774 505 778 525 q 709 353 755 412 q 598 264 663 294 q 463 224 534 233 l 454 176 l 535 176 l 500 0 l 139 0 l 173 176 m 347 654 l 320 636 q 258 565 279 608 q 237 475 237 522 q 269 375 237 418 q 289 357 276 364 l 347 654 m 489 357 q 516 375 505 366 q 579 458 557 412 q 602 548 602 505 q 593 597 602 574 q 567 636 585 621 l 547 654 l 489 357 z "},"Χ":{"ha":836,"x_min":-97,"x_max":911,"o":"m 319 530 l 125 1013 l 322 1013 l 449 699 l 693 1013 l 911 1013 l 522 513 l 726 0 l 529 0 l 393 347 l 122 0 l -97 0 l 319 530 z "},"Ψ":{"ha":836,"x_min":86,"x_max":880,"o":"m 173 176 l 254 176 l 271 266 q 129 385 177 295 q 97 473 108 424 q 86 587 86 522 q 91 676 86 631 q 107 777 96 722 l 153 1013 l 353 1013 l 307 777 q 288 608 288 685 q 291 556 288 578 q 299 514 294 534 q 313 478 305 490 l 416 1013 l 616 1013 l 513 478 q 526 494 519 484 q 540 514 533 504 q 594 626 570 562 q 635 777 618 690 l 680 1013 l 880 1013 l 835 777 q 765 548 809 645 q 661 385 720 450 q 471 266 576 296 l 454 176 l 535 176 l 500 0 l 139 0 l 173 176 z "},"Ω":{"ha":836,"x_min":61,"x_max":775,"o":"m 61 143 l 222 143 q 104 309 140 217 q 68 530 68 401 q 92 722 68 636 q 162 867 117 807 q 270 957 206 924 q 417 990 334 990 q 564 958 499 990 q 673 866 628 926 q 768 530 768 744 q 732 309 768 401 q 614 143 696 217 l 775 143 l 775 0 l 456 0 l 456 182 q 537 315 510 235 q 564 509 564 394 q 526 731 564 651 q 418 810 488 810 q 311 731 349 810 q 272 509 272 652 q 299 315 272 393 q 330 246 311 280 q 382 182 350 212 l 382 0 l 61 0 l 61 143 z "},"Ϊ":{"ha":836,"x_min":18,"x_max":818,"o":"m 321 1090 q 303 1113 298 1090 l 329 1239 q 351 1257 333 1257 l 469 1257 q 487 1235 492 1257 l 462 1109 q 440 1090 458 1090 l 321 1090 m 589 1090 q 572 1113 567 1090 l 597 1239 q 618 1257 600 1257 l 737 1257 q 755 1235 760 1257 l 731 1109 q 709 1090 728 1090 l 589 1090 m 53 176 l 254 176 l 382 836 l 180 836 l 215 1013 l 818 1013 l 783 836 l 582 836 l 454 176 l 656 176 l 621 0 l 18 0 l 53 176 z "},"Ϋ":{"ha":836,"x_min":90,"x_max":907,"o":"m 328 1090 q 310 1113 305 1090 l 336 1239 q 357 1257 340 1257 l 476 1257 q 494 1235 498 1257 l 469 1109 q 447 1090 465 1090 l 328 1090 m 596 1090 q 578 1113 574 1090 l 604 1239 q 625 1257 606 1257 l 744 1257 q 762 1235 767 1257 l 738 1109 q 716 1090 735 1090 l 596 1090 m 293 362 q 308 464 303 414 q 313 562 313 515 q 295 730 313 659 q 246 816 277 800 q 145 840 197 840 q 90 833 118 840 l 124 1013 q 186 1020 147 1020 q 229 1018 205 1020 q 278 1010 252 1016 q 454 717 457 978 q 745 1010 576 972 q 790 1016 772 1016 q 861 995 831 1016 q 907 903 907 962 q 861 766 907 847 q 827 732 848 743 q 783 721 806 721 q 724 745 750 721 q 701 816 697 769 q 570 611 621 724 q 493 362 519 499 l 422 0 l 222 0 l 293 362 z "},"ά":{"ha":836,"x_min":24,"x_max":854,"o":"m 602 1135 l 819 1135 l 519 880 l 386 880 l 602 1135 m 646 0 q 494 57 538 0 q 483 77 484 72 q 444 39 458 52 q 408 12 430 26 q 347 -12 378 -6 q 279 -18 315 -18 q 144 5 202 -18 q 56 83 87 28 q 24 249 24 141 q 61 485 24 374 q 172 667 99 595 q 303 752 234 727 q 437 777 373 777 q 551 754 503 777 q 625 686 600 731 l 663 760 l 854 760 l 648 368 l 646 264 q 690 153 644 153 l 745 153 l 715 0 l 646 0 m 475 399 l 476 510 q 456 589 477 564 q 403 614 436 614 q 347 598 376 614 q 292 551 318 583 q 230 426 252 501 q 209 286 209 351 q 213 236 209 255 q 224 203 217 216 q 258 163 237 176 q 300 149 279 149 q 368 193 345 149 l 475 399 z "},"έ":{"ha":836,"x_min":64,"x_max":819,"o":"m 602 1130 l 819 1130 l 519 875 l 386 875 l 602 1130 m 385 -15 q 142 32 220 -15 q 64 167 64 78 q 68 212 64 190 q 147 344 85 294 q 319 410 209 394 q 159 545 159 433 q 162 576 159 558 q 273 720 180 666 q 523 773 366 773 q 645 765 581 773 q 648 764 646 764 q 652 764 650 764 q 750 741 674 760 l 722 595 l 705 600 q 604 628 644 621 q 513 636 564 636 q 446 631 475 636 q 391 613 418 627 l 374 603 q 342 556 346 583 q 340 543 340 547 q 370 504 340 522 q 475 481 408 481 l 578 481 l 549 330 l 446 330 q 313 298 362 330 l 299 290 q 252 218 260 262 q 250 203 250 210 q 284 151 250 174 q 339 129 308 134 q 410 123 370 123 q 481 126 447 123 q 551 136 515 130 q 585 142 574 140 q 669 172 602 147 l 640 23 q 627 20 633 22 q 503 -7 559 0 q 385 -15 446 -15 z "},"ή":{"ha":836,"x_min":49,"x_max":812,"o":"m 595 1135 l 812 1135 l 513 880 l 379 880 l 595 1135 m 551 463 q 559 533 559 505 q 486 616 559 616 q 387 568 426 616 q 331 435 347 519 l 246 0 l 49 0 l 197 760 l 374 760 l 372 646 q 463 744 406 709 q 594 778 520 778 q 766 597 766 778 q 754 493 766 552 l 602 -289 l 405 -289 l 551 463 z "},"ί":{"ha":836,"x_min":207,"x_max":799,"o":"m 581 1118 l 799 1118 l 499 863 l 366 863 l 581 1118 m 517 -5 q 322 28 380 -5 q 264 151 264 61 q 267 197 264 172 q 275 252 270 222 l 343 607 l 207 607 l 237 760 l 571 760 l 471 242 q 468 212 468 224 q 560 147 468 147 l 600 147 l 570 -5 l 517 -5 z "},"ΰ":{"ha":836,"x_min":82,"x_max":868,"o":"m 650 1320 l 868 1320 l 568 1065 l 435 1065 l 650 1320 m 257 908 q 239 930 234 908 l 263 1057 q 285 1075 266 1075 l 405 1075 q 422 1053 427 1075 l 397 926 q 376 908 395 908 l 257 908 m 593 908 q 574 930 570 908 l 599 1057 q 621 1075 602 1075 l 741 1075 q 759 1053 764 1075 l 734 926 q 712 908 731 908 l 593 908 m 328 0 q 162 42 209 0 q 115 157 115 84 q 126 257 115 195 l 194 607 l 82 607 l 112 760 l 422 760 l 322 248 q 319 220 319 234 q 339 169 319 184 q 391 153 359 153 q 504 221 454 153 q 584 434 553 290 q 596 510 591 470 q 602 602 602 549 q 594 691 602 654 q 560 760 586 728 l 758 760 q 785 679 775 729 q 794 566 794 628 q 791 497 794 529 q 781 433 787 465 q 633 115 743 229 q 328 0 524 0 z "},"α":{"ha":836,"x_min":24,"x_max":854,"o":"m 646 0 q 494 57 538 0 q 483 77 484 72 q 444 39 458 52 q 408 12 430 26 q 347 -12 378 -6 q 279 -18 315 -18 q 144 5 202 -18 q 56 83 87 28 q 24 249 24 141 q 61 485 24 374 q 172 667 99 595 q 303 752 234 727 q 437 777 373 777 q 551 754 503 777 q 625 686 600 731 l 663 760 l 854 760 l 648 368 l 646 264 q 690 153 644 153 l 745 153 l 715 0 l 646 0 m 475 399 l 476 510 q 456 589 477 564 q 403 614 436 614 q 347 598 376 614 q 292 551 318 583 q 230 426 252 501 q 209 286 209 351 q 213 236 209 255 q 224 203 217 216 q 258 163 237 176 q 300 149 279 149 q 368 193 345 149 l 475 399 z "},"β":{"ha":836,"x_min":-28,"x_max":798,"o":"m 175 755 q 525 1064 236 1064 q 685 1030 625 1064 q 772 942 745 996 q 798 825 798 887 q 761 667 798 744 q 663 549 723 590 q 751 483 725 528 q 777 384 777 439 q 769 307 777 346 q 660 79 745 167 q 436 -14 576 -9 q 428 -15 431 -14 q 416 -15 425 -15 q 319 -1 368 -15 q 235 47 271 14 l 169 -289 l -28 -289 l 175 755 m 278 273 q 346 189 302 218 q 431 159 389 159 q 512 193 475 159 q 564 304 549 228 q 568 344 568 326 q 423 446 568 446 q 412 446 418 446 q 401 446 407 446 l 431 597 q 517 625 480 595 q 574 701 554 655 q 594 790 594 746 q 571 869 594 836 q 498 903 547 903 q 371 751 402 903 l 278 273 z "},"γ":{"ha":836,"x_min":85,"x_max":860,"o":"m 241 0 l 182 510 q 152 581 176 557 q 133 594 144 588 q 113 600 123 600 l 85 600 l 116 760 l 170 760 q 303 704 244 760 q 372 548 361 649 l 400 281 l 659 760 l 860 760 l 439 0 l 383 -289 l 185 -289 l 241 0 z "},"δ":{"ha":836,"x_min":47,"x_max":799,"o":"m 333 -20 q 123 58 198 -20 q 47 269 47 135 q 59 379 47 319 q 117 545 78 475 q 211 670 155 615 q 251 706 231 690 q 281 722 271 722 q 225 770 243 740 q 208 836 208 800 q 236 930 208 882 q 324 1012 265 979 q 432 1050 369 1037 q 574 1064 494 1064 q 694 1056 637 1064 q 697 1055 695 1055 q 701 1055 699 1055 q 799 1031 723 1051 l 770 886 q 760 889 760 890 q 754 891 760 888 q 685 911 713 903 q 630 923 657 920 q 565 927 602 927 q 495 922 524 927 q 440 904 466 918 l 424 894 q 389 834 389 872 q 405 797 389 808 q 443 782 420 785 q 488 778 465 779 q 705 696 635 771 q 774 491 774 621 q 771 435 774 463 q 762 378 768 408 q 677 166 738 255 q 528 28 616 77 q 333 -20 439 -20 m 365 142 q 489 204 436 142 q 564 379 542 267 q 573 467 573 429 q 543 577 573 538 q 456 616 513 616 q 332 553 385 616 q 258 379 279 490 q 248 292 248 330 q 278 181 248 220 q 365 142 308 142 z "},"ε":{"ha":836,"x_min":64,"x_max":750,"o":"m 385 -15 q 142 32 220 -15 q 64 167 64 78 q 68 212 64 190 q 147 344 85 294 q 319 410 209 394 q 159 545 159 433 q 162 576 159 558 q 273 720 180 666 q 523 773 366 773 q 645 765 581 773 q 648 764 646 764 q 652 764 650 764 q 750 741 674 760 l 722 595 l 705 600 q 604 628 644 621 q 513 636 564 636 q 446 631 475 636 q 391 613 418 627 l 374 603 q 342 556 346 583 q 340 543 340 547 q 370 504 340 522 q 475 481 408 481 l 578 481 l 549 330 l 446 330 q 313 298 362 330 l 299 290 q 252 218 260 262 q 250 203 250 210 q 284 151 250 174 q 339 129 308 134 q 410 123 370 123 q 481 126 447 123 q 551 136 515 130 q 585 142 574 140 q 669 172 602 147 l 640 23 q 627 20 633 22 q 503 -7 559 0 q 385 -15 446 -15 z "},"ζ":{"ha":836,"x_min":94,"x_max":860,"o":"m 422 -136 q 490 -117 466 -137 q 517 -70 513 -97 q 504 -22 521 -43 q 449 0 487 -1 q 233 46 313 0 q 123 169 153 92 q 110 341 94 245 q 183 539 125 437 q 334 735 240 640 q 555 903 429 829 l 236 903 l 266 1055 l 860 1055 l 830 903 q 311 362 366 646 q 479 153 272 161 q 622 93 573 149 q 650 -71 671 37 q 559 -230 630 -171 q 393 -289 489 -289 l 422 -136 z "},"η":{"ha":836,"x_min":47,"x_max":764,"o":"m 549 463 q 557 533 557 505 q 484 616 557 616 q 385 568 424 616 q 329 435 345 519 l 244 0 l 47 0 l 195 760 l 372 760 l 370 646 q 461 744 404 709 q 592 778 518 778 q 764 597 764 778 q 752 493 764 552 l 600 -289 l 403 -289 l 549 463 z "},"θ":{"ha":836,"x_min":73,"x_max":817,"o":"m 340 -16 q 142 78 212 -16 q 73 332 73 172 q 78 424 73 373 q 92 526 83 474 q 189 809 122 688 q 349 1000 256 931 q 551 1068 442 1068 q 747 974 678 1068 q 817 718 817 880 q 812 626 817 675 q 798 526 807 576 q 732 310 777 415 q 625 130 687 204 q 490 19 562 55 q 340 -16 417 -16 m 611 602 q 617 665 615 634 q 620 724 620 695 q 597 859 620 807 q 519 911 574 911 q 433 870 472 911 q 362 759 393 829 q 309 602 331 689 l 611 602 m 370 142 q 459 184 419 142 q 529 295 498 226 q 581 449 559 365 l 279 449 q 272 386 275 416 q 270 328 270 356 q 293 194 270 246 q 370 142 315 142 z "},"ι":{"ha":836,"x_min":214,"x_max":606,"o":"m 524 -5 q 329 28 387 -5 q 271 151 271 61 q 274 197 271 172 q 282 252 277 222 l 350 607 l 214 607 l 243 760 l 578 760 l 478 242 q 475 212 475 224 q 567 147 475 147 l 606 147 l 576 -5 l 524 -5 z "},"κ":{"ha":836,"x_min":44,"x_max":870,"o":"m 192 760 l 391 760 l 340 501 l 629 760 l 870 760 l 528 476 l 739 0 l 519 0 l 380 355 l 299 290 l 243 0 l 44 0 l 192 760 z "},"λ":{"ha":836,"x_min":-7,"x_max":721,"o":"m 413 725 l 401 806 q 371 876 393 856 q 285 896 349 896 l 209 896 l 239 1055 l 341 1055 q 526 999 468 1055 q 600 827 584 943 l 721 0 l 519 0 l 454 444 l 195 0 l -7 0 l 413 725 z "},"μ":{"ha":836,"x_min":-37,"x_max":778,"o":"m 167 760 l 363 760 l 273 298 q 265 235 265 260 q 288 168 265 192 q 353 144 311 144 q 493 298 461 144 l 582 760 l 778 760 l 676 233 q 673 213 675 222 q 671 199 672 204 q 669 182 669 187 q 697 144 669 144 q 739 161 711 144 l 710 11 q 600 -20 650 -20 q 526 5 551 -20 q 492 87 500 31 q 325 -20 419 -20 q 224 45 244 -20 l 158 -290 l -37 -290 l 167 760 z "},"ν":{"ha":836,"x_min":106,"x_max":800,"o":"m 106 760 l 313 760 l 355 200 q 517 362 458 290 q 593 512 576 435 q 596 551 596 528 q 593 591 596 570 q 571 680 586 634 q 535 760 556 726 l 743 760 q 786 650 772 712 q 800 535 800 587 q 796 485 800 507 q 743 353 785 422 q 641 219 700 285 q 519 97 581 153 q 406 0 456 40 l 165 0 l 106 760 z "},"ξ":{"ha":836,"x_min":82,"x_max":853,"o":"m 416 -136 q 484 -116 463 -136 q 509 -71 505 -96 q 510 -56 510 -61 q 495 -17 510 -31 q 442 0 479 -3 q 380 6 422 3 q 287 19 338 9 q 190 51 237 28 q 113 114 143 73 q 82 218 82 154 q 121 352 82 288 q 229 465 160 417 q 391 528 298 512 q 251 586 294 542 q 208 684 208 629 q 259 810 208 747 q 397 903 310 873 l 229 903 l 259 1055 l 853 1055 l 823 903 q 595 877 686 903 q 459 813 504 852 q 414 734 414 774 q 484 642 414 682 q 695 597 555 601 l 666 446 q 399 401 495 443 q 288 278 302 359 q 286 256 286 267 q 317 192 286 213 q 391 163 348 170 q 472 153 434 155 q 520 146 490 152 q 579 123 549 140 q 629 74 609 107 q 650 -14 650 41 q 644 -71 650 -40 q 553 -230 623 -171 q 386 -289 482 -289 l 416 -136 z "},"ο":{"ha":836,"x_min":60,"x_max":777,"o":"m 361 -20 q 141 63 222 -20 q 60 308 60 145 q 87 485 60 400 q 168 636 115 570 q 298 741 220 703 q 475 779 375 779 q 695 697 614 779 q 777 451 777 614 q 749 274 777 358 q 669 123 722 189 q 538 19 616 57 q 361 -20 461 -20 m 378 140 q 483 186 439 140 q 552 303 528 232 q 576 450 576 374 q 545 577 576 537 q 460 618 514 618 q 375 590 412 618 q 312 518 338 563 q 273 418 286 473 q 260 309 260 363 q 292 181 260 222 q 378 140 324 140 z "},"π":{"ha":836,"x_min":8,"x_max":822,"o":"m 689 -26 q 637 -23 660 -26 q 595 -15 615 -20 q 535 18 554 -2 q 507 69 517 38 q 497 158 497 101 l 497 604 l 311 604 l 311 0 l 118 0 l 118 604 l 8 604 l 8 746 l 800 746 l 800 604 l 690 604 l 690 245 q 695 171 690 196 q 707 137 699 146 q 771 115 724 115 q 787 115 780 115 q 800 116 794 115 l 822 118 l 822 -9 q 759 -22 796 -18 q 689 -26 726 -26 z "},"ρ":{"ha":836,"x_min":-35,"x_max":785,"o":"m 94 374 q 236 675 132 573 q 517 778 340 778 q 723 712 661 778 q 785 528 785 647 q 769 378 785 463 q 636 82 731 184 q 416 -20 541 -20 q 307 12 348 -20 q 241 107 266 43 l 163 -289 l -35 -289 l 94 374 m 389 146 q 500 208 451 146 q 558 329 536 256 q 579 472 579 403 q 567 553 579 521 q 479 615 543 615 q 364 551 416 615 q 293 380 312 488 q 286 330 288 355 q 284 288 284 305 q 311 184 284 222 q 389 146 338 146 z "},"ς":{"ha":836,"x_min":100,"x_max":785,"o":"m 407 -136 q 473 -117 452 -136 q 500 -71 494 -98 q 501 -56 501 -61 q 486 -17 501 -32 q 433 0 470 -3 q 372 3 412 1 q 286 16 332 5 q 196 52 239 26 q 127 127 154 77 q 100 258 100 176 q 103 319 100 287 q 113 379 107 351 q 199 593 137 504 q 355 731 262 683 q 566 779 449 779 q 681 765 627 779 q 785 721 734 751 l 749 539 q 562 616 673 616 q 399 554 463 616 q 314 379 336 492 q 306 303 306 336 q 332 205 306 236 q 395 165 358 174 q 463 153 431 155 q 513 145 484 151 q 572 122 543 139 q 621 73 602 106 q 640 -16 640 41 q 639 -41 640 -27 q 635 -71 638 -55 q 545 -229 616 -170 q 377 -289 473 -289 l 407 -136 z "},"σ":{"ha":836,"x_min":31,"x_max":842,"o":"m 318 -20 q 106 58 181 -20 q 31 269 31 135 q 42 379 31 319 q 186 657 76 555 q 467 760 297 760 l 842 760 l 812 607 l 669 607 q 728 525 709 572 q 747 421 747 477 q 705 244 747 336 q 593 88 664 153 q 318 -20 477 -20 m 346 142 q 446 180 403 142 q 515 273 488 218 q 547 379 541 328 q 549 399 549 387 q 550 418 550 410 q 459 562 550 494 q 395 602 425 587 q 349 581 368 594 q 315 551 330 568 q 254 433 277 506 q 232 294 232 360 q 248 205 232 239 q 346 142 275 142 z "},"τ":{"ha":836,"x_min":119,"x_max":802,"o":"m 520 0 q 326 33 384 0 q 267 156 267 66 q 270 202 267 178 q 279 257 273 227 l 347 607 l 119 607 l 149 760 l 802 760 l 772 607 l 545 607 l 475 248 q 471 217 471 229 q 494 168 471 182 q 564 153 516 153 l 603 153 l 573 0 l 520 0 z "}}}
